<mxfile host="app.diagrams.net" modified="2021-11-18T07:56:25.205Z" agent="5.0 (Windows NT 10.0; Win64; x64) AppleWebKit/537.36 (KHTML, like Gecko) Chrome/92.0.4515.159 Safari/537.36" etag="ylz3yOEF8lFUnMHtHVGF" version="14.9.3" type="github" pages="3">
  <diagram id="C5RBs43oDa-KdzZeNtuy" name="Page-1">
    <mxGraphModel dx="716" dy="365" grid="1" gridSize="7.874" guides="1" tooltips="1" connect="1" arrows="1" fold="1" page="1" pageScale="1" pageWidth="850" pageHeight="1100" math="0" shadow="0">
      <root>
        <mxCell id="WIyWlLk6GJQsqaUBKTNV-0" />
        <mxCell id="WIyWlLk6GJQsqaUBKTNV-1" parent="WIyWlLk6GJQsqaUBKTNV-0" />
        <mxCell id="hoXgWQwnw69QvBTEGAqw-0" value="" style="shape=cylinder3;whiteSpace=wrap;boundedLbl=1;backgroundOutline=1;size=13.734285714285704;labelBorderColor=none;shadow=0;sketch=0;fillColor=#B5FFF5;" parent="WIyWlLk6GJQsqaUBKTNV-1" vertex="1">
          <mxGeometry x="132" y="125.98" width="115.51" height="322.84" as="geometry" />
        </mxCell>
        <mxCell id="hoXgWQwnw69QvBTEGAqw-1" value="Static Layer" style="text;resizable=0;autosize=1;align=center;verticalAlign=middle;points=[];fillColor=none;strokeColor=none;fontFamily=Times New Roman;labelBorderColor=none;fontStyle=1;" parent="WIyWlLk6GJQsqaUBKTNV-1" vertex="1">
          <mxGeometry x="152.13" y="127.98999999999998" width="78.74" height="23.622" as="geometry" />
        </mxCell>
        <mxCell id="hoXgWQwnw69QvBTEGAqw-2" value="" style="shape=parallelogram;perimeter=parallelogramPerimeter;whiteSpace=wrap;fixedSize=1;fontFamily=Times New Roman;size=72.23199999999997;labelBorderColor=none;rounded=1;fillColor=#F9F9F9;strokeColor=#A9D1F9;" parent="WIyWlLk6GJQsqaUBKTNV-1" vertex="1">
          <mxGeometry x="220.37" y="220.48" width="347.82" height="61.38" as="geometry" />
        </mxCell>
        <mxCell id="hoXgWQwnw69QvBTEGAqw-3" value="" style="shape=parallelogram;perimeter=parallelogramPerimeter;whiteSpace=wrap;fixedSize=1;fontFamily=Times New Roman;size=79.84199999999998;labelBorderColor=none;fillColor=#FFFEE0;strokeColor=#FFE599;rounded=1;arcSize=41;" parent="WIyWlLk6GJQsqaUBKTNV-1" vertex="1">
          <mxGeometry x="212.76" y="290.51" width="505.04" height="73" as="geometry" />
        </mxCell>
        <mxCell id="hoXgWQwnw69QvBTEGAqw-8" value="" style="shape=parallelogram;perimeter=parallelogramPerimeter;whiteSpace=wrap;fixedSize=1;fontFamily=Times New Roman;size=70.00000000000023;labelBorderColor=none;rounded=1;fillColor=#FBF5FF;strokeColor=#B3B3B3;" parent="WIyWlLk6GJQsqaUBKTNV-1" vertex="1">
          <mxGeometry x="217.76" y="159.01" width="350.43" height="50" as="geometry" />
        </mxCell>
        <mxCell id="hoXgWQwnw69QvBTEGAqw-19" value="Section Level" style="text;resizable=0;autosize=1;align=center;verticalAlign=middle;points=[];fontFamily=Times New Roman;labelBorderColor=none;rounded=1;fontSize=12;labelBackgroundColor=none;fillColor=#ffffff;strokeColor=#000000;horizontal=1;" parent="WIyWlLk6GJQsqaUBKTNV-1" vertex="1">
          <mxGeometry x="148.26000000000005" y="381.96" width="78.74" height="23.622" as="geometry" />
        </mxCell>
        <mxCell id="hoXgWQwnw69QvBTEGAqw-20" value="LaneÂ  Level" style="text;resizable=0;autosize=1;align=center;verticalAlign=middle;points=[];fontFamily=Times New Roman;labelBorderColor=none;rounded=1;fontSize=12;strokeColor=#000000;fillColor=#ffffff;imageWidth=24;imageHeight=24;" parent="WIyWlLk6GJQsqaUBKTNV-1" vertex="1">
          <mxGeometry x="144.26" y="308.76" width="70.866" height="23.622" as="geometry" />
        </mxCell>
        <mxCell id="hoXgWQwnw69QvBTEGAqw-22" value="Object Level" style="text;resizable=0;autosize=1;align=center;verticalAlign=middle;points=[];fontFamily=Times New Roman;labelBorderColor=none;rounded=1;fontSize=12;strokeColor=#000000;fillColor=#ffffff;" parent="WIyWlLk6GJQsqaUBKTNV-1" vertex="1">
          <mxGeometry x="148.26000000000005" y="242.31" width="70.866" height="23.622" as="geometry" />
        </mxCell>
        <mxCell id="hoXgWQwnw69QvBTEGAqw-24" value="100" style="ellipse;whiteSpace=wrap;aspect=fixed;rounded=1;shadow=0;sketch=0;gradientColor=#ea6b66;fillColor=none;strokeColor=#FF0000;strokeWidth=2;fontSize=9;fontStyle=1;" parent="WIyWlLk6GJQsqaUBKTNV-1" vertex="1">
          <mxGeometry x="492.7" y="227.51" width="16.93" height="16.9291" as="geometry" />
        </mxCell>
        <mxCell id="hoXgWQwnw69QvBTEGAqw-30" value="60" style="ellipse;whiteSpace=wrap;aspect=fixed;rounded=1;shadow=0;sketch=0;gradientColor=#ea6b66;fillColor=none;strokeColor=#FF0000;strokeWidth=2;fontSize=9;fontStyle=1;" parent="WIyWlLk6GJQsqaUBKTNV-1" vertex="1">
          <mxGeometry x="456.76" y="265.51" width="14.96" height="14.9606" as="geometry" />
        </mxCell>
        <mxCell id="hoXgWQwnw69QvBTEGAqw-112" value="" style="group;strokeWidth=1;dashed=1;dashPattern=1 1;" parent="WIyWlLk6GJQsqaUBKTNV-1" vertex="1" connectable="0">
          <mxGeometry x="254.23" y="312.96999999999997" width="265.7475" height="37.76" as="geometry" />
        </mxCell>
        <mxCell id="hoXgWQwnw69QvBTEGAqw-103" value="" style="group;" parent="hoXgWQwnw69QvBTEGAqw-112" vertex="1" connectable="0">
          <mxGeometry width="265.7475" height="37.76" as="geometry" />
        </mxCell>
        <mxCell id="hoXgWQwnw69QvBTEGAqw-78" value="" style="endArrow=none;dashed=1;strokeWidth=1;strokeColor=#666666;dashPattern=1 1;" parent="hoXgWQwnw69QvBTEGAqw-103" edge="1">
          <mxGeometry width="50" height="50" relative="1" as="geometry">
            <mxPoint x="161.0257526122044" y="34.21109880098209" as="sourcePoint" />
            <mxPoint x="199.62178623814248" y="0.13194767054161166" as="targetPoint" />
          </mxGeometry>
        </mxCell>
        <mxCell id="hoXgWQwnw69QvBTEGAqw-88" value="" style="endArrow=none;dashed=1;strokeWidth=2;strokeColor=#0000FF;dashPattern=1 1;" parent="hoXgWQwnw69QvBTEGAqw-103" edge="1">
          <mxGeometry width="50" height="50" relative="1" as="geometry">
            <mxPoint x="29.555426334418705" as="sourcePoint" />
            <mxPoint x="122.11366645901171" as="targetPoint" />
          </mxGeometry>
        </mxCell>
        <mxCell id="hoXgWQwnw69QvBTEGAqw-90" value="" style="endArrow=none;dashed=1;strokeWidth=2;strokeColor=#0000FF;dashPattern=1 1;" parent="hoXgWQwnw69QvBTEGAqw-103" edge="1">
          <mxGeometry width="50" height="50" relative="1" as="geometry">
            <mxPoint x="16.76583406484486" y="11.680301013388771" as="sourcePoint" />
            <mxPoint x="109.3240741894379" y="11.680301013388771" as="targetPoint" />
          </mxGeometry>
        </mxCell>
        <mxCell id="hoXgWQwnw69QvBTEGAqw-91" value="" style="endArrow=none;dashed=1;strokeWidth=2;strokeColor=#0000FF;dashPattern=1 1;" parent="hoXgWQwnw69QvBTEGAqw-103" edge="1">
          <mxGeometry width="50" height="50" relative="1" as="geometry">
            <mxPoint x="0.0030100240689785018" y="23.22865435623589" as="sourcePoint" />
            <mxPoint x="92.56125014866194" y="23.22865435623589" as="targetPoint" />
          </mxGeometry>
        </mxCell>
        <mxCell id="hoXgWQwnw69QvBTEGAqw-93" value="" style="endArrow=none;dashed=1;strokeWidth=2;strokeColor=#0000FF;dashPattern=1 1;" parent="hoXgWQwnw69QvBTEGAqw-103" edge="1">
          <mxGeometry width="50" height="50" relative="1" as="geometry">
            <mxPoint x="124.35914441455463" y="0.14221026713938284" as="sourcePoint" />
            <mxPoint x="198.1167742035962" y="0.14221026713938284" as="targetPoint" />
          </mxGeometry>
        </mxCell>
        <mxCell id="hoXgWQwnw69QvBTEGAqw-94" value="" style="endArrow=none;dashed=1;strokeWidth=2;strokeColor=#0000FF;dashPattern=1 1;" parent="hoXgWQwnw69QvBTEGAqw-103" edge="1">
          <mxGeometry width="50" height="50" relative="1" as="geometry">
            <mxPoint x="111.56955214498088" y="11.822511280528113" as="sourcePoint" />
            <mxPoint x="186.07667792722643" y="11.822511280528113" as="targetPoint" />
          </mxGeometry>
        </mxCell>
        <mxCell id="hoXgWQwnw69QvBTEGAqw-95" value="" style="endArrow=none;dashed=1;strokeWidth=2;strokeColor=#0000FF;dashPattern=1 1;" parent="hoXgWQwnw69QvBTEGAqw-103" edge="1">
          <mxGeometry width="50" height="50" relative="1" as="geometry">
            <mxPoint x="94.80672810420496" y="23.37086462337523" as="sourcePoint" />
            <mxPoint x="172.53156961631038" y="23.37086462337523" as="targetPoint" />
          </mxGeometry>
        </mxCell>
        <mxCell id="hoXgWQwnw69QvBTEGAqw-96" value="" style="endArrow=none;exitX=0.14;exitY=0.207;exitDx=0;exitDy=0;exitPerimeter=0;strokeWidth=2;strokeColor=#0000FF;dashed=1;dashPattern=1 1;" parent="hoXgWQwnw69QvBTEGAqw-103" edge="1">
          <mxGeometry width="50" height="50" relative="1" as="geometry">
            <mxPoint x="118.25632061446971" y="34.68024607401916" as="sourcePoint" />
            <mxPoint x="174.6942719099533" y="35.09368210838267" as="targetPoint" />
            <Array as="points" />
          </mxGeometry>
        </mxCell>
        <mxCell id="hoXgWQwnw69QvBTEGAqw-97" value="" style="endArrow=none;strokeColor=#0000FF;strokeWidth=2;curved=1;dashed=1;dashPattern=1 1;" parent="hoXgWQwnw69QvBTEGAqw-103" edge="1">
          <mxGeometry width="50" height="50" relative="1" as="geometry">
            <mxPoint x="88.15607992354519" y="22.631957668342036" as="sourcePoint" />
            <mxPoint x="119.0088266317428" y="34.65385653991063" as="targetPoint" />
            <Array as="points">
              <mxPoint x="96.43364611354944" y="22.631957668342036" />
              <mxPoint x="107.72123637264613" y="35.09368210838267" />
            </Array>
          </mxGeometry>
        </mxCell>
        <mxCell id="hoXgWQwnw69QvBTEGAqw-98" value="" style="endArrow=none;exitX=0.14;exitY=0.207;exitDx=0;exitDy=0;exitPerimeter=0;entryX=0.962;entryY=0.209;entryDx=0;entryDy=0;entryPerimeter=0;strokeWidth=2;strokeColor=#0000FF;dashed=1;dashPattern=1 1;" parent="hoXgWQwnw69QvBTEGAqw-103" edge="1">
          <mxGeometry width="50" height="50" relative="1" as="geometry">
            <mxPoint x="173.9417658926802" y="23.133358816400122" as="sourcePoint" />
            <mxPoint x="252.95489770635697" y="23.133358816400122" as="targetPoint" />
            <Array as="points" />
          </mxGeometry>
        </mxCell>
        <mxCell id="hoXgWQwnw69QvBTEGAqw-99" value="" style="endArrow=none;strokeWidth=2;strokeColor=#0000FF;entryX=0.895;entryY=0.691;entryDx=0;entryDy=0;entryPerimeter=0;dashed=1;dashPattern=1 1;" parent="hoXgWQwnw69QvBTEGAqw-103" edge="1">
          <mxGeometry width="50" height="50" relative="1" as="geometry">
            <mxPoint x="190.49689827268864" y="23.145087498226097" as="sourcePoint" />
            <mxPoint x="247.51126917740362" y="26.290360773057078" as="targetPoint" />
            <Array as="points" />
          </mxGeometry>
        </mxCell>
        <mxCell id="hoXgWQwnw69QvBTEGAqw-100" value="" style="endArrow=none;strokeWidth=2;strokeColor=#0000FF;entryX=0.85;entryY=0.993;entryDx=0;entryDy=0;entryPerimeter=0;dashed=1;dashPattern=1 1;" parent="hoXgWQwnw69QvBTEGAqw-103" edge="1">
          <mxGeometry width="50" height="50" relative="1" as="geometry">
            <mxPoint x="173.9417658926802" y="35.09368210838267" as="sourcePoint" />
            <mxPoint x="235.03020437491153" y="37.76" as="targetPoint" />
            <Array as="points" />
          </mxGeometry>
        </mxCell>
        <mxCell id="hoXgWQwnw69QvBTEGAqw-101" value="" style="endArrow=none;exitX=0.14;exitY=0.207;exitDx=0;exitDy=0;exitPerimeter=0;entryX=0.962;entryY=0.209;entryDx=0;entryDy=0;entryPerimeter=0;strokeWidth=2;strokeColor=#0000FF;dashed=1;dashPattern=1 1;" parent="hoXgWQwnw69QvBTEGAqw-103" edge="1">
          <mxGeometry width="50" height="50" relative="1" as="geometry">
            <mxPoint x="188.23938022086935" y="11.590869814466034" as="sourcePoint" />
            <mxPoint x="265.7475" y="11.590869814466034" as="targetPoint" />
            <Array as="points" />
          </mxGeometry>
        </mxCell>
        <mxCell id="hoXgWQwnw69QvBTEGAqw-79" value="" style="endArrow=none;dashed=1;strokeWidth=1;strokeColor=#666666;dashPattern=1 1;" parent="hoXgWQwnw69QvBTEGAqw-103" edge="1">
          <mxGeometry width="50" height="50" relative="1" as="geometry">
            <mxPoint x="94.80522309217041" y="24.19040626596122" as="sourcePoint" />
            <mxPoint x="123.40045174854872" as="targetPoint" />
          </mxGeometry>
        </mxCell>
        <mxCell id="hoXgWQwnw69QvBTEGAqw-105" value="" style="endArrow=none;exitX=0.14;exitY=0.207;exitDx=0;exitDy=0;exitPerimeter=0;entryX=0.962;entryY=0.209;entryDx=0;entryDy=0;entryPerimeter=0;strokeWidth=2;strokeColor=#0000FF;dashed=1;dashPattern=1 1;" parent="hoXgWQwnw69QvBTEGAqw-103" edge="1">
          <mxGeometry width="50" height="50" relative="1" as="geometry">
            <mxPoint x="201.4563959082543" y="-0.002932170456494149" as="sourcePoint" />
            <mxPoint x="278.9645156873852" y="-0.002932170456494149" as="targetPoint" />
            <Array as="points" />
          </mxGeometry>
        </mxCell>
        <mxCell id="hoXgWQwnw69QvBTEGAqw-109" value="" style="endArrow=none;dashed=1;strokeWidth=1;strokeColor=#666666;dashPattern=1 1;" parent="hoXgWQwnw69QvBTEGAqw-103" edge="1">
          <mxGeometry width="50" height="50" relative="1" as="geometry">
            <mxPoint x="251.07062263910518" y="23.45736365184118" as="sourcePoint" />
            <mxPoint x="277.86284687809723" y="-0.7301104436634593" as="targetPoint" />
          </mxGeometry>
        </mxCell>
        <mxCell id="hoXgWQwnw69QvBTEGAqw-114" value="" style="endArrow=none;dashed=1;strokeWidth=1;strokeColor=#666666;dashPattern=1 1;" parent="hoXgWQwnw69QvBTEGAqw-103" edge="1">
          <mxGeometry width="50" height="50" relative="1" as="geometry">
            <mxPoint x="2.842170943040401e-14" y="24.195286106959372" as="sourcePoint" />
            <mxPoint x="28.595228656378396" y="0.004879840998057716" as="targetPoint" />
          </mxGeometry>
        </mxCell>
        <mxCell id="hoXgWQwnw69QvBTEGAqw-110" value="" style="endArrow=none;dashed=1;strokeWidth=1;strokeColor=#666666;dashPattern=1 1;" parent="hoXgWQwnw69QvBTEGAqw-112" edge="1">
          <mxGeometry width="50" height="50" relative="1" as="geometry">
            <mxPoint x="233.76298424182357" y="37.38517332012188" as="sourcePoint" />
            <mxPoint x="246.7798333286141" y="26.05819884673916" as="targetPoint" />
          </mxGeometry>
        </mxCell>
        <mxCell id="hoXgWQwnw69QvBTEGAqw-115" value="Lanes Elements Geometry RepresentationÂ " style="text;whiteSpace=wrap;fontSize=10;" parent="WIyWlLk6GJQsqaUBKTNV-1" vertex="1">
          <mxGeometry x="324.84999999999997" y="286.34999999999997" width="196.85" height="23.62" as="geometry" />
        </mxCell>
        <mxCell id="hoXgWQwnw69QvBTEGAqw-116" value="Lanes Graph Relationship" style="text;whiteSpace=wrap;fontSize=10;" parent="WIyWlLk6GJQsqaUBKTNV-1" vertex="1">
          <mxGeometry x="569.76" y="287.89" width="135.04" height="23.62" as="geometry" />
        </mxCell>
        <mxCell id="hoXgWQwnw69QvBTEGAqw-129" value="" style="group;" parent="WIyWlLk6GJQsqaUBKTNV-1" vertex="1" connectable="0">
          <mxGeometry x="167.48999999999998" y="464.53999999999996" width="377.08" height="84.03" as="geometry" />
        </mxCell>
        <mxCell id="hoXgWQwnw69QvBTEGAqw-49" value="" style="shape=parallelogram;perimeter=parallelogramPerimeter;whiteSpace=wrap;fixedSize=1;fillColor=#cdeb8b;fontFamily=Times New Roman;size=86.05630602959147;labelBorderColor=none;strokeColor=#36393d;rounded=1;" parent="hoXgWQwnw69QvBTEGAqw-129" vertex="1">
          <mxGeometry x="34.914486359360296" y="-20.869884091774562" width="341.10131796801505" height="75.73819735338918" as="geometry" />
        </mxCell>
        <mxCell id="hoXgWQwnw69QvBTEGAqw-65" value="" style="shape=parallelogram;perimeter=parallelogramPerimeter;whiteSpace=wrap;fixedSize=1;fontFamily=Times New Roman;size=58.28668294270827;labelBorderColor=none;fontColor=#ffffff;fillColor=#808080;strokeColor=none;" parent="hoXgWQwnw69QvBTEGAqw-129" vertex="1">
          <mxGeometry x="47.015333971250165" y="-9.270160177075375" width="316.69871269933407" height="51.80876689832449" as="geometry" />
        </mxCell>
        <mxCell id="hoXgWQwnw69QvBTEGAqw-50" value="" style="endArrow=none;exitX=0.14;exitY=0.207;exitDx=0;exitDy=0;exitPerimeter=0;entryX=0.962;entryY=0.209;entryDx=0;entryDy=0;entryPerimeter=0;strokeWidth=3;fillColor=#ffff88;strokeColor=#FF9933;" parent="hoXgWQwnw69QvBTEGAqw-129" edge="1">
          <mxGeometry width="50" height="50" relative="1" as="geometry">
            <mxPoint x="106" y="-8.57617669459238" as="sourcePoint" />
            <mxPoint x="362.71335841956727" y="-8.456179550647327" as="targetPoint" />
            <Array as="points" />
          </mxGeometry>
        </mxCell>
        <mxCell id="hoXgWQwnw69QvBTEGAqw-52" value="" style="endArrow=none;exitX=0.14;exitY=0.207;exitDx=0;exitDy=0;exitPerimeter=0;entryX=0.962;entryY=0.209;entryDx=0;entryDy=0;entryPerimeter=0;strokeWidth=3;fillColor=#ffff88;strokeColor=#FFFFFF;dashed=1;rounded=1;" parent="hoXgWQwnw69QvBTEGAqw-129" edge="1">
          <mxGeometry width="50" height="50" relative="1" as="geometry">
            <mxPoint x="79.43076004078281" y="6.477465013328452" as="sourcePoint" />
            <mxPoint x="261.767531681904" y="6.597462157273505" as="targetPoint" />
            <Array as="points" />
          </mxGeometry>
        </mxCell>
        <mxCell id="hoXgWQwnw69QvBTEGAqw-53" value="" style="endArrow=none;exitX=0.14;exitY=0.207;exitDx=0;exitDy=0;exitPerimeter=0;entryX=0.962;entryY=0.209;entryDx=0;entryDy=0;entryPerimeter=0;strokeWidth=3;fillColor=#ffff88;strokeColor=#FFFFFF;" parent="hoXgWQwnw69QvBTEGAqw-129" edge="1">
          <mxGeometry width="50" height="50" relative="1" as="geometry">
            <mxPoint x="65.98646207844415" y="21.539106530845444" as="sourcePoint" />
            <mxPoint x="157.2277826076612" y="21.539106530845444" as="targetPoint" />
            <Array as="points" />
          </mxGeometry>
        </mxCell>
        <mxCell id="hoXgWQwnw69QvBTEGAqw-54" value="" style="endArrow=none;exitX=0.14;exitY=0.207;exitDx=0;exitDy=0;exitPerimeter=0;strokeWidth=3;strokeColor=#FFFFFF;" parent="hoXgWQwnw69QvBTEGAqw-129" edge="1">
          <mxGeometry width="50" height="50" relative="1" as="geometry">
            <mxPoint x="189.64320867719385" y="37.974715346534865" as="sourcePoint" />
            <mxPoint x="250.4221325575676" y="38.538701923076985" as="targetPoint" />
            <Array as="points" />
          </mxGeometry>
        </mxCell>
        <mxCell id="hoXgWQwnw69QvBTEGAqw-63" value="" style="endArrow=none;strokeColor=#FFFFFF;strokeWidth=3;curved=1;endFill=0;" parent="hoXgWQwnw69QvBTEGAqw-129" edge="1">
          <mxGeometry width="50" height="50" relative="1" as="geometry">
            <mxPoint x="157.2277826076612" y="21.539106530845444" as="sourcePoint" />
            <mxPoint x="190.45359432893218" y="37.93871620335114" as="targetPoint" />
            <Array as="points">
              <mxPoint x="166.14202477678268" y="21.539106530845444" />
              <mxPoint x="178.29780955285744" y="38.538701923076985" />
            </Array>
          </mxGeometry>
        </mxCell>
        <mxCell id="hoXgWQwnw69QvBTEGAqw-64" value="" style="endArrow=none;exitX=0.14;exitY=0.207;exitDx=0;exitDy=0;exitPerimeter=0;entryX=0.962;entryY=0.209;entryDx=0;entryDy=0;entryPerimeter=0;strokeWidth=3;fillColor=#ffff88;strokeColor=#FFFFFF;dashed=1;" parent="hoXgWQwnw69QvBTEGAqw-129" edge="1">
          <mxGeometry width="50" height="50" relative="1" as="geometry">
            <mxPoint x="166.47752443660235" y="22.22309025133285" as="sourcePoint" />
            <mxPoint x="250.4221325575676" y="22.22309025133285" as="targetPoint" />
            <Array as="points" />
          </mxGeometry>
        </mxCell>
        <mxCell id="hoXgWQwnw69QvBTEGAqw-69" value="" style="endArrow=none;exitX=0.14;exitY=0.207;exitDx=0;exitDy=0;exitPerimeter=0;entryX=0.962;entryY=0.209;entryDx=0;entryDy=0;entryPerimeter=0;strokeWidth=3;fillColor=#ffff88;strokeColor=#FFFFFF;" parent="hoXgWQwnw69QvBTEGAqw-129" edge="1">
          <mxGeometry width="50" height="50" relative="1" as="geometry">
            <mxPoint x="250.4221325575676" y="22.22309025133285" as="sourcePoint" />
            <mxPoint x="335.5126259900908" y="22.22309025133285" as="targetPoint" />
            <Array as="points" />
          </mxGeometry>
        </mxCell>
        <mxCell id="hoXgWQwnw69QvBTEGAqw-70" value="" style="endArrow=none;strokeWidth=3;fillColor=#ffff88;strokeColor=#FFFFFF;entryX=0.895;entryY=0.691;entryDx=0;entryDy=0;entryPerimeter=0;" parent="hoXgWQwnw69QvBTEGAqw-129" edge="1">
          <mxGeometry width="50" height="50" relative="1" as="geometry">
            <mxPoint x="268.25061689581054" y="22.23908987052561" as="sourcePoint" />
            <mxPoint x="329.65029618541587" y="26.52969774966688" as="targetPoint" />
            <Array as="points" />
          </mxGeometry>
        </mxCell>
        <mxCell id="hoXgWQwnw69QvBTEGAqw-72" value="" style="endArrow=none;strokeWidth=3;strokeColor=#FFFFFF;entryX=0.85;entryY=0.993;entryDx=0;entryDy=0;entryPerimeter=0;" parent="hoXgWQwnw69QvBTEGAqw-129" target="hoXgWQwnw69QvBTEGAqw-65" edge="1">
          <mxGeometry width="50" height="50" relative="1" as="geometry">
            <mxPoint x="250.4221325575676" y="38.538701923076985" as="sourcePoint" />
            <mxPoint x="316.13727751980974" y="42.43498918745248" as="targetPoint" />
            <Array as="points" />
          </mxGeometry>
        </mxCell>
        <mxCell id="hoXgWQwnw69QvBTEGAqw-73" value="" style="endArrow=blockThin;strokeColor=#FFFFFF;strokeWidth=1;endFill=1;startSize=2;endSize=2;" parent="hoXgWQwnw69QvBTEGAqw-129" edge="1">
          <mxGeometry width="50" height="50" relative="1" as="geometry">
            <mxPoint x="228.54171996063303" y="13.539296934501188" as="sourcePoint" />
            <mxPoint x="238.26634778149287" y="13.539296934501188" as="targetPoint" />
          </mxGeometry>
        </mxCell>
        <mxCell id="hoXgWQwnw69QvBTEGAqw-74" value="" style="endArrow=blockThin;strokeColor=#FFFFFF;strokeWidth=1;endFill=1;startSize=2;endSize=2;" parent="hoXgWQwnw69QvBTEGAqw-129" edge="1">
          <mxGeometry width="50" height="50" relative="1" as="geometry">
            <mxPoint x="244.64732440328038" y="-1.586343059786694" as="sourcePoint" />
            <mxPoint x="254.37195222414016" y="-1.586343059786694" as="targetPoint" />
          </mxGeometry>
        </mxCell>
        <mxCell id="hoXgWQwnw69QvBTEGAqw-75" value="" style="endArrow=blockThin;strokeColor=#FFFFFF;strokeWidth=1;endFill=1;startSize=2;endSize=2;" parent="hoXgWQwnw69QvBTEGAqw-129" edge="1">
          <mxGeometry width="50" height="50" relative="1" as="geometry">
            <mxPoint x="126.33101924948619" y="13.41329993335879" as="sourcePoint" />
            <mxPoint x="136.05564707034594" y="13.41329993335879" as="targetPoint" />
          </mxGeometry>
        </mxCell>
        <mxCell id="hoXgWQwnw69QvBTEGAqw-76" value="" style="endArrow=blockThin;strokeColor=#FFFFFF;strokeWidth=1;endFill=1;startSize=2;endSize=2;" parent="hoXgWQwnw69QvBTEGAqw-129" edge="1">
          <mxGeometry width="50" height="50" relative="1" as="geometry">
            <mxPoint x="140.00546673691852" y="-1.7123400609290922" as="sourcePoint" />
            <mxPoint x="149.7300945577783" y="-1.7123400609290922" as="targetPoint" />
          </mxGeometry>
        </mxCell>
        <mxCell id="hoXgWQwnw69QvBTEGAqw-77" value="" style="endArrow=none;exitX=0.14;exitY=0.207;exitDx=0;exitDy=0;exitPerimeter=0;entryX=0.962;entryY=0.209;entryDx=0;entryDy=0;entryPerimeter=0;strokeWidth=3;fillColor=#ffff88;strokeColor=#FFFFFF;" parent="hoXgWQwnw69QvBTEGAqw-129" edge="1">
          <mxGeometry width="50" height="50" relative="1" as="geometry">
            <mxPoint x="265.8194599405956" y="6.477465013328281" as="sourcePoint" />
            <mxPoint x="349.28918206964215" y="6.477465013328281" as="targetPoint" />
            <Array as="points" />
          </mxGeometry>
        </mxCell>
        <mxCell id="hoXgWQwnw69QvBTEGAqw-130" value="TrueÂ Road" style="text;resizable=0;autosize=1;align=center;verticalAlign=top;points=[];fillColor=#cdeb8b;fontFamily=Times New Roman;labelBorderColor=none;rounded=1;fontSize=13;strokeColor=#36393d;" parent="hoXgWQwnw69QvBTEGAqw-129" vertex="1">
          <mxGeometry x="-20.85028993414868" y="-5.116401846915444" width="62.992" height="31.496" as="geometry" />
        </mxCell>
        <mxCell id="hoXgWQwnw69QvBTEGAqw-131" value="100" style="ellipse;whiteSpace=wrap;aspect=fixed;rounded=1;shadow=0;sketch=0;gradientColor=#ea6b66;fillColor=none;strokeColor=#FF0000;strokeWidth=1;fontSize=7;fontStyle=1;" parent="hoXgWQwnw69QvBTEGAqw-129" vertex="1">
          <mxGeometry x="319.9983177798683" y="-19.995904893373876" width="12.537969865218011" height="12.537467025631425" as="geometry" />
        </mxCell>
        <mxCell id="hoXgWQwnw69QvBTEGAqw-144" value="" style="endArrow=none;strokeWidth=2;fontSize=7;rounded=0;strokeColor=#333333;exitX=0.183;exitY=0.956;exitDx=0;exitDy=0;exitPerimeter=0;" parent="hoXgWQwnw69QvBTEGAqw-129" edge="1">
          <mxGeometry width="50" height="50" relative="1" as="geometry">
            <mxPoint x="75.16528436782698" y="51.53583257806551" as="sourcePoint" />
            <mxPoint x="119.32293979303854" y="52.53836871667933" as="targetPoint" />
            <Array as="points">
              <mxPoint x="82.07609125117588" y="44.53855912033508" />
              <mxPoint x="113.11513170272809" y="44.53855912033508" />
            </Array>
          </mxGeometry>
        </mxCell>
        <mxCell id="hoXgWQwnw69QvBTEGAqw-143" value="" style="endArrow=none;strokeWidth=2;fontSize=7;rounded=0;strokeColor=#333333;" parent="hoXgWQwnw69QvBTEGAqw-129" edge="1">
          <mxGeometry width="50" height="50" relative="1" as="geometry">
            <mxPoint x="131.28317742238946" y="-18.461941403274793" as="sourcePoint" />
            <mxPoint x="174.81764873000932" y="-18.461941403274793" as="targetPoint" />
            <Array as="points">
              <mxPoint x="137.59917873941671" y="-12.390085919649616" />
              <mxPoint x="168.63821919096893" y="-12.390085919649616" />
            </Array>
          </mxGeometry>
        </mxCell>
        <mxCell id="hoXgWQwnw69QvBTEGAqw-145" value="Bridge" style="text;fontSize=10;labelBackgroundColor=none;" parent="hoXgWQwnw69QvBTEGAqw-129" vertex="1">
          <mxGeometry x="125.10906904985885" y="35.26474961919273" width="34.914486359360296" height="31.495250380807313" as="geometry" />
        </mxCell>
        <mxCell id="hoXgWQwnw69QvBTEGAqw-132" value="60" style="ellipse;whiteSpace=wrap;aspect=fixed;rounded=1;shadow=0;sketch=0;gradientColor=#ea6b66;fillColor=none;strokeColor=#FF0000;strokeWidth=1;fontSize=7;fontStyle=1;" parent="WIyWlLk6GJQsqaUBKTNV-1" vertex="1">
          <mxGeometry x="426.75800000000004" y="505.5780000000001" width="12.99" height="12.992099999999999" as="geometry" />
        </mxCell>
        <mxCell id="hoXgWQwnw69QvBTEGAqw-4" value="" style="shape=parallelogram;perimeter=parallelogramPerimeter;whiteSpace=wrap;fixedSize=1;fontFamily=Times New Roman;size=79.17800000000003;labelBorderColor=none;strokeColor=#6c8ebf;rounded=1;fillColor=#FFE599;" parent="WIyWlLk6GJQsqaUBKTNV-1" vertex="1">
          <mxGeometry x="212.76" y="372.86" width="497.16" height="62.99" as="geometry" />
        </mxCell>
        <mxCell id="hoXgWQwnw69QvBTEGAqw-18" value="" style="endArrow=blockThin;fontSize=14;strokeColor=#1A1A1A;strokeWidth=1;endFill=1;exitX=0.365;exitY=0.505;exitDx=0;exitDy=0;exitPerimeter=0;endSize=3;entryX=0.565;entryY=0.852;entryDx=0;entryDy=0;entryPerimeter=0;" parent="WIyWlLk6GJQsqaUBKTNV-1" target="hoXgWQwnw69QvBTEGAqw-4" edge="1">
          <mxGeometry width="50" height="50" relative="1" as="geometry">
            <mxPoint x="358.1383" y="419.94274999999993" as="sourcePoint" />
            <mxPoint x="494.76" y="429.51" as="targetPoint" />
            <Array as="points">
              <mxPoint x="431.76" y="420.51" />
            </Array>
          </mxGeometry>
        </mxCell>
        <mxCell id="hoXgWQwnw69QvBTEGAqw-250" value="A" style="text;whiteSpace=wrap;fontSize=11;fontFamily=Times New Roman;align=center;verticalAlign=middle;labelBackgroundColor=none;" parent="WIyWlLk6GJQsqaUBKTNV-1" vertex="1">
          <mxGeometry x="314.8" y="314.84" width="12.3" height="7.87" as="geometry" />
        </mxCell>
        <mxCell id="hoXgWQwnw69QvBTEGAqw-251" value="B" style="text;whiteSpace=wrap;fontSize=11;fontFamily=Times New Roman;align=center;verticalAlign=middle;labelBackgroundColor=none;" parent="WIyWlLk6GJQsqaUBKTNV-1" vertex="1">
          <mxGeometry x="302.5" y="323.39" width="12.3" height="14.87" as="geometry" />
        </mxCell>
        <mxCell id="hoXgWQwnw69QvBTEGAqw-252" value="C" style="text;whiteSpace=wrap;fontSize=11;fontFamily=Times New Roman;align=center;verticalAlign=middle;labelBackgroundColor=none;" parent="WIyWlLk6GJQsqaUBKTNV-1" vertex="1">
          <mxGeometry x="397.994" y="314.834" width="12.3" height="7.87" as="geometry" />
        </mxCell>
        <mxCell id="hoXgWQwnw69QvBTEGAqw-253" value="D" style="text;whiteSpace=wrap;fontSize=11;fontFamily=Times New Roman;align=center;verticalAlign=middle;labelBackgroundColor=none;" parent="WIyWlLk6GJQsqaUBKTNV-1" vertex="1">
          <mxGeometry x="385.694" y="323.384" width="12.3" height="14.87" as="geometry" />
        </mxCell>
        <mxCell id="hoXgWQwnw69QvBTEGAqw-255" value="E" style="text;whiteSpace=wrap;fontSize=11;fontFamily=Times New Roman;align=center;verticalAlign=middle;labelBackgroundColor=none;" parent="WIyWlLk6GJQsqaUBKTNV-1" vertex="1">
          <mxGeometry x="374.758" y="335.508" width="12.3" height="14.87" as="geometry" />
        </mxCell>
        <mxCell id="hoXgWQwnw69QvBTEGAqw-259" value="F" style="text;whiteSpace=wrap;fontSize=11;fontFamily=Times New Roman;align=center;verticalAlign=middle;labelBackgroundColor=none;" parent="WIyWlLk6GJQsqaUBKTNV-1" vertex="1">
          <mxGeometry x="478.99800000000005" y="314.50800000000004" width="12.3" height="7.87" as="geometry" />
        </mxCell>
        <mxCell id="hoXgWQwnw69QvBTEGAqw-260" value="G" style="text;whiteSpace=wrap;fontSize=11;fontFamily=Times New Roman;align=center;verticalAlign=middle;labelBackgroundColor=none;" parent="WIyWlLk6GJQsqaUBKTNV-1" vertex="1">
          <mxGeometry x="466.69800000000004" y="323.05800000000005" width="12.3" height="14.87" as="geometry" />
        </mxCell>
        <mxCell id="hoXgWQwnw69QvBTEGAqw-261" value="H" style="text;whiteSpace=wrap;fontSize=11;fontFamily=Times New Roman;align=center;verticalAlign=middle;labelBackgroundColor=none;" parent="WIyWlLk6GJQsqaUBKTNV-1" vertex="1">
          <mxGeometry x="455.762" y="335.182" width="12.3" height="14.87" as="geometry" />
        </mxCell>
        <mxCell id="hoXgWQwnw69QvBTEGAqw-288" value="" style="group;" parent="WIyWlLk6GJQsqaUBKTNV-1" vertex="1" connectable="0">
          <mxGeometry x="533.8199999999999" y="309.09" width="139.86" height="49.24000000000001" as="geometry" />
        </mxCell>
        <mxCell id="hoXgWQwnw69QvBTEGAqw-263" value="A" style="text;whiteSpace=wrap;fontSize=13;fontFamily=Times New Roman;align=center;verticalAlign=middle;labelBackgroundColor=none;" parent="hoXgWQwnw69QvBTEGAqw-288" vertex="1">
          <mxGeometry x="22.68705152633072" width="16.687051526330727" height="6.424156759745643" as="geometry" />
        </mxCell>
        <mxCell id="hoXgWQwnw69QvBTEGAqw-264" value="B" style="text;whiteSpace=wrap;fontSize=13;fontFamily=Times New Roman;align=center;verticalAlign=middle;labelBackgroundColor=none;" parent="hoXgWQwnw69QvBTEGAqw-288" vertex="1">
          <mxGeometry y="16.77464058612111" width="16.687051526330727" height="12.138146253801489" as="geometry" />
        </mxCell>
        <mxCell id="hoXgWQwnw69QvBTEGAqw-265" value="C" style="text;whiteSpace=wrap;fontSize=13;fontFamily=Times New Roman;align=center;verticalAlign=middle;labelBackgroundColor=none;" parent="hoXgWQwnw69QvBTEGAqw-288" vertex="1">
          <mxGeometry x="72.25166457210037" y="0.2644760851534329" width="16.687051526330727" height="6.424156759745643" as="geometry" />
        </mxCell>
        <mxCell id="hoXgWQwnw69QvBTEGAqw-266" value="D" style="text;whiteSpace=wrap;fontSize=13;fontFamily=Times New Roman;align=center;verticalAlign=middle;labelBackgroundColor=none;" parent="hoXgWQwnw69QvBTEGAqw-288" vertex="1">
          <mxGeometry x="49.56461304576965" y="17.03911667127454" width="16.687051526330727" height="12.138146253801489" as="geometry" />
        </mxCell>
        <mxCell id="hoXgWQwnw69QvBTEGAqw-267" value="E" style="text;whiteSpace=wrap;fontSize=13;fontFamily=Times New Roman;align=center;verticalAlign=middle;labelBackgroundColor=none;" parent="hoXgWQwnw69QvBTEGAqw-288" vertex="1">
          <mxGeometry x="26.371389710949757" y="37.098588609344745" width="16.687051526330727" height="12.138146253801489" as="geometry" />
        </mxCell>
        <mxCell id="hoXgWQwnw69QvBTEGAqw-268" value="F" style="text;whiteSpace=wrap;fontSize=13;fontFamily=Times New Roman;align=center;verticalAlign=middle;labelBackgroundColor=none;" parent="hoXgWQwnw69QvBTEGAqw-288" vertex="1">
          <mxGeometry x="123.1729484736693" y="0.26774122200720285" width="16.687051526330727" height="6.424156759745643" as="geometry" />
        </mxCell>
        <mxCell id="hoXgWQwnw69QvBTEGAqw-269" value="G" style="text;whiteSpace=wrap;fontSize=13;fontFamily=Times New Roman;align=center;verticalAlign=middle;labelBackgroundColor=none;" parent="hoXgWQwnw69QvBTEGAqw-288" vertex="1">
          <mxGeometry x="100.48589694733869" y="17.04238180812831" width="16.687051526330727" height="12.138146253801489" as="geometry" />
        </mxCell>
        <mxCell id="hoXgWQwnw69QvBTEGAqw-270" value="H" style="text;whiteSpace=wrap;fontSize=13;fontFamily=Times New Roman;align=center;verticalAlign=middle;labelBackgroundColor=none;" parent="hoXgWQwnw69QvBTEGAqw-288" vertex="1">
          <mxGeometry x="77.29267361251868" y="37.101853746198515" width="16.687051526330727" height="12.138146253801489" as="geometry" />
        </mxCell>
        <mxCell id="hoXgWQwnw69QvBTEGAqw-271" value="" style="endArrow=blockThin;strokeWidth=1;fontFamily=Times New Roman;fontSize=13;fontColor=#000000;strokeColor=#00FF00;exitX=1;exitY=0.5;exitDx=0;exitDy=0;entryX=0;entryY=0.5;entryDx=0;entryDy=0;endFill=1;jumpSize=4;endSize=2;" parent="hoXgWQwnw69QvBTEGAqw-288" source="hoXgWQwnw69QvBTEGAqw-263" target="hoXgWQwnw69QvBTEGAqw-265" edge="1">
          <mxGeometry width="50" height="50" relative="1" as="geometry">
            <mxPoint x="39.368676369238074" y="-8.198758639756704" as="sourcePoint" />
            <mxPoint x="107.20221915920047" y="-49.012969311584186" as="targetPoint" />
          </mxGeometry>
        </mxCell>
        <mxCell id="hoXgWQwnw69QvBTEGAqw-272" value="" style="endArrow=blockThin;strokeWidth=1;fontFamily=Times New Roman;fontSize=13;fontColor=#000000;strokeColor=#00FF00;exitX=1;exitY=0.5;exitDx=0;exitDy=0;entryX=0;entryY=0.5;entryDx=0;entryDy=0;endFill=1;jumpSize=4;endSize=2;" parent="hoXgWQwnw69QvBTEGAqw-288" edge="1">
          <mxGeometry width="50" height="50" relative="1" as="geometry">
            <mxPoint x="91.65205781002976" y="4.088767625103742" as="sourcePoint" />
            <mxPoint x="124.52961932946835" y="4.353243710257118" as="targetPoint" />
          </mxGeometry>
        </mxCell>
        <mxCell id="hoXgWQwnw69QvBTEGAqw-273" value="" style="endArrow=blockThin;strokeWidth=1;fontFamily=Times New Roman;fontSize=13;fontColor=#000000;strokeColor=#00FF00;exitX=1;exitY=0.5;exitDx=0;exitDy=0;entryX=0;entryY=0.5;entryDx=0;entryDy=0;endFill=1;jumpSize=4;endSize=2;" parent="hoXgWQwnw69QvBTEGAqw-288" edge="1">
          <mxGeometry width="50" height="50" relative="1" as="geometry">
            <mxPoint x="67.6137621113229" y="24.62974357202114" as="sourcePoint" />
            <mxPoint x="100.49132363076171" y="24.89421965717446" as="targetPoint" />
          </mxGeometry>
        </mxCell>
        <mxCell id="hoXgWQwnw69QvBTEGAqw-274" value="" style="endArrow=blockThin;strokeWidth=1;fontFamily=Times New Roman;fontSize=13;fontColor=#000000;strokeColor=#00FF00;exitX=1;exitY=0.5;exitDx=0;exitDy=0;entryX=0;entryY=0.5;entryDx=0;entryDy=0;endFill=1;jumpSize=4;endSize=2;" parent="hoXgWQwnw69QvBTEGAqw-288" edge="1">
          <mxGeometry width="50" height="50" relative="1" as="geometry">
            <mxPoint x="16.68976486804263" y="24.624845866740486" as="sourcePoint" />
            <mxPoint x="49.567326387481444" y="24.889321951893805" as="targetPoint" />
          </mxGeometry>
        </mxCell>
        <mxCell id="hoXgWQwnw69QvBTEGAqw-275" value="" style="endArrow=blockThin;strokeWidth=1;fontFamily=Times New Roman;fontSize=13;fontColor=#000000;strokeColor=#00FF00;exitX=1;exitY=0.5;exitDx=0;exitDy=0;entryX=0;entryY=0.5;entryDx=0;entryDy=0;endFill=1;jumpSize=4;endSize=2;" parent="hoXgWQwnw69QvBTEGAqw-288" edge="1">
          <mxGeometry width="50" height="50" relative="1" as="geometry">
            <mxPoint x="43.05572789556925" y="43.5170313795964" as="sourcePoint" />
            <mxPoint x="75.93328941500806" y="43.78150746474972" as="targetPoint" />
          </mxGeometry>
        </mxCell>
        <mxCell id="hoXgWQwnw69QvBTEGAqw-276" value="" style="endArrow=blockThin;strokeWidth=1;fontFamily=Times New Roman;fontSize=13;fontColor=#000000;strokeColor=#00FF00;exitX=0.762;exitY=0.31;exitDx=0;exitDy=0;endFill=1;jumpSize=4;endSize=2;startArrow=blockThin;startFill=1;startSize=2;exitPerimeter=0;" parent="hoXgWQwnw69QvBTEGAqw-288" source="hoXgWQwnw69QvBTEGAqw-264" edge="1">
          <mxGeometry width="50" height="50" relative="1" as="geometry">
            <mxPoint x="40.722633883325784" y="63.66935236383739" as="sourcePoint" />
            <mxPoint x="26.710000000000036" y="9.54000000000002" as="targetPoint" />
          </mxGeometry>
        </mxCell>
        <mxCell id="hoXgWQwnw69QvBTEGAqw-284" value="" style="endArrow=blockThin;strokeWidth=1;fontFamily=Times New Roman;fontSize=13;fontColor=#000000;strokeColor=#00FF00;exitX=0.762;exitY=0.31;exitDx=0;exitDy=0;endFill=1;jumpSize=4;endSize=2;startArrow=blockThin;startFill=1;startSize=2;exitPerimeter=0;" parent="hoXgWQwnw69QvBTEGAqw-288" edge="1">
          <mxGeometry width="50" height="50" relative="1" as="geometry">
            <mxPoint x="61.70953326306403" y="20.54146592479958" as="sourcePoint" />
            <mxPoint x="75.70400000000006" y="9.54400000000004" as="targetPoint" />
          </mxGeometry>
        </mxCell>
        <mxCell id="hoXgWQwnw69QvBTEGAqw-285" value="" style="endArrow=blockThin;strokeWidth=1;fontFamily=Times New Roman;fontSize=13;fontColor=#000000;strokeColor=#00FF00;exitX=0.762;exitY=0.31;exitDx=0;exitDy=0;endFill=1;jumpSize=4;endSize=2;startArrow=blockThin;startFill=1;startSize=2;exitPerimeter=0;" parent="hoXgWQwnw69QvBTEGAqw-288" edge="1">
          <mxGeometry width="50" height="50" relative="1" as="geometry">
            <mxPoint x="38.71353326306405" y="40.53546592479955" as="sourcePoint" />
            <mxPoint x="52.708000000000084" y="29.53800000000001" as="targetPoint" />
          </mxGeometry>
        </mxCell>
        <mxCell id="hoXgWQwnw69QvBTEGAqw-290" value="1" style="text;whiteSpace=wrap;fontSize=13;fontFamily=Times New Roman;align=center;verticalAlign=middle;labelBackgroundColor=none;" parent="WIyWlLk6GJQsqaUBKTNV-1" vertex="1">
          <mxGeometry x="302.76" y="391.50999999999993" width="16.32" height="10.2" as="geometry" />
        </mxCell>
        <mxCell id="hoXgWQwnw69QvBTEGAqw-294" value="" style="endArrow=blockThin;strokeWidth=1;fontFamily=Times New Roman;fontSize=13;fontColor=#000000;strokeColor=#00FF00;endFill=1;jumpSize=4;endSize=2;startArrow=none;startFill=0;entryX=0;entryY=0.5;entryDx=0;entryDy=0;" parent="WIyWlLk6GJQsqaUBKTNV-1" target="hoXgWQwnw69QvBTEGAqw-308" edge="1">
          <mxGeometry width="50" height="50" relative="1" as="geometry">
            <mxPoint x="556.52" y="407.96" as="sourcePoint" />
            <mxPoint x="581.52" y="407.78999999999996" as="targetPoint" />
          </mxGeometry>
        </mxCell>
        <mxCell id="hoXgWQwnw69QvBTEGAqw-295" value="" style="endArrow=blockThin;strokeWidth=1;fontFamily=Times New Roman;fontSize=13;fontColor=#000000;strokeColor=#00FF00;exitX=1;exitY=0.5;exitDx=0;exitDy=0;entryX=0;entryY=0.5;entryDx=0;entryDy=0;endFill=1;jumpSize=4;endSize=2;startArrow=none;startFill=0;" parent="WIyWlLk6GJQsqaUBKTNV-1" edge="1">
          <mxGeometry width="50" height="50" relative="1" as="geometry">
            <mxPoint x="591.9777648680429" y="407.8728458667404" as="sourcePoint" />
            <mxPoint x="624.8553263874815" y="408.13732195189385" as="targetPoint" />
          </mxGeometry>
        </mxCell>
        <mxCell id="hoXgWQwnw69QvBTEGAqw-296" value="" style="endArrow=blockThin;strokeWidth=1;fontFamily=Times New Roman;fontSize=13;fontColor=#000000;strokeColor=#00FF00;endFill=1;jumpSize=4;endSize=2;startArrow=none;startFill=0;" parent="WIyWlLk6GJQsqaUBKTNV-1" source="hoXgWQwnw69QvBTEGAqw-308" edge="1">
          <mxGeometry width="50" height="50" relative="1" as="geometry">
            <mxPoint x="585.0399999999988" y="408.22999999999996" as="sourcePoint" />
            <mxPoint x="613.52" y="419.23" as="targetPoint" />
          </mxGeometry>
        </mxCell>
        <mxCell id="hoXgWQwnw69QvBTEGAqw-297" value="1" style="text;whiteSpace=wrap;fontSize=13;fontFamily=Times New Roman;align=center;verticalAlign=middle;labelBackgroundColor=none;" parent="WIyWlLk6GJQsqaUBKTNV-1" vertex="1">
          <mxGeometry x="561.2639999999999" y="395.604" width="16.32" height="10.2" as="geometry" />
        </mxCell>
        <mxCell id="hoXgWQwnw69QvBTEGAqw-298" value="2" style="text;whiteSpace=wrap;fontSize=13;fontFamily=Times New Roman;align=center;verticalAlign=middle;labelBackgroundColor=none;" parent="WIyWlLk6GJQsqaUBKTNV-1" vertex="1">
          <mxGeometry x="602.398" y="395.608" width="16.32" height="10.2" as="geometry" />
        </mxCell>
        <mxCell id="hoXgWQwnw69QvBTEGAqw-299" value="3" style="text;whiteSpace=wrap;fontSize=13;fontFamily=Times New Roman;align=center;verticalAlign=middle;labelBackgroundColor=none;" parent="WIyWlLk6GJQsqaUBKTNV-1" vertex="1">
          <mxGeometry x="596.202" y="414.82199999999995" width="16.32" height="10.2" as="geometry" />
        </mxCell>
        <mxCell id="hoXgWQwnw69QvBTEGAqw-306" value="" style="group;" parent="WIyWlLk6GJQsqaUBKTNV-1" vertex="1" connectable="0">
          <mxGeometry x="298.22399999999993" y="241.844" width="35.47000000000003" height="7.669999999999959" as="geometry" />
        </mxCell>
        <mxCell id="hoXgWQwnw69QvBTEGAqw-304" value="" style="endArrow=none;strokeWidth=2;fontSize=7;rounded=0;strokeColor=#333333;exitX=0.183;exitY=0.956;exitDx=0;exitDy=0;exitPerimeter=0;" parent="hoXgWQwnw69QvBTEGAqw-306" edge="1">
          <mxGeometry width="50" height="50" relative="1" as="geometry">
            <mxPoint x="-12.32271000000003" y="14.667440000000056" as="sourcePoint" />
            <mxPoint x="37.4699999999998" y="15.669999999999959" as="targetPoint" />
            <Array as="points">
              <mxPoint x="-4.529999999999973" y="7.669999999999959" />
              <mxPoint x="30.470000000000027" y="7.669999999999959" />
            </Array>
          </mxGeometry>
        </mxCell>
        <mxCell id="hoXgWQwnw69QvBTEGAqw-305" value="" style="endArrow=none;strokeWidth=2;fontSize=7;rounded=0;strokeColor=#333333;" parent="hoXgWQwnw69QvBTEGAqw-306" edge="1">
          <mxGeometry width="50" height="50" relative="1" as="geometry">
            <mxPoint x="-7.122000000000071" y="-6.072000000000003" as="sourcePoint" />
            <mxPoint x="41.96799999999985" y="-6.072000000000003" as="targetPoint" />
            <Array as="points">
              <mxPoint />
              <mxPoint x="35" />
            </Array>
          </mxGeometry>
        </mxCell>
        <mxCell id="hoXgWQwnw69QvBTEGAqw-307" value="" style="endArrow=blockThin;fontSize=14;strokeWidth=1;endFill=1;strokeColor=#1A1A1A;endSize=3;" parent="WIyWlLk6GJQsqaUBKTNV-1" edge="1">
          <mxGeometry width="50" height="50" relative="1" as="geometry">
            <mxPoint x="268.98400000000004" y="404.51" as="sourcePoint" />
            <mxPoint x="362.76" y="404.51" as="targetPoint" />
          </mxGeometry>
        </mxCell>
        <mxCell id="hoXgWQwnw69QvBTEGAqw-308" value="" style="ellipse;whiteSpace=wrap;aspect=fixed;rounded=0;shadow=0;labelBackgroundColor=none;sketch=0;strokeColor=#000000;strokeWidth=1;gradientColor=none;fontFamily=Times New Roman;fontSize=13;fontColor=#000000;align=center;fillColor=#0000000000000000000;" parent="WIyWlLk6GJQsqaUBKTNV-1" vertex="1">
          <mxGeometry x="588.52" y="405.79999999999995" width="3.937" height="3.94" as="geometry" />
        </mxCell>
        <mxCell id="hoXgWQwnw69QvBTEGAqw-312" value="Section Reference LinesÂ " style="text;whiteSpace=wrap;fontSize=10;" parent="WIyWlLk6GJQsqaUBKTNV-1" vertex="1">
          <mxGeometry x="373.26" y="370.22999999999996" width="121.33" height="23.62" as="geometry" />
        </mxCell>
        <mxCell id="hoXgWQwnw69QvBTEGAqw-313" value="Section Graph Relationship" style="text;whiteSpace=wrap;fontSize=10;" parent="WIyWlLk6GJQsqaUBKTNV-1" vertex="1">
          <mxGeometry x="543.89" y="371.98" width="140.29" height="23.62" as="geometry" />
        </mxCell>
        <mxCell id="hoXgWQwnw69QvBTEGAqw-315" value="2" style="text;whiteSpace=wrap;fontSize=13;fontFamily=Times New Roman;align=center;verticalAlign=middle;labelBackgroundColor=none;" parent="WIyWlLk6GJQsqaUBKTNV-1" vertex="1">
          <mxGeometry x="426.76400000000007" y="390.5139999999999" width="16.32" height="10.2" as="geometry" />
        </mxCell>
        <mxCell id="hoXgWQwnw69QvBTEGAqw-316" value="3" style="text;whiteSpace=wrap;fontSize=13;fontFamily=Times New Roman;align=center;verticalAlign=middle;labelBackgroundColor=none;" parent="WIyWlLk6GJQsqaUBKTNV-1" vertex="1">
          <mxGeometry x="404.758" y="422.5079999999999" width="16.32" height="10.2" as="geometry" />
        </mxCell>
        <mxCell id="hoXgWQwnw69QvBTEGAqw-321" value="" style="endArrow=blockThin;fontSize=14;strokeWidth=1;endFill=1;strokeColor=#1A1A1A;endSize=3;" parent="WIyWlLk6GJQsqaUBKTNV-1" edge="1">
          <mxGeometry width="50" height="50" relative="1" as="geometry">
            <mxPoint x="368.76" y="404.51" as="sourcePoint" />
            <mxPoint x="522.76" y="404.51" as="targetPoint" />
          </mxGeometry>
        </mxCell>
        <mxCell id="hoXgWQwnw69QvBTEGAqw-331" value="" style="line;strokeWidth=1;direction=south;rounded=1;shadow=0;labelBackgroundColor=none;sketch=0;fontFamily=Helvetica;fontSize=13;align=center;dashed=1;dashPattern=1 2;fillColor=none;strokeColor=#66FFFF;" parent="WIyWlLk6GJQsqaUBKTNV-1" vertex="1">
          <mxGeometry x="359.75800000000004" y="326.50800000000004" width="10" height="75.07" as="geometry" />
        </mxCell>
        <mxCell id="hoXgWQwnw69QvBTEGAqw-334" value="" style="line;strokeWidth=1;direction=south;rounded=1;shadow=0;labelBackgroundColor=none;sketch=0;fontFamily=Helvetica;fontSize=13;align=center;dashed=1;dashPattern=1 2;fillColor=none;strokeColor=#66FFFF;" parent="WIyWlLk6GJQsqaUBKTNV-1" vertex="1">
          <mxGeometry x="353.7560000000001" y="346.5060000000001" width="10" height="75.07" as="geometry" />
        </mxCell>
        <mxCell id="hoXgWQwnw69QvBTEGAqw-337" value="" style="line;strokeWidth=1;direction=south;rounded=1;shadow=0;labelBackgroundColor=none;sketch=0;fontFamily=Helvetica;fontSize=13;align=center;dashed=1;dashPattern=1 2;fillColor=none;strokeColor=#66FFFF;" parent="WIyWlLk6GJQsqaUBKTNV-1" vertex="1">
          <mxGeometry x="359.75800000000004" y="326.50800000000004" width="10" height="75.07" as="geometry" />
        </mxCell>
        <mxCell id="hoXgWQwnw69QvBTEGAqw-357" value="" style="group;" parent="WIyWlLk6GJQsqaUBKTNV-1" vertex="1" connectable="0">
          <mxGeometry x="258.23" y="167.85999999999996" width="279.53" height="31.5" as="geometry" />
        </mxCell>
        <mxCell id="hoXgWQwnw69QvBTEGAqw-246" value="" style="group;" parent="hoXgWQwnw69QvBTEGAqw-357" vertex="1" connectable="0">
          <mxGeometry width="279.53" height="31.5" as="geometry" />
        </mxCell>
        <mxCell id="hoXgWQwnw69QvBTEGAqw-197" value="" style="endArrow=none;strokeWidth=1;strokeColor=#666666;" parent="hoXgWQwnw69QvBTEGAqw-246" edge="1">
          <mxGeometry width="50" height="50" relative="1" as="geometry">
            <mxPoint x="231.75747384491274" y="31.195333632240256" as="sourcePoint" />
            <mxPoint x="244.77418369924453" y="21.988549921873446" as="targetPoint" />
          </mxGeometry>
        </mxCell>
        <mxCell id="hoXgWQwnw69QvBTEGAqw-178" value="" style="endArrow=none;strokeWidth=1;strokeColor=#666666;" parent="hoXgWQwnw69QvBTEGAqw-246" edge="1">
          <mxGeometry width="50" height="50" relative="1" as="geometry">
            <mxPoint x="156.53129425542107" y="29.163957268927092" as="sourcePoint" />
            <mxPoint x="198.5308450097377" y="0.7152810032512795" as="targetPoint" />
          </mxGeometry>
        </mxCell>
        <mxCell id="hoXgWQwnw69QvBTEGAqw-179" value="" style="endArrow=none;strokeWidth=1;strokeColor=#0000FF;" parent="hoXgWQwnw69QvBTEGAqw-246" edge="1">
          <mxGeometry width="50" height="50" relative="1" as="geometry">
            <mxPoint x="27.552100208076848" y="0.8079424059451813" as="sourcePoint" />
            <mxPoint x="120.10935029957852" y="0.8079424059451813" as="targetPoint" />
          </mxGeometry>
        </mxCell>
        <mxCell id="hoXgWQwnw69QvBTEGAqw-180" value="" style="endArrow=none;strokeWidth=1;strokeColor=#0000FF;" parent="hoXgWQwnw69QvBTEGAqw-246" edge="1">
          <mxGeometry width="50" height="50" relative="1" as="geometry">
            <mxPoint x="12.532834526335456" y="10.301916754960668" as="sourcePoint" />
            <mxPoint x="107.31989483165042" y="10.301916754960668" as="targetPoint" />
          </mxGeometry>
        </mxCell>
        <mxCell id="hoXgWQwnw69QvBTEGAqw-181" value="" style="endArrow=none;strokeWidth=1;strokeColor=#0000FF;" parent="hoXgWQwnw69QvBTEGAqw-246" edge="1">
          <mxGeometry width="50" height="50" relative="1" as="geometry">
            <mxPoint x="-1" y="19.68864148788332" as="sourcePoint" />
            <mxPoint x="92.55725009150161" y="19.68864148788332" as="targetPoint" />
          </mxGeometry>
        </mxCell>
        <mxCell id="hoXgWQwnw69QvBTEGAqw-182" value="" style="endArrow=none;strokeWidth=1;strokeColor=#0000FF;" parent="hoXgWQwnw69QvBTEGAqw-246" edge="1">
          <mxGeometry width="50" height="50" relative="1" as="geometry">
            <mxPoint x="121.53166862682387" y="0.9235336588452836" as="sourcePoint" />
            <mxPoint x="197.1116343938354" y="0.9235336588452836" as="targetPoint" />
          </mxGeometry>
        </mxCell>
        <mxCell id="hoXgWQwnw69QvBTEGAqw-183" value="" style="endArrow=none;strokeWidth=1;strokeColor=#0000FF;" parent="hoXgWQwnw69QvBTEGAqw-246" edge="1">
          <mxGeometry width="50" height="50" relative="1" as="geometry">
            <mxPoint x="107.531818375385" y="10.417508007860741" as="sourcePoint" />
            <mxPoint x="184.07167759858376" y="10.417508007860741" as="targetPoint" />
          </mxGeometry>
        </mxCell>
        <mxCell id="hoXgWQwnw69QvBTEGAqw-184" value="" style="endArrow=none;strokeWidth=1;strokeColor=#0000FF;" parent="hoXgWQwnw69QvBTEGAqw-246" edge="1">
          <mxGeometry width="50" height="50" relative="1" as="geometry">
            <mxPoint x="92.80270402868088" y="19.80423274078339" as="sourcePoint" />
            <mxPoint x="170.52671417055916" y="19.80423274078339" as="targetPoint" />
          </mxGeometry>
        </mxCell>
        <mxCell id="hoXgWQwnw69QvBTEGAqw-185" value="" style="endArrow=none;exitX=0.14;exitY=0.207;exitDx=0;exitDy=0;exitPerimeter=0;strokeWidth=1;strokeColor=#0000FF;" parent="hoXgWQwnw69QvBTEGAqw-246" edge="1">
          <mxGeometry width="50" height="50" relative="1" as="geometry">
            <mxPoint x="116.25204571446437" y="28.99671650233791" as="sourcePoint" />
            <mxPoint x="172.6893933312338" y="29.33276529942855" as="targetPoint" />
            <Array as="points" />
          </mxGeometry>
        </mxCell>
        <mxCell id="hoXgWQwnw69QvBTEGAqw-186" value="" style="endArrow=none;strokeColor=#0000FF;strokeWidth=1;curved=1;" parent="hoXgWQwnw69QvBTEGAqw-246" edge="1">
          <mxGeometry width="50" height="50" relative="1" as="geometry">
            <mxPoint x="86.53204299822667" y="19.41012540640967" as="sourcePoint" />
            <mxPoint x="117.00454368268795" y="28.97526657911918" as="targetPoint" />
            <Array as="points">
              <mxPoint x="94.4296046359803" y="19.203634890663512" />
              <mxPoint x="105.71707415933415" y="29.33276529942855" />
            </Array>
          </mxGeometry>
        </mxCell>
        <mxCell id="hoXgWQwnw69QvBTEGAqw-187" value="" style="endArrow=none;exitX=0.14;exitY=0.207;exitDx=0;exitDy=0;exitPerimeter=0;entryX=0.962;entryY=0.209;entryDx=0;entryDy=0;entryPerimeter=0;strokeWidth=1;strokeColor=#0000FF;" parent="hoXgWQwnw69QvBTEGAqw-246" edge="1">
          <mxGeometry width="50" height="50" relative="1" as="geometry">
            <mxPoint x="171.93689536301014" y="19.611183431816166" as="sourcePoint" />
            <mxPoint x="250.9491820264871" y="19.611183431816166" as="targetPoint" />
            <Array as="points" />
          </mxGeometry>
        </mxCell>
        <mxCell id="hoXgWQwnw69QvBTEGAqw-188" value="" style="endArrow=none;strokeWidth=1;strokeColor=#0000FF;entryX=0.895;entryY=0.691;entryDx=0;entryDy=0;entryPerimeter=0;" parent="hoXgWQwnw69QvBTEGAqw-246" edge="1">
          <mxGeometry width="50" height="50" relative="1" as="geometry">
            <mxPoint x="188.49185066392909" y="19.62071673102446" as="sourcePoint" />
            <mxPoint x="245.50561172435786" y="22.177255621388703" as="targetPoint" />
            <Array as="points" />
          </mxGeometry>
        </mxCell>
        <mxCell id="hoXgWQwnw69QvBTEGAqw-189" value="" style="endArrow=none;strokeWidth=1;strokeColor=#0000FF;entryX=0.85;entryY=0.993;entryDx=0;entryDy=0;entryPerimeter=0;" parent="hoXgWQwnw69QvBTEGAqw-246" edge="1">
          <mxGeometry width="50" height="50" relative="1" as="geometry">
            <mxPoint x="171.93689536301014" y="29.33276529942855" as="sourcePoint" />
            <mxPoint x="233.02468042340124" y="31.5" as="targetPoint" />
            <Array as="points" />
          </mxGeometry>
        </mxCell>
        <mxCell id="hoXgWQwnw69QvBTEGAqw-190" value="" style="endArrow=none;exitX=0.14;exitY=0.207;exitDx=0;exitDy=0;exitPerimeter=0;entryX=0.962;entryY=0.209;entryDx=0;entryDy=0;entryPerimeter=0;strokeWidth=1;strokeColor=#0000FF;" parent="hoXgWQwnw69QvBTEGAqw-246" edge="1">
          <mxGeometry width="50" height="50" relative="1" as="geometry">
            <mxPoint x="186.2343567592584" y="10.2292253484977" as="sourcePoint" />
            <mxPoint x="263.7416474862882" y="10.2292253484977" as="targetPoint" />
            <Array as="points" />
          </mxGeometry>
        </mxCell>
        <mxCell id="hoXgWQwnw69QvBTEGAqw-191" value="" style="endArrow=none;strokeWidth=1;strokeColor=#0000FF;" parent="hoXgWQwnw69QvBTEGAqw-246" edge="1">
          <mxGeometry width="50" height="50" relative="1" as="geometry">
            <mxPoint x="-1.0030206881985952" y="19.76718564197811" as="sourcePoint" />
            <mxPoint x="27.591902104297787" y="0.7152810032512795" as="targetPoint" />
          </mxGeometry>
        </mxCell>
        <mxCell id="hoXgWQwnw69QvBTEGAqw-192" value="" style="endArrow=none;strokeWidth=1;strokeColor=#666666;" parent="hoXgWQwnw69QvBTEGAqw-246" edge="1">
          <mxGeometry width="50" height="50" relative="1" as="geometry">
            <mxPoint x="89.23123721862751" y="19.665680894301968" as="sourcePoint" />
            <mxPoint x="117.82616001112396" y="0.0032512772874924542" as="targetPoint" />
          </mxGeometry>
        </mxCell>
        <mxCell id="hoXgWQwnw69QvBTEGAqw-193" value="" style="endArrow=none;exitX=0.14;exitY=0.207;exitDx=0;exitDy=0;exitPerimeter=0;entryX=0.962;entryY=0.209;entryDx=0;entryDy=0;entryPerimeter=0;strokeWidth=1;strokeColor=#0000FF;" parent="hoXgWQwnw69QvBTEGAqw-246" edge="1">
          <mxGeometry width="50" height="50" relative="1" as="geometry">
            <mxPoint x="199.45123107313754" y="0.8055590811431057" as="sourcePoint" />
            <mxPoint x="276.9585218001676" y="0.8055590811431057" as="targetPoint" />
            <Array as="points" />
          </mxGeometry>
        </mxCell>
        <mxCell id="hoXgWQwnw69QvBTEGAqw-194" value="" style="endArrow=none;strokeWidth=1;strokeColor=#666666;" parent="hoXgWQwnw69QvBTEGAqw-246" edge="1">
          <mxGeometry width="50" height="50" relative="1" as="geometry">
            <mxPoint x="248.530310193448" y="19.87454082244406" as="sourcePoint" />
            <mxPoint x="277.53" y="0.7152810032512795" as="targetPoint" />
          </mxGeometry>
        </mxCell>
        <mxCell id="hoXgWQwnw69QvBTEGAqw-203" value="" style="line;strokeWidth=1;perimeter=backbonePerimeter;points=[];outlineConnect=0;rounded=0;shadow=0;labelBackgroundColor=none;sketch=0;fillColor=#4D4D4D;gradientColor=none;fontFamily=Times New Roman;fontSize=10;fontColor=#000000;align=left;strokeColor=#FF0000;" parent="hoXgWQwnw69QvBTEGAqw-246" vertex="1">
          <mxGeometry x="21.62273729673396" width="251.968" height="8.128193218764517" as="geometry" />
        </mxCell>
        <mxCell id="hoXgWQwnw69QvBTEGAqw-206" value="" style="line;strokeWidth=1;perimeter=backbonePerimeter;points=[];outlineConnect=0;rounded=0;shadow=0;labelBackgroundColor=none;sketch=0;fillColor=#4D4D4D;gradientColor=none;fontFamily=Times New Roman;fontSize=10;fontColor=#000000;align=left;strokeColor=#FF0000;" parent="hoXgWQwnw69QvBTEGAqw-246" vertex="1">
          <mxGeometry x="17.49678142977421" y="3.148862052949376" width="247.90734827387232" height="8.128193218764517" as="geometry" />
        </mxCell>
        <mxCell id="hoXgWQwnw69QvBTEGAqw-208" value="" style="line;strokeWidth=1;perimeter=backbonePerimeter;points=[];outlineConnect=0;rounded=0;shadow=0;labelBackgroundColor=none;sketch=0;fillColor=#4D4D4D;gradientColor=none;fontFamily=Times New Roman;fontSize=10;fontColor=#000000;align=left;strokeColor=#FF0000;" parent="hoXgWQwnw69QvBTEGAqw-246" vertex="1">
          <mxGeometry x="8.496877696706358" y="9.65141662796099" width="247.90734827387232" height="8.128193218764517" as="geometry" />
        </mxCell>
        <mxCell id="hoXgWQwnw69QvBTEGAqw-209" value="" style="line;strokeWidth=1;perimeter=backbonePerimeter;points=[];outlineConnect=0;rounded=0;shadow=0;labelBackgroundColor=none;sketch=0;fillColor=#4D4D4D;gradientColor=none;fontFamily=Times New Roman;fontSize=10;fontColor=#000000;align=left;strokeColor=#FF0000;" parent="hoXgWQwnw69QvBTEGAqw-246" vertex="1">
          <mxGeometry x="4.37092182974661" y="12.80027868091036" width="247.90734827387232" height="8.128193218764517" as="geometry" />
        </mxCell>
        <mxCell id="hoXgWQwnw69QvBTEGAqw-210" value="" style="endArrow=none;strokeWidth=1;fontFamily=Times New Roman;fontSize=10;fontColor=#000000;strokeColor=#FF3333;" parent="hoXgWQwnw69QvBTEGAqw-246" edge="1">
          <mxGeometry width="50" height="50" relative="1" as="geometry">
            <mxPoint x="18.532770348380687" y="19.41012540640967" as="sourcePoint" />
            <mxPoint x="46.532470851258445" y="0.7152810032512795" as="targetPoint" />
          </mxGeometry>
        </mxCell>
        <mxCell id="hoXgWQwnw69QvBTEGAqw-211" value="" style="endArrow=none;strokeWidth=1;fontFamily=Times New Roman;fontSize=10;fontColor=#000000;strokeColor=#FF3333;" parent="hoXgWQwnw69QvBTEGAqw-246" edge="1">
          <mxGeometry width="50" height="50" relative="1" as="geometry">
            <mxPoint x="8.536877268853347" y="19.413376683697166" as="sourcePoint" />
            <mxPoint x="36.5365777717311" y="0.7185322805387894" as="targetPoint" />
          </mxGeometry>
        </mxCell>
        <mxCell id="hoXgWQwnw69QvBTEGAqw-214" value="" style="endArrow=none;strokeWidth=1;fontFamily=Times New Roman;fontSize=10;fontColor=#000000;strokeColor=#FF3333;" parent="hoXgWQwnw69QvBTEGAqw-246" edge="1">
          <mxGeometry width="50" height="50" relative="1" as="geometry">
            <mxPoint x="38.4865569138958" y="19.510915002322346" as="sourcePoint" />
            <mxPoint x="66.48625741677355" y="0.8160705991639615" as="targetPoint" />
          </mxGeometry>
        </mxCell>
        <mxCell id="hoXgWQwnw69QvBTEGAqw-215" value="" style="endArrow=none;strokeWidth=1;fontFamily=Times New Roman;fontSize=10;fontColor=#000000;strokeColor=#FF3333;" parent="hoXgWQwnw69QvBTEGAqw-246" edge="1">
          <mxGeometry width="50" height="50" relative="1" as="geometry">
            <mxPoint x="28.490663834368455" y="19.514166279609842" as="sourcePoint" />
            <mxPoint x="56.49036433724621" y="0.8193218764514714" as="targetPoint" />
          </mxGeometry>
        </mxCell>
        <mxCell id="hoXgWQwnw69QvBTEGAqw-216" value="" style="endArrow=none;strokeWidth=1;fontFamily=Times New Roman;fontSize=10;fontColor=#000000;strokeColor=#FF3333;" parent="hoXgWQwnw69QvBTEGAqw-246" edge="1">
          <mxGeometry width="50" height="50" relative="1" as="geometry">
            <mxPoint x="58.40634384308599" y="19.30771017185323" as="sourcePoint" />
            <mxPoint x="86.40604434596375" y="0.6128657686948485" as="targetPoint" />
          </mxGeometry>
        </mxCell>
        <mxCell id="hoXgWQwnw69QvBTEGAqw-217" value="" style="endArrow=none;strokeWidth=1;fontFamily=Times New Roman;fontSize=10;fontColor=#000000;strokeColor=#FF3333;" parent="hoXgWQwnw69QvBTEGAqw-246" edge="1">
          <mxGeometry width="50" height="50" relative="1" as="geometry">
            <mxPoint x="48.41045076355865" y="19.31096144914073" as="sourcePoint" />
            <mxPoint x="76.41015126643642" y="0.6161170459823584" as="targetPoint" />
          </mxGeometry>
        </mxCell>
        <mxCell id="hoXgWQwnw69QvBTEGAqw-218" value="" style="endArrow=none;strokeWidth=1;fontFamily=Times New Roman;fontSize=10;fontColor=#000000;strokeColor=#FF3333;" parent="hoXgWQwnw69QvBTEGAqw-246" edge="1">
          <mxGeometry width="50" height="50" relative="1" as="geometry">
            <mxPoint x="78.3601304086011" y="19.408499767765907" as="sourcePoint" />
            <mxPoint x="106.35983091147885" y="0.7136553646075248" as="targetPoint" />
          </mxGeometry>
        </mxCell>
        <mxCell id="hoXgWQwnw69QvBTEGAqw-219" value="" style="endArrow=none;strokeWidth=1;fontFamily=Times New Roman;fontSize=10;fontColor=#000000;strokeColor=#FF3333;" parent="hoXgWQwnw69QvBTEGAqw-246" edge="1">
          <mxGeometry width="50" height="50" relative="1" as="geometry">
            <mxPoint x="68.36423732907376" y="19.411751045053407" as="sourcePoint" />
            <mxPoint x="96.36393783195152" y="0.716906641895046" as="targetPoint" />
          </mxGeometry>
        </mxCell>
        <mxCell id="hoXgWQwnw69QvBTEGAqw-220" value="" style="endArrow=none;strokeWidth=1;fontFamily=Times New Roman;fontSize=10;fontColor=#000000;strokeColor=#FF3333;" parent="hoXgWQwnw69QvBTEGAqw-246" edge="1">
          <mxGeometry width="50" height="50" relative="1" as="geometry">
            <mxPoint x="101.53" y="25.26000000000002" as="sourcePoint" />
            <mxPoint x="137.52549754978915" y="0.9136089177891337" as="targetPoint" />
          </mxGeometry>
        </mxCell>
        <mxCell id="hoXgWQwnw69QvBTEGAqw-221" value="" style="endArrow=none;strokeWidth=1;fontFamily=Times New Roman;fontSize=10;fontColor=#000000;strokeColor=#FF3333;" parent="hoXgWQwnw69QvBTEGAqw-246" edge="1">
          <mxGeometry width="50" height="50" relative="1" as="geometry">
            <mxPoint x="99.52990396738404" y="19.611704598235022" as="sourcePoint" />
            <mxPoint x="127.5296044702618" y="0.9168601950766551" as="targetPoint" />
          </mxGeometry>
        </mxCell>
        <mxCell id="hoXgWQwnw69QvBTEGAqw-222" value="" style="endArrow=none;strokeWidth=1;fontFamily=Times New Roman;fontSize=10;fontColor=#000000;strokeColor=#FF3333;" parent="hoXgWQwnw69QvBTEGAqw-246" edge="1">
          <mxGeometry width="50" height="50" relative="1" as="geometry">
            <mxPoint x="117.53" y="28.26000000000002" as="sourcePoint" />
            <mxPoint x="158.4792734189784" y="1.0143985137018097" as="targetPoint" />
          </mxGeometry>
        </mxCell>
        <mxCell id="hoXgWQwnw69QvBTEGAqw-223" value="" style="endArrow=none;strokeWidth=1;fontFamily=Times New Roman;fontSize=10;fontColor=#000000;strokeColor=#FF3333;" parent="hoXgWQwnw69QvBTEGAqw-246" edge="1">
          <mxGeometry width="50" height="50" relative="1" as="geometry">
            <mxPoint x="107.53" y="28.26000000000002" as="sourcePoint" />
            <mxPoint x="148.48338033945117" y="1.017649790989331" as="targetPoint" />
          </mxGeometry>
        </mxCell>
        <mxCell id="hoXgWQwnw69QvBTEGAqw-224" value="" style="endArrow=none;strokeWidth=1;fontFamily=Times New Roman;fontSize=10;fontColor=#000000;strokeColor=#FF3333;" parent="hoXgWQwnw69QvBTEGAqw-246" edge="1">
          <mxGeometry width="50" height="50" relative="1" as="geometry">
            <mxPoint x="137.53" y="28.26000000000002" as="sourcePoint" />
            <mxPoint x="178.39906034816866" y="0.8111936832326969" as="targetPoint" />
          </mxGeometry>
        </mxCell>
        <mxCell id="hoXgWQwnw69QvBTEGAqw-225" value="" style="endArrow=none;strokeWidth=1;fontFamily=Times New Roman;fontSize=10;fontColor=#000000;strokeColor=#FF3333;" parent="hoXgWQwnw69QvBTEGAqw-246" edge="1">
          <mxGeometry width="50" height="50" relative="1" as="geometry">
            <mxPoint x="125.53" y="29.26000000000002" as="sourcePoint" />
            <mxPoint x="168.4031672686413" y="0.8144449605202181" as="targetPoint" />
          </mxGeometry>
        </mxCell>
        <mxCell id="hoXgWQwnw69QvBTEGAqw-226" value="" style="endArrow=none;strokeWidth=1;fontFamily=Times New Roman;fontSize=10;fontColor=#000000;strokeColor=#FF3333;" parent="hoXgWQwnw69QvBTEGAqw-246" edge="1">
          <mxGeometry width="50" height="50" relative="1" as="geometry">
            <mxPoint x="156" y="29.26000000000002" as="sourcePoint" />
            <mxPoint x="198.35284691368372" y="0.9119832791453729" as="targetPoint" />
          </mxGeometry>
        </mxCell>
        <mxCell id="hoXgWQwnw69QvBTEGAqw-227" value="" style="endArrow=none;strokeWidth=1;fontFamily=Times New Roman;fontSize=10;fontColor=#000000;strokeColor=#FF3333;" parent="hoXgWQwnw69QvBTEGAqw-246" edge="1">
          <mxGeometry width="50" height="50" relative="1" as="geometry">
            <mxPoint x="146.53" y="29.26000000000002" as="sourcePoint" />
            <mxPoint x="188.35695383415649" y="0.9152345564328943" as="targetPoint" />
          </mxGeometry>
        </mxCell>
        <mxCell id="hoXgWQwnw69QvBTEGAqw-236" value="" style="endArrow=none;strokeWidth=1;fontFamily=Times New Roman;fontSize=10;fontColor=#000000;strokeColor=#FF3333;" parent="hoXgWQwnw69QvBTEGAqw-246" edge="1">
          <mxGeometry width="50" height="50" relative="1" as="geometry">
            <mxPoint x="177.53" y="29.26000000000002" as="sourcePoint" />
            <mxPoint x="219.52262047246666" y="0.9201114723641185" as="targetPoint" />
          </mxGeometry>
        </mxCell>
        <mxCell id="hoXgWQwnw69QvBTEGAqw-237" value="" style="endArrow=none;strokeWidth=1;fontFamily=Times New Roman;fontSize=10;fontColor=#000000;strokeColor=#FF3333;" parent="hoXgWQwnw69QvBTEGAqw-246" edge="1">
          <mxGeometry width="50" height="50" relative="1" as="geometry">
            <mxPoint x="167.53" y="29.26000000000002" as="sourcePoint" />
            <mxPoint x="209.52672739293953" y="0.9233627496516399" as="targetPoint" />
          </mxGeometry>
        </mxCell>
        <mxCell id="hoXgWQwnw69QvBTEGAqw-238" value="" style="endArrow=none;strokeWidth=1;fontFamily=Times New Roman;fontSize=10;fontColor=#000000;strokeColor=#FF3333;" parent="hoXgWQwnw69QvBTEGAqw-246" edge="1">
          <mxGeometry width="50" height="50" relative="1" as="geometry">
            <mxPoint x="211.44270689877914" y="19.411751045053418" as="sourcePoint" />
            <mxPoint x="239.44240740165674" y="0.7169066418950287" as="targetPoint" />
          </mxGeometry>
        </mxCell>
        <mxCell id="hoXgWQwnw69QvBTEGAqw-239" value="" style="endArrow=none;strokeWidth=1;fontFamily=Times New Roman;fontSize=10;fontColor=#000000;strokeColor=#FF3333;" parent="hoXgWQwnw69QvBTEGAqw-246" edge="1">
          <mxGeometry width="50" height="50" relative="1" as="geometry">
            <mxPoint x="201.44681381925182" y="19.415002322340918" as="sourcePoint" />
            <mxPoint x="229.4465143221295" y="0.72015791918255" as="targetPoint" />
          </mxGeometry>
        </mxCell>
        <mxCell id="hoXgWQwnw69QvBTEGAqw-240" value="" style="endArrow=none;strokeWidth=1;fontFamily=Times New Roman;fontSize=10;fontColor=#000000;strokeColor=#FF3333;" parent="hoXgWQwnw69QvBTEGAqw-246" edge="1">
          <mxGeometry width="50" height="50" relative="1" as="geometry">
            <mxPoint x="221.40060038476707" y="19.51579191825357" as="sourcePoint" />
            <mxPoint x="249.40030088764468" y="0.8209475150952261" as="targetPoint" />
          </mxGeometry>
        </mxCell>
        <mxCell id="hoXgWQwnw69QvBTEGAqw-241" value="" style="endArrow=none;strokeWidth=1;fontFamily=Times New Roman;fontSize=10;fontColor=#000000;strokeColor=#FF3333;" parent="hoXgWQwnw69QvBTEGAqw-246" edge="1">
          <mxGeometry width="50" height="50" relative="1" as="geometry">
            <mxPoint x="240.52639580683964" y="18.79725963771482" as="sourcePoint" />
            <mxPoint x="268.5260963097174" y="0.10241523455640791" as="targetPoint" />
          </mxGeometry>
        </mxCell>
        <mxCell id="hoXgWQwnw69QvBTEGAqw-242" value="" style="endArrow=none;strokeWidth=1;fontFamily=Times New Roman;fontSize=10;fontColor=#000000;strokeColor=#FF3333;" parent="hoXgWQwnw69QvBTEGAqw-246" edge="1">
          <mxGeometry width="50" height="50" relative="1" as="geometry">
            <mxPoint x="230.5305027273124" y="18.80051091500232" as="sourcePoint" />
            <mxPoint x="258.5302032301903" y="0.10566651184392925" as="targetPoint" />
          </mxGeometry>
        </mxCell>
        <mxCell id="hoXgWQwnw69QvBTEGAqw-244" value="" style="endArrow=none;strokeWidth=1;fontFamily=Times New Roman;fontSize=10;fontColor=#000000;strokeColor=#FF3333;" parent="hoXgWQwnw69QvBTEGAqw-246" edge="1">
          <mxGeometry width="50" height="50" relative="1" as="geometry">
            <mxPoint x="249.45030035282835" y="19.410125406409655" as="sourcePoint" />
            <mxPoint x="277.4500008557061" y="0.7152810032512911" as="targetPoint" />
          </mxGeometry>
        </mxCell>
        <mxCell id="hoXgWQwnw69QvBTEGAqw-346" value="" style="endArrow=none;strokeWidth=1;strokeColor=#FF0000;" parent="hoXgWQwnw69QvBTEGAqw-357" edge="1">
          <mxGeometry width="50" height="50" relative="1" as="geometry">
            <mxPoint x="167.5308953630101" y="22.25676529942855" as="sourcePoint" />
            <mxPoint x="239.53" y="25.26000000000002" as="targetPoint" />
            <Array as="points" />
          </mxGeometry>
        </mxCell>
        <mxCell id="hoXgWQwnw69QvBTEGAqw-347" value="" style="endArrow=none;strokeWidth=1;entryX=0.85;entryY=0.993;entryDx=0;entryDy=0;entryPerimeter=0;strokeColor=#FF0000;" parent="hoXgWQwnw69QvBTEGAqw-357" edge="1">
          <mxGeometry width="50" height="50" relative="1" as="geometry">
            <mxPoint x="98.53" y="22.26076529942854" as="sourcePoint" />
            <mxPoint x="165.6226804234013" y="22.26076529942854" as="targetPoint" />
            <Array as="points" />
          </mxGeometry>
        </mxCell>
        <mxCell id="hoXgWQwnw69QvBTEGAqw-348" value="" style="endArrow=none;strokeWidth=1;strokeColor=#FF0000;" parent="hoXgWQwnw69QvBTEGAqw-357" edge="1">
          <mxGeometry width="50" height="50" relative="1" as="geometry">
            <mxPoint x="162.53489536301018" y="25.260765299428556" as="sourcePoint" />
            <mxPoint x="234.53400000000002" y="28.26400000000001" as="targetPoint" />
            <Array as="points" />
          </mxGeometry>
        </mxCell>
        <mxCell id="hoXgWQwnw69QvBTEGAqw-349" value="" style="endArrow=none;strokeWidth=1;entryX=0.85;entryY=0.993;entryDx=0;entryDy=0;entryPerimeter=0;strokeColor=#FF0000;" parent="hoXgWQwnw69QvBTEGAqw-357" edge="1">
          <mxGeometry width="50" height="50" relative="1" as="geometry">
            <mxPoint x="103.53" y="25.264765299428518" as="sourcePoint" />
            <mxPoint x="162.62668042340138" y="25.264765299428518" as="targetPoint" />
            <Array as="points" />
          </mxGeometry>
        </mxCell>
        <mxCell id="hoXgWQwnw69QvBTEGAqw-350" value="" style="endArrow=none;strokeWidth=1;fontFamily=Times New Roman;fontSize=10;fontColor=#000000;strokeColor=#FF3333;" parent="hoXgWQwnw69QvBTEGAqw-357" edge="1">
          <mxGeometry width="50" height="50" relative="1" as="geometry">
            <mxPoint x="185.53" y="30.26000000000002" as="sourcePoint" />
            <mxPoint x="200.5305143221295" y="20.26415791918255" as="targetPoint" />
          </mxGeometry>
        </mxCell>
        <mxCell id="hoXgWQwnw69QvBTEGAqw-351" value="" style="endArrow=none;strokeWidth=1;fontFamily=Times New Roman;fontSize=10;fontColor=#000000;strokeColor=#FF3333;" parent="hoXgWQwnw69QvBTEGAqw-357" edge="1">
          <mxGeometry width="50" height="50" relative="1" as="geometry">
            <mxPoint x="194.53400000000002" y="30.25400000000002" as="sourcePoint" />
            <mxPoint x="209.53451432212947" y="20.258157919182565" as="targetPoint" />
          </mxGeometry>
        </mxCell>
        <mxCell id="hoXgWQwnw69QvBTEGAqw-352" value="" style="endArrow=none;strokeWidth=1;fontFamily=Times New Roman;fontSize=10;fontColor=#000000;strokeColor=#FF3333;" parent="hoXgWQwnw69QvBTEGAqw-357" edge="1">
          <mxGeometry width="50" height="50" relative="1" as="geometry">
            <mxPoint x="204.53" y="30.26000000000002" as="sourcePoint" />
            <mxPoint x="218.5285143221295" y="21.262157919182556" as="targetPoint" />
          </mxGeometry>
        </mxCell>
        <mxCell id="hoXgWQwnw69QvBTEGAqw-353" value="" style="endArrow=none;strokeWidth=1;fontFamily=Times New Roman;fontSize=10;fontColor=#000000;strokeColor=#FF3333;" parent="hoXgWQwnw69QvBTEGAqw-357" edge="1">
          <mxGeometry width="50" height="50" relative="1" as="geometry">
            <mxPoint x="213.53400000000002" y="30.25400000000002" as="sourcePoint" />
            <mxPoint x="227.53251432212951" y="21.256157919182556" as="targetPoint" />
          </mxGeometry>
        </mxCell>
        <mxCell id="hoXgWQwnw69QvBTEGAqw-355" value="" style="endArrow=none;strokeWidth=1;fontFamily=Times New Roman;fontSize=10;fontColor=#000000;strokeColor=#FF3333;" parent="hoXgWQwnw69QvBTEGAqw-357" edge="1">
          <mxGeometry width="50" height="50" relative="1" as="geometry">
            <mxPoint x="222.40800000000004" y="30.25800000000001" as="sourcePoint" />
            <mxPoint x="236.40651432212954" y="21.260157919182575" as="targetPoint" />
          </mxGeometry>
        </mxCell>
        <mxCell id="hoXgWQwnw69QvBTEGAqw-356" value="" style="endArrow=none;strokeWidth=1;fontFamily=Times New Roman;fontSize=10;fontColor=#000000;strokeColor=#FF3333;" parent="hoXgWQwnw69QvBTEGAqw-357" edge="1">
          <mxGeometry width="50" height="50" relative="1" as="geometry">
            <mxPoint x="231.53" y="31.26000000000002" as="sourcePoint" />
            <mxPoint x="244.53051432212956" y="22.264157919182566" as="targetPoint" />
          </mxGeometry>
        </mxCell>
        <mxCell id="hoXgWQwnw69QvBTEGAqw-358" value="Bridge" style="text;fontSize=10;labelBackgroundColor=none;" parent="WIyWlLk6GJQsqaUBKTNV-1" vertex="1">
          <mxGeometry x="294.22306904985885" y="246.19874961919265" width="34.914486359360296" height="31.495250380807313" as="geometry" />
        </mxCell>
        <mxCell id="hoXgWQwnw69QvBTEGAqw-359" value="Speed LimitÂ " style="text;fontSize=9;labelBackgroundColor=none;" parent="WIyWlLk6GJQsqaUBKTNV-1" vertex="1">
          <mxGeometry x="437.76" y="225.51" width="92.28" height="31.5" as="geometry" />
        </mxCell>
        <mxCell id="m5uhefdeRigZ5q7ZjrG9-0" value="" style="endArrow=blockThin;fontSize=14;strokeColor=#1A1A1A;strokeWidth=1;endFill=1;exitX=0.365;exitY=0.505;exitDx=0;exitDy=0;exitPerimeter=0;endSize=3;entryX=0.565;entryY=0.852;entryDx=0;entryDy=0;entryPerimeter=0;dashed=1;dashPattern=1 2;" parent="WIyWlLk6GJQsqaUBKTNV-1" edge="1">
          <mxGeometry width="50" height="50" relative="1" as="geometry">
            <mxPoint x="360.2623000000001" y="261.62674999999996" as="sourcePoint" />
            <mxPoint x="495.7793999999999" y="268.2114800000001" as="targetPoint" />
            <Array as="points">
              <mxPoint x="433.884" y="262.194" />
            </Array>
          </mxGeometry>
        </mxCell>
        <mxCell id="m5uhefdeRigZ5q7ZjrG9-1" value="" style="endArrow=blockThin;fontSize=14;strokeWidth=1;endFill=1;strokeColor=#1A1A1A;endSize=3;dashed=1;dashPattern=1 2;" parent="WIyWlLk6GJQsqaUBKTNV-1" edge="1">
          <mxGeometry width="50" height="50" relative="1" as="geometry">
            <mxPoint x="271.10800000000006" y="246.19400000000002" as="sourcePoint" />
            <mxPoint x="364.884" y="246.19400000000002" as="targetPoint" />
          </mxGeometry>
        </mxCell>
        <mxCell id="m5uhefdeRigZ5q7ZjrG9-2" value="" style="endArrow=blockThin;fontSize=14;strokeWidth=1;endFill=1;strokeColor=#1A1A1A;endSize=3;dashed=1;dashPattern=1 2;" parent="WIyWlLk6GJQsqaUBKTNV-1" edge="1">
          <mxGeometry width="50" height="50" relative="1" as="geometry">
            <mxPoint x="370.884" y="246.19400000000002" as="sourcePoint" />
            <mxPoint x="524.884" y="246.19400000000002" as="targetPoint" />
          </mxGeometry>
        </mxCell>
        <mxCell id="m5uhefdeRigZ5q7ZjrG9-3" value="Speed LimitÂ " style="text;fontSize=9;labelBackgroundColor=none;" parent="WIyWlLk6GJQsqaUBKTNV-1" vertex="1">
          <mxGeometry x="402.76" y="260.51" width="57.35" height="20.74" as="geometry" />
        </mxCell>
        <mxCell id="m5uhefdeRigZ5q7ZjrG9-4" value="Objects Associated with Sections" style="text;whiteSpace=wrap;fontSize=10;" parent="WIyWlLk6GJQsqaUBKTNV-1" vertex="1">
          <mxGeometry x="310.86999999999995" y="214.69" width="164.21" height="23.62" as="geometry" />
        </mxCell>
        <mxCell id="QIc8TcTozTCymu-zYcKP-10" value="" style="shape=cylinder3;whiteSpace=wrap;boundedLbl=1;backgroundOutline=1;size=14.270282226562514;fillColor=#B5FFF5;labelBorderColor=none;shadow=0;sketch=0;" vertex="1" parent="WIyWlLk6GJQsqaUBKTNV-1">
          <mxGeometry x="132" y="39.37" width="110.24" height="77.52" as="geometry" />
        </mxCell>
        <mxCell id="QIc8TcTozTCymu-zYcKP-11" value="Dynamic Layer" style="text;resizable=0;autosize=1;align=center;verticalAlign=middle;points=[];fillColor=none;strokeColor=none;fontFamily=Times New Roman;labelBorderColor=none;fontStyle=1;" vertex="1" parent="WIyWlLk6GJQsqaUBKTNV-1">
          <mxGeometry x="140.32399999999998" y="39.37399999999998" width="94.488" height="23.622" as="geometry" />
        </mxCell>
        <mxCell id="QIc8TcTozTCymu-zYcKP-165" value="Grid Level" style="text;resizable=0;autosize=1;align=center;verticalAlign=middle;points=[];fontFamily=Times New Roman;labelBorderColor=none;rounded=1;fontSize=12;strokeColor=#000000;fillColor=#ffffff;" vertex="1" parent="WIyWlLk6GJQsqaUBKTNV-1">
          <mxGeometry x="148.26400000000004" y="171.864" width="62.992" height="23.622" as="geometry" />
        </mxCell>
        <mxCell id="QIc8TcTozTCymu-zYcKP-168" value="" style="shape=image;verticalLabelPosition=bottom;labelBackgroundColor=#ffffff;verticalAlign=top;imageAspect=0;image=data:image/svg+xml,PHN2ZyB4bWxucz0iaHR0cDovL3d3dy53My5vcmcvMjAwMC9zdmciIHhtbG5zOnhsaW5rPSJodHRwOi8vd3d3LnczLm9yZy8xOTk5L3hsaW5rIiB3aWR0aD0iNzAxLjM0ODYzMjgxMjUiIGhlaWdodD0iMTAxLjk2MDcyMzg3Njk1MzEyIiBvdmVyZmxvdz0iaGlkZGVuIiB2aWV3Qm94PSIxMC41MDQ0NTU1NjY0MDYyNSAyLjgxNTI3NzA5OTYwOTM3NSA3MDEuMzQ4NjMyODEyNSAxMDEuOTYwNzIzODc2OTUzMTIiPjxkZWZzPjxjbGlwUGF0aCBpZD0iY2xpcDAiPjxyZWN0IHg9IjI4MCIgeT0iMjcxIiB3aWR0aD0iNzI0IiBoZWlnaHQ9IjEwNiIvPjwvY2xpcFBhdGg+PGNsaXBQYXRoIGlkPSJjbGlwMSI+PHJlY3QgeD0iMjgxIiB5PSIyNzIiIHdpZHRoPSI3MjMiIGhlaWdodD0iMTA0Ii8+PC9jbGlwUGF0aD48Y2xpcFBhdGggaWQ9ImNsaXAyIj48cmVjdCB4PSIyODEiIHk9IjI3MiIgd2lkdGg9IjcyNCIgaGVpZ2h0PSIxMDQiLz48L2NsaXBQYXRoPjxjbGlwUGF0aCBpZD0iY2xpcDMiPjxyZWN0IHg9IjI4MSIgeT0iMjcyIiB3aWR0aD0iNzI0IiBoZWlnaHQ9IjEwNCIvPjwvY2xpcFBhdGg+PC9kZWZzPjxnIGNsaXAtcGF0aD0idXJsKCNjbGlwMCkiIHRyYW5zZm9ybT0idHJhbnNsYXRlKC0yODAgLTI3MSkiPjxnIGNsaXAtcGF0aD0idXJsKCNjbGlwMSkiPjxnIGNsaXAtcGF0aD0idXJsKCNjbGlwMikiPjxnIGNsaXAtcGF0aD0idXJsKCNjbGlwMykiPjxwYXRoIGQ9Ik0yODUuMjA1IDEwMi43NTYgMTkuNjU4IDEwMi43NTZDNi4wNjMyNyAxMDIuNzU2IDQuNzk4OTUgOTguODA2OCAxNS44NjUxIDkwLjkwODJMMTI1LjQzMiAxMi42NjM1QzEzNi40ODUgNC43NTEzNyAxNDguODA4IDAuNzk1Mjk0IDE2Mi40MDMgMC43OTUyOTRMNjkzLjQ3NiAwLjc5NTI5NEM3MDcuMDcxIDAuNzk1Mjk0IDcwOC4zNDIgNC43NTEzNyA2OTcuMjg5IDEyLjY2MzVMNTg3LjcyMiA5MC45MDgyQzU3Ni42NTYgOTguODA2OCA1NjQuMzI2IDEwMi43NTYgNTUwLjczMSAxMDIuNzU2WiIgc3Ryb2tlPSIjNDVGRkUwIiBzdHJva2Utd2lkdGg9IjIuMDM5MjIiIHN0cm9rZS1taXRlcmxpbWl0PSIxMCIgZmlsbD0iI0U2RkZFNiIgdHJhbnNmb3JtPSJtYXRyaXgoMS4wMDcyNCAwIDAgMSAyODIuMDI3IDI3My4wMikiLz48cGF0aCBkPSJNMTM3Ljk5NCAyMC40OTQxIDY0OC40NzEgMjAuMzkyMiIgc3Ryb2tlPSIjMDAwMEZGIiBzdHJva2Utd2lkdGg9IjIuMDM5MjIiIHN0cm9rZS1taXRlcmxpbWl0PSIxMCIgZmlsbD0ibm9uZSIgdHJhbnNmb3JtPSJtYXRyaXgoMS4wMDcyNCAwIDAgMSAyODIuMDI3IDI3My4wMikiLz48cGF0aCBkPSJNMTA3LjM2NSAzOS44NjY3IDYxNy44ODIgMzguNzQ1MSIgc3Ryb2tlPSIjMDAwMEZGIiBzdHJva2Utd2lkdGg9IjIuMDM5MjIiIHN0cm9rZS1taXRlcmxpbWl0PSIxMCIgZmlsbD0ibm9uZSIgdHJhbnNmb3JtPSJtYXRyaXgoMS4wMDcyNCAwIDAgMSAyODIuMDI3IDI3My4wMikiLz48cGF0aCBkPSJNNzkuNzUzNyA1OC45OTQ1IDI3MC41NDMgNTguOTk0NSIgc3Ryb2tlPSIjMDAwMEZGIiBzdHJva2Utd2lkdGg9IjIuMDM5MjIiIHN0cm9rZS1taXRlcmxpbWl0PSIxMCIgZmlsbD0ibm9uZSIgdHJhbnNmb3JtPSJtYXRyaXgoMS4wMDcyNCAwIDAgMSAyODIuMDI3IDI3My4wMikiLz48cGF0aCBkPSJNMjcxLjA1MyA1OS4yMzkyIDU4OS4zMzMgNTkuMTM3MyIgc3Ryb2tlPSIjMDAwMEZGIiBzdHJva2Utd2lkdGg9IjIuMDM5MjIiIHN0cm9rZS1taXRlcmxpbWl0PSIxMCIgZmlsbD0ibm9uZSIgdHJhbnNmb3JtPSJtYXRyaXgoMS4wMDcyNCAwIDAgMSAyODIuMDI3IDI3My4wMikiLz48cGF0aCBkPSJNMzE4Ljg3MiA3Ny45Nzk2IDQzMy45NDUgNzguNjczIiBzdHJva2U9IiMwMDAwRkYiIHN0cm9rZS13aWR0aD0iMi4wMzkyMiIgc3Ryb2tlLW1pdGVybGltaXQ9IjEwIiBmaWxsPSJub25lIiB0cmFuc2Zvcm09Im1hdHJpeCgxLjAwNzI0IDAgMCAxIDI4Mi4wMjcgMjczLjAyKSIvPjxwYXRoIGQ9Ik0yNTguMjY3IDU4LjQyMzVDMjY4Ljk5MyA1OC4xNTE2IDI3OC4xOTcgNjEuNDU1MiAyODUuODc4IDY4LjMzNDEgMjkzLjU0NSA3NS4yMjY3IDMwNS4wNTMgNzguNDI4MiAzMjAuNDAyIDc3LjkzODgiIHN0cm9rZT0iIzAwMDBGRiIgc3Ryb2tlLXdpZHRoPSIyLjAzOTIyIiBzdHJva2UtbWl0ZXJsaW1pdD0iMTAiIGZpbGw9Im5vbmUiIHRyYW5zZm9ybT0ibWF0cml4KDEuMDA3MjQgMCAwIDEgMjgyLjAyNyAyNzMuMDIpIi8+PHBhdGggZD0iTTQ2Ni4xODUgNTguODUxOCA1ODIuNDQxIDY0LjA3MjIiIHN0cm9rZT0iIzAwMDBGRiIgc3Ryb2tlLXdpZHRoPSIyLjAzOTIyIiBzdHJva2UtbWl0ZXJsaW1pdD0iMTAiIGZpbGw9Im5vbmUiIHRyYW5zZm9ybT0ibWF0cml4KDEuMDA3MjQgMCAwIDEgMjgyLjAyNyAyNzMuMDIpIi8+PHBhdGggZD0iTTQzMi40MTYgNzguNjczIDU1Ni45OTEgODMuMDc3NyIgc3Ryb2tlPSIjMDAwMEZGIiBzdHJva2Utd2lkdGg9IjIuMDM5MjIiIHN0cm9rZS1taXRlcmxpbWl0PSIxMCIgZmlsbD0ibm9uZSIgdHJhbnNmb3JtPSJtYXRyaXgoMS4wMDcyNCAwIDAgMSAyODIuMDI3IDI3My4wMikiLz48cGF0aCBkPSJNNzkuNzUzNyA1OS4xNTc2IDEzOC4wNzUgMjAuMzEwNiIgc3Ryb2tlPSIjMDAwMEZGIiBzdHJva2Utd2lkdGg9IjIuMDM5MjIiIHN0cm9rZS1taXRlcmxpbWl0PSIxMCIgZmlsbD0ibm9uZSIgdHJhbnNmb3JtPSJtYXRyaXgoMS4wMDcyNCAwIDAgMSAyODIuMDI3IDI3My4wMikiLz48cGF0aCBkPSJNMjYzLjc3MyA1OC45NTM3IDMyMC4xNTcgMjAuMzkyMiIgc3Ryb2tlPSIjNjY2NjY2IiBzdHJva2Utd2lkdGg9IjIuMDM5MjIiIHN0cm9rZS1taXRlcmxpbWl0PSIxMCIgZmlsbD0ibm9uZSIgdHJhbnNmb3JtPSJtYXRyaXgoMS4wMDcyNCAwIDAgMSAyODIuMDI3IDI3My4wMikiLz48cGF0aCBkPSJNNTkwLjQ3NSA1OC40MjM1IDY0Ny41NzMgMjAuMzEwNiIgc3Ryb2tlPSIjRkYzMzMzIiBzdHJva2Utd2lkdGg9IjIuMDM5MjIiIHN0cm9rZS1taXRlcmxpbWl0PSIxMCIgZmlsbD0ibm9uZSIgdHJhbnNmb3JtPSJtYXRyaXgoMS4wMDcyNCAwIDAgMSAyODIuMDI3IDI3My4wMikiLz48cGF0aCBkPSJNNTU2LjQ0MSA4Mi40NjU5IDU4Mi45OTEgNjMuNjg0NyIgc3Ryb2tlPSIjMDAwMEZGIiBzdHJva2Utd2lkdGg9IjIuMDM5MjIiIHN0cm9rZS1taXRlcmxpbWl0PSIxMCIgZmlsbD0ibm9uZSIgdHJhbnNmb3JtPSJtYXRyaXgoMS4wMDcyNCAwIDAgMSAyODIuMDI3IDI3My4wMikiLz48cGF0aCBkPSJNMzE4Ljg3MiA3Ny45Nzk2IDQzMy45NDUgNzguNjczIiBzdHJva2U9IiMwMDAwRkYiIHN0cm9rZS13aWR0aD0iMi4wMzkyMiIgc3Ryb2tlLW1pdGVybGltaXQ9IjEwIiBmaWxsPSJub25lIiB0cmFuc2Zvcm09Im1hdHJpeCgxLjAwNzI0IDAgMCAxIDI4Mi4wMjcgMjczLjAyKSIvPjxwYXRoIGQ9Ik0yNTguMjY3IDU4LjQyMzVDMjY4Ljk5MyA1OC4xNTE2IDI3OC4xOTcgNjEuNDU1MiAyODUuODc4IDY4LjMzNDEgMjkzLjU0NSA3NS4yMjY3IDMwNS4wNTMgNzguNDI4MiAzMjAuNDAyIDc3LjkzODgiIHN0cm9rZT0iIzAwMDBGRiIgc3Ryb2tlLXdpZHRoPSIyLjAzOTIyIiBzdHJva2UtbWl0ZXJsaW1pdD0iMTAiIGZpbGw9Im5vbmUiIHRyYW5zZm9ybT0ibWF0cml4KDEuMDA3MjQgMCAwIDEgMjgyLjAyNyAyNzMuMDIpIi8+PHBhdGggZD0iTTQ2Ni4xODUgNTguODUxOCA1ODIuNDQxIDY0LjA3MjIiIHN0cm9rZT0iIzAwMDBGRiIgc3Ryb2tlLXdpZHRoPSIyLjAzOTIyIiBzdHJva2UtbWl0ZXJsaW1pdD0iMTAiIGZpbGw9Im5vbmUiIHRyYW5zZm9ybT0ibWF0cml4KDEuMDA3MjQgMCAwIDEgMjgyLjAyNyAyNzMuMDIpIi8+PHBhdGggZD0iTTQzMi40MTYgNzguNjczIDU1Ni45OTEgODMuMDc3NyIgc3Ryb2tlPSIjMDAwMEZGIiBzdHJva2Utd2lkdGg9IjIuMDM5MjIiIHN0cm9rZS1taXRlcmxpbWl0PSIxMCIgZmlsbD0ibm9uZSIgdHJhbnNmb3JtPSJtYXRyaXgoMS4wMDcyNCAwIDAgMSAyODIuMDI3IDI3My4wMikiLz48cGF0aCBkPSJNNTg5LjMzMyA1OS4xMzczIDY0Ny41NzMgMjAuMzEwNiIgc3Ryb2tlPSIjMDAwMEZGIiBzdHJva2Utd2lkdGg9IjIuMDM5MjIiIHN0cm9rZS1taXRlcmxpbWl0PSIxMCIgZmlsbD0ibm9uZSIgdHJhbnNmb3JtPSJtYXRyaXgoMS4wMDcyNCAwIDAgMSAyODIuMDI3IDI3My4wMikiLz48L2c+PC9nPjwvZz48cGF0aCBkPSJNMzYwLjUgMzMyLjUgNDIwLjkgMjkyLjUgNTQxLjUgMjkyLjg5MiA0ODQuNSAzMzIuMTA4IDM2MC41IDMzMi41WiIgc3Ryb2tlPSIjRkYwMDAwIiBzdHJva2Utd2lkdGg9IjEuMzMzMzMiIHN0cm9rZS1taXRlcmxpbWl0PSI4IiBmaWxsPSIjNkRGQzBDIiBmaWxsLXJ1bGU9ImV2ZW5vZGQiIGZpbGwtb3BhY2l0eT0iMC44MzEzNzMiLz48cGF0aCBkPSJNNDg1LjUgMzMyLjUgNTQ0LjAyMyAyOTIuNSA3MTQuNSAyOTIuODI3IDY1NC44NjkgMzMxLjcxNiA0ODUuNSAzMzIuNVoiIHN0cm9rZT0iI0ZGMDAwMCIgc3Ryb2tlLXdpZHRoPSIxLjMzMzMzIiBzdHJva2UtbWl0ZXJsaW1pdD0iOCIgZmlsbD0iIzBDRkNGMSIgZmlsbC1ydWxlPSJldmVub2RkIiBmaWxsLW9wYWNpdHk9IjAuODMxMzczIi8+PHBhdGggZD0iTTY1OC41IDMzMS41NTkgNzE3LjMwOSAyOTIuNSA5MzQuNSAyOTMuNTA4IDg3Ni42NjkgMzMyLjUgNjU4LjUgMzMxLjU1OVoiIHN0cm9rZT0iI0ZGMDAwMCIgc3Ryb2tlLXdpZHRoPSIxLjMzMzMzIiBzdHJva2UtbWl0ZXJsaW1pdD0iOCIgZmlsbD0iIzVGQkRFQiIgZmlsbC1ydWxlPSJldmVub2RkIiBmaWxsLW9wYWNpdHk9IjAuODMxMzczIi8+PHBhdGggZD0iTTU2MC44NDIgMzM1LjkzNUM1NTQuNzcyIDMzMi4xOTEgNTMzLjQ4NiAzMzIuOTc3IDU0OS4xMjkgMzMyLjVMNjU1LjUgMzMyLjY2OCA2MTkuODk0IDM1Mi41QzYwNi40NzggMzUyLjA1NSA1OTguOTM1IDM1Mi41NjYgNTkxLjY2MSAzNTEuNjA5IDU4NC4zODcgMzUwLjY1MyA1ODEuMzg4IDM0OS4zNzMgNTc2LjI1MiAzNDYuNzYxIDU3MS4xMTUgMzQ0LjE0OCA1NjYuOTEzIDMzOS42NzggNTYwLjg0MiAzMzUuOTM1WiIgc3Ryb2tlPSIjRkYwMDAwIiBzdHJva2Utd2lkdGg9IjEuMzMzMzMiIHN0cm9rZS1taXRlcmxpbWl0PSI4IiBmaWxsPSIjMENGQ0YxIiBmaWxsLXJ1bGU9ImV2ZW5vZGQiIGZpbGwtb3BhY2l0eT0iMC44MzEzNzMiLz48cGF0aCBkPSJNNjIyLjUgMzUxLjgwMSA2NTYuNjUyIDMzMy43MjZDNjg0LjQ0MyAzMzEuMjAyIDc0MC4zODEgMzMzLjI0NyA3NzUuODU1IDMzMy45MzggODExLjMzIDMzNC42MyA4MTcuMDMgMzM1LjY2NiA4NjkuNSAzMzcuODc2TDg0Mi45MDkgMzU2LjVDNzg0LjQwNiAzNTQuMzI4IDc3NC44MjYgMzUzLjcxNSA3MzguMDkxIDM1Mi45MzIgNzAxLjM1NiAzNTIuMTQ5IDYzOC40MzggMzUxLjU3NyA2MjIuNSAzNTEuODAxWiIgc3Ryb2tlPSIjRkYwMDAwIiBzdHJva2Utd2lkdGg9IjEuMzMzMzMiIHN0cm9rZS1taXRlcmxpbWl0PSI4IiBmaWxsPSIjNUZCREVCIiBmaWxsLXJ1bGU9ImV2ZW5vZGQiIGZpbGwtb3BhY2l0eT0iMC44MzEzNzMiLz48cGF0aCBkPSJNNTg5LjEwOCAzMzcuODk1QzU3Mi4yNjkgMzM3LjM5OCA1NTUuOTMzIDMzMy45MjQgNTQ5LjMyMyAzMzEuNzIgNTQyLjcxNCAzMjkuNTE2IDU2My4xOTggMzMyLjE2NSA1NTkuNjkgMzI1LjI4Nkw2NjYgMzIzIDY1MC4zNTYgMzM0LjcwM0M2MzcuMTA2IDMzNy4wODQgNjA1Ljk0NyAzMzguMzkzIDU4OS4xMDggMzM3Ljg5NVoiIGZpbGw9IiMwQ0ZDRjEiIGZpbGwtcnVsZT0iZXZlbm9kZCIgZmlsbC1vcGFjaXR5PSIwLjgzMTM3MyIvPjwvZz48L3N2Zz4=;" vertex="1" parent="WIyWlLk6GJQsqaUBKTNV-1">
          <mxGeometry x="221" y="56.24" width="342.9127" height="54.76" as="geometry" />
        </mxCell>
        <mxCell id="hoXgWQwnw69QvBTEGAqw-338" value="" style="line;strokeWidth=1;direction=south;rounded=1;shadow=0;labelBackgroundColor=none;sketch=0;fontFamily=Helvetica;fontSize=13;align=center;dashed=1;dashPattern=1 2;fillColor=none;strokeColor=#66FFFF;" parent="WIyWlLk6GJQsqaUBKTNV-1" vertex="1">
          <mxGeometry x="265.76" y="67" width="10" height="335.58" as="geometry" />
        </mxCell>
        <mxCell id="hoXgWQwnw69QvBTEGAqw-325" value="" style="line;strokeWidth=1;direction=south;rounded=1;shadow=0;labelBackgroundColor=none;sketch=0;fontFamily=Helvetica;fontSize=13;align=center;dashed=1;dashPattern=1 2;fillColor=none;strokeColor=#66FFFF;" parent="WIyWlLk6GJQsqaUBKTNV-1" vertex="1">
          <mxGeometry x="515.7" y="62.99" width="10" height="338.72" as="geometry" />
        </mxCell>
        <mxCell id="hoXgWQwnw69QvBTEGAqw-333" value="" style="line;strokeWidth=1;direction=south;rounded=1;shadow=0;labelBackgroundColor=none;sketch=0;fontFamily=Helvetica;fontSize=13;align=center;dashed=1;dashPattern=1 2;fillColor=none;strokeColor=#66FFFF;" parent="WIyWlLk6GJQsqaUBKTNV-1" vertex="1">
          <mxGeometry x="488.76" y="84" width="10" height="341.58" as="geometry" />
        </mxCell>
        <mxCell id="pe5jAlc8CFaI90LEwmLQ-0" value="Friction Cluster" style="text;resizable=0;autosize=1;align=center;verticalAlign=middle;points=[];fontFamily=Times New Roman;labelBorderColor=none;rounded=1;fontSize=12;strokeColor=#000000;fillColor=#ffffff;" vertex="1" parent="WIyWlLk6GJQsqaUBKTNV-1">
          <mxGeometry x="140.19800000000004" y="72.868" width="86.61399999999999" height="23.622" as="geometry" />
        </mxCell>
      </root>
    </mxGraphModel>
  </diagram>
  <diagram id="vUIFCoJleNVR2Ia5tVEO" name="Page-2">
    <mxGraphModel dx="1038" dy="529" grid="1" gridSize="10" guides="1" tooltips="1" connect="1" arrows="1" fold="1" page="1" pageScale="1" pageWidth="850" pageHeight="1100" math="0" shadow="0">
      <root>
        <mxCell id="_8ZywvxrIPTCkmthEq2a-0" />
        <mxCell id="_8ZywvxrIPTCkmthEq2a-1" parent="_8ZywvxrIPTCkmthEq2a-0" />
        <mxCell id="_8ZywvxrIPTCkmthEq2a-2" value="" style="shape=parallelogram;perimeter=parallelogramPerimeter;whiteSpace=wrap;fixedSize=1;fillColor=#cdeb8b;fontFamily=Times New Roman;size=86.05630602959147;labelBorderColor=none;strokeColor=#36393d;rounded=1;" parent="_8ZywvxrIPTCkmthEq2a-1" vertex="1">
          <mxGeometry x="180.00448635936027" y="340.0001159082254" width="341.10131796801505" height="75.73819735338918" as="geometry" />
        </mxCell>
        <mxCell id="_8ZywvxrIPTCkmthEq2a-3" value="" style="shape=parallelogram;perimeter=parallelogramPerimeter;whiteSpace=wrap;fixedSize=1;fontFamily=Times New Roman;size=58.28668294270827;labelBorderColor=none;fontColor=#ffffff;fillColor=#808080;strokeColor=none;" parent="_8ZywvxrIPTCkmthEq2a-1" vertex="1">
          <mxGeometry x="192.10533397125013" y="351.5998398229246" width="316.69871269933407" height="51.80876689832449" as="geometry" />
        </mxCell>
        <mxCell id="_8ZywvxrIPTCkmthEq2a-4" value="" style="endArrow=none;exitX=0.14;exitY=0.207;exitDx=0;exitDy=0;exitPerimeter=0;entryX=0.962;entryY=0.209;entryDx=0;entryDy=0;entryPerimeter=0;strokeWidth=3;fillColor=#ffff88;strokeColor=#FF9933;" parent="_8ZywvxrIPTCkmthEq2a-1" edge="1">
          <mxGeometry width="50" height="50" relative="1" as="geometry">
            <mxPoint x="251.09" y="352.29382330540744" as="sourcePoint" />
            <mxPoint x="507.8033584195672" y="352.4138204493525" as="targetPoint" />
            <Array as="points" />
          </mxGeometry>
        </mxCell>
        <mxCell id="_8ZywvxrIPTCkmthEq2a-5" value="" style="endArrow=none;exitX=0.14;exitY=0.207;exitDx=0;exitDy=0;exitPerimeter=0;entryX=0.962;entryY=0.209;entryDx=0;entryDy=0;entryPerimeter=0;strokeWidth=3;fillColor=#ffff88;strokeColor=#FFFFFF;dashed=1;rounded=1;" parent="_8ZywvxrIPTCkmthEq2a-1" edge="1">
          <mxGeometry width="50" height="50" relative="1" as="geometry">
            <mxPoint x="224.52076004078285" y="367.34746501332853" as="sourcePoint" />
            <mxPoint x="406.8575316819041" y="367.4674621572736" as="targetPoint" />
            <Array as="points" />
          </mxGeometry>
        </mxCell>
        <mxCell id="_8ZywvxrIPTCkmthEq2a-6" value="" style="endArrow=none;exitX=0.14;exitY=0.207;exitDx=0;exitDy=0;exitPerimeter=0;entryX=0.962;entryY=0.209;entryDx=0;entryDy=0;entryPerimeter=0;strokeWidth=3;fillColor=#ffff88;strokeColor=#FFFFFF;" parent="_8ZywvxrIPTCkmthEq2a-1" edge="1">
          <mxGeometry width="50" height="50" relative="1" as="geometry">
            <mxPoint x="211.07646207844422" y="382.40910653084535" as="sourcePoint" />
            <mxPoint x="302.3177826076611" y="382.40910653084535" as="targetPoint" />
            <Array as="points" />
          </mxGeometry>
        </mxCell>
        <mxCell id="_8ZywvxrIPTCkmthEq2a-7" value="" style="endArrow=none;exitX=0.14;exitY=0.207;exitDx=0;exitDy=0;exitPerimeter=0;strokeWidth=3;strokeColor=#FFFFFF;" parent="_8ZywvxrIPTCkmthEq2a-1" edge="1">
          <mxGeometry width="50" height="50" relative="1" as="geometry">
            <mxPoint x="334.73320867719383" y="398.84471534653477" as="sourcePoint" />
            <mxPoint x="395.5121325575677" y="399.408701923077" as="targetPoint" />
            <Array as="points" />
          </mxGeometry>
        </mxCell>
        <mxCell id="_8ZywvxrIPTCkmthEq2a-8" value="" style="endArrow=none;strokeColor=#FFFFFF;strokeWidth=3;curved=1;endFill=0;" parent="_8ZywvxrIPTCkmthEq2a-1" edge="1">
          <mxGeometry width="50" height="50" relative="1" as="geometry">
            <mxPoint x="302.3177826076611" y="382.40910653084535" as="sourcePoint" />
            <mxPoint x="335.5435943289323" y="398.80871620335125" as="targetPoint" />
            <Array as="points">
              <mxPoint x="311.2320247767827" y="382.4091065308454" />
              <mxPoint x="323.38780955285745" y="399.40870192307693" />
            </Array>
          </mxGeometry>
        </mxCell>
        <mxCell id="_8ZywvxrIPTCkmthEq2a-9" value="" style="endArrow=none;exitX=0.14;exitY=0.207;exitDx=0;exitDy=0;exitPerimeter=0;entryX=0.962;entryY=0.209;entryDx=0;entryDy=0;entryPerimeter=0;strokeWidth=3;fillColor=#ffff88;strokeColor=#FFFFFF;dashed=1;" parent="_8ZywvxrIPTCkmthEq2a-1" edge="1">
          <mxGeometry width="50" height="50" relative="1" as="geometry">
            <mxPoint x="311.5675244366024" y="383.09309025133285" as="sourcePoint" />
            <mxPoint x="395.5121325575677" y="383.09309025133285" as="targetPoint" />
            <Array as="points" />
          </mxGeometry>
        </mxCell>
        <mxCell id="_8ZywvxrIPTCkmthEq2a-10" value="" style="endArrow=none;exitX=0.14;exitY=0.207;exitDx=0;exitDy=0;exitPerimeter=0;entryX=0.962;entryY=0.209;entryDx=0;entryDy=0;entryPerimeter=0;strokeWidth=3;fillColor=#ffff88;strokeColor=#FFFFFF;" parent="_8ZywvxrIPTCkmthEq2a-1" edge="1">
          <mxGeometry width="50" height="50" relative="1" as="geometry">
            <mxPoint x="395.5121325575677" y="383.09309025133285" as="sourcePoint" />
            <mxPoint x="480.6026259900908" y="383.09309025133285" as="targetPoint" />
            <Array as="points" />
          </mxGeometry>
        </mxCell>
        <mxCell id="_8ZywvxrIPTCkmthEq2a-11" value="" style="endArrow=none;strokeWidth=3;fillColor=#ffff88;strokeColor=#FFFFFF;entryX=0.895;entryY=0.691;entryDx=0;entryDy=0;entryPerimeter=0;" parent="_8ZywvxrIPTCkmthEq2a-1" edge="1">
          <mxGeometry width="50" height="50" relative="1" as="geometry">
            <mxPoint x="413.3406168958105" y="383.1090898705257" as="sourcePoint" />
            <mxPoint x="474.7402961854158" y="387.3996977496668" as="targetPoint" />
            <Array as="points" />
          </mxGeometry>
        </mxCell>
        <mxCell id="_8ZywvxrIPTCkmthEq2a-12" value="" style="endArrow=none;strokeWidth=3;strokeColor=#FFFFFF;entryX=0.85;entryY=0.993;entryDx=0;entryDy=0;entryPerimeter=0;" parent="_8ZywvxrIPTCkmthEq2a-1" target="_8ZywvxrIPTCkmthEq2a-3" edge="1">
          <mxGeometry width="50" height="50" relative="1" as="geometry">
            <mxPoint x="395.5121325575677" y="399.408701923077" as="sourcePoint" />
            <mxPoint x="293.73727751980977" y="-61.23501081254752" as="targetPoint" />
            <Array as="points" />
          </mxGeometry>
        </mxCell>
        <mxCell id="_8ZywvxrIPTCkmthEq2a-13" value="" style="endArrow=blockThin;strokeColor=#FFFFFF;strokeWidth=1;endFill=1;startSize=2;endSize=2;" parent="_8ZywvxrIPTCkmthEq2a-1" edge="1">
          <mxGeometry width="50" height="50" relative="1" as="geometry">
            <mxPoint x="373.6317199606332" y="374.4092969345011" as="sourcePoint" />
            <mxPoint x="383.3563477814929" y="374.4092969345011" as="targetPoint" />
          </mxGeometry>
        </mxCell>
        <mxCell id="_8ZywvxrIPTCkmthEq2a-14" value="" style="endArrow=blockThin;strokeColor=#FFFFFF;strokeWidth=1;endFill=1;startSize=2;endSize=2;" parent="_8ZywvxrIPTCkmthEq2a-1" edge="1">
          <mxGeometry width="50" height="50" relative="1" as="geometry">
            <mxPoint x="389.73732440328047" y="359.28365694021323" as="sourcePoint" />
            <mxPoint x="399.4619522241402" y="359.28365694021323" as="targetPoint" />
          </mxGeometry>
        </mxCell>
        <mxCell id="_8ZywvxrIPTCkmthEq2a-15" value="" style="endArrow=blockThin;strokeColor=#FFFFFF;strokeWidth=1;endFill=1;startSize=2;endSize=2;" parent="_8ZywvxrIPTCkmthEq2a-1" edge="1">
          <mxGeometry width="50" height="50" relative="1" as="geometry">
            <mxPoint x="271.4210192494862" y="374.2832999333587" as="sourcePoint" />
            <mxPoint x="281.14564707034594" y="374.2832999333587" as="targetPoint" />
          </mxGeometry>
        </mxCell>
        <mxCell id="_8ZywvxrIPTCkmthEq2a-16" value="" style="endArrow=blockThin;strokeColor=#FFFFFF;strokeWidth=1;endFill=1;startSize=2;endSize=2;" parent="_8ZywvxrIPTCkmthEq2a-1" edge="1">
          <mxGeometry width="50" height="50" relative="1" as="geometry">
            <mxPoint x="285.09546673691864" y="359.1576599390708" as="sourcePoint" />
            <mxPoint x="294.82009455777836" y="359.1576599390708" as="targetPoint" />
          </mxGeometry>
        </mxCell>
        <mxCell id="_8ZywvxrIPTCkmthEq2a-17" value="" style="endArrow=none;exitX=0.14;exitY=0.207;exitDx=0;exitDy=0;exitPerimeter=0;entryX=0.962;entryY=0.209;entryDx=0;entryDy=0;entryPerimeter=0;strokeWidth=3;fillColor=#ffff88;strokeColor=#FFFFFF;" parent="_8ZywvxrIPTCkmthEq2a-1" edge="1">
          <mxGeometry width="50" height="50" relative="1" as="geometry">
            <mxPoint x="410.90945994059564" y="367.3474650133281" as="sourcePoint" />
            <mxPoint x="494.3791820696423" y="367.3474650133281" as="targetPoint" />
            <Array as="points" />
          </mxGeometry>
        </mxCell>
        <mxCell id="_8ZywvxrIPTCkmthEq2a-18" value="100" style="ellipse;whiteSpace=wrap;aspect=fixed;rounded=1;shadow=0;sketch=0;gradientColor=#ea6b66;fillColor=none;strokeColor=#FF0000;strokeWidth=1;fontSize=7;fontStyle=1;" parent="_8ZywvxrIPTCkmthEq2a-1" vertex="1">
          <mxGeometry x="465.08831777986825" y="340.87409510662604" width="12.537969865218011" height="12.537467025631425" as="geometry" />
        </mxCell>
        <mxCell id="_8ZywvxrIPTCkmthEq2a-19" value="" style="endArrow=none;strokeWidth=2;fontSize=7;rounded=0;strokeColor=#333333;exitX=0.183;exitY=0.956;exitDx=0;exitDy=0;exitPerimeter=0;" parent="_8ZywvxrIPTCkmthEq2a-1" edge="1">
          <mxGeometry width="50" height="50" relative="1" as="geometry">
            <mxPoint x="220.2552843678271" y="412.4058325780655" as="sourcePoint" />
            <mxPoint x="264.4129397930386" y="413.40836871667926" as="targetPoint" />
            <Array as="points">
              <mxPoint x="227.16609125117586" y="405.40855912033504" />
              <mxPoint x="258.20513170272807" y="405.40855912033504" />
            </Array>
          </mxGeometry>
        </mxCell>
        <mxCell id="_8ZywvxrIPTCkmthEq2a-20" value="" style="endArrow=none;strokeWidth=2;fontSize=7;rounded=0;strokeColor=#333333;" parent="_8ZywvxrIPTCkmthEq2a-1" edge="1">
          <mxGeometry width="50" height="50" relative="1" as="geometry">
            <mxPoint x="276.3731774223894" y="342.4080585967252" as="sourcePoint" />
            <mxPoint x="319.9076487300093" y="342.4080585967252" as="targetPoint" />
            <Array as="points">
              <mxPoint x="282.6891787394167" y="348.47991408035034" />
              <mxPoint x="313.72821919096896" y="348.47991408035034" />
            </Array>
          </mxGeometry>
        </mxCell>
        <mxCell id="_8ZywvxrIPTCkmthEq2a-21" value="Bridge" style="text;fontSize=10;labelBackgroundColor=none;" parent="_8ZywvxrIPTCkmthEq2a-1" vertex="1">
          <mxGeometry x="270.19906904985885" y="396.1347496191927" width="34.914486359360296" height="31.495250380807313" as="geometry" />
        </mxCell>
        <mxCell id="_8ZywvxrIPTCkmthEq2a-22" value="60" style="ellipse;whiteSpace=wrap;aspect=fixed;rounded=1;shadow=0;sketch=0;gradientColor=#ea6b66;fillColor=none;strokeColor=#FF0000;strokeWidth=1;fontSize=7;fontStyle=1;" parent="_8ZywvxrIPTCkmthEq2a-1" vertex="1">
          <mxGeometry x="404.35800000000006" y="401.9080000000001" width="12.99" height="12.992099999999999" as="geometry" />
        </mxCell>
        <mxCell id="O0aDFbNc3kcx66CxvnFq-0" value="" style="shape=parallelogram;perimeter=parallelogramPerimeter;whiteSpace=wrap;fixedSize=1;fontFamily=Times New Roman;size=70.00000000000023;labelBorderColor=none;rounded=1;fillColor=#E6FFE6;strokeColor=#45FFE0;" vertex="1" parent="_8ZywvxrIPTCkmthEq2a-1">
          <mxGeometry x="216.64399999999998" y="57.393999999999984" width="350.43" height="50" as="geometry" />
        </mxCell>
        <mxCell id="O0aDFbNc3kcx66CxvnFq-1" value="" style="endArrow=none;strokeWidth=1;strokeColor=#0000FF;" edge="1" parent="_8ZywvxrIPTCkmthEq2a-1">
          <mxGeometry x="257.11400000000003" y="66.24399999999994" width="50" height="50" as="geometry">
            <mxPoint x="284.66610020807684" y="67.05194240594517" as="sourcePoint" />
            <mxPoint x="535" y="67" as="targetPoint" />
          </mxGeometry>
        </mxCell>
        <mxCell id="O0aDFbNc3kcx66CxvnFq-2" value="" style="endArrow=none;strokeWidth=1;strokeColor=#0000FF;" edge="1" parent="_8ZywvxrIPTCkmthEq2a-1">
          <mxGeometry x="257.11400000000003" y="66.24399999999994" width="50" height="50" as="geometry">
            <mxPoint x="269.6468345263355" y="76.54591675496061" as="sourcePoint" />
            <mxPoint x="520" y="76" as="targetPoint" />
          </mxGeometry>
        </mxCell>
        <mxCell id="O0aDFbNc3kcx66CxvnFq-3" value="" style="endArrow=none;strokeWidth=1;strokeColor=#0000FF;" edge="1" parent="_8ZywvxrIPTCkmthEq2a-1">
          <mxGeometry x="257.11400000000003" y="66.24399999999994" width="50" height="50" as="geometry">
            <mxPoint x="256.11400000000003" y="85.9326414878833" as="sourcePoint" />
            <mxPoint x="349.67125009150163" y="85.9326414878833" as="targetPoint" />
          </mxGeometry>
        </mxCell>
        <mxCell id="O0aDFbNc3kcx66CxvnFq-4" value="" style="endArrow=none;strokeWidth=1;strokeColor=#0000FF;" edge="1" parent="_8ZywvxrIPTCkmthEq2a-1">
          <mxGeometry x="257.11400000000003" y="66.24399999999994" width="50" height="50" as="geometry">
            <mxPoint x="349.9167040286809" y="86.0482327407833" as="sourcePoint" />
            <mxPoint x="506" y="86" as="targetPoint" />
          </mxGeometry>
        </mxCell>
        <mxCell id="O0aDFbNc3kcx66CxvnFq-5" value="" style="endArrow=none;exitX=0.14;exitY=0.207;exitDx=0;exitDy=0;exitPerimeter=0;strokeWidth=1;strokeColor=#0000FF;" edge="1" parent="_8ZywvxrIPTCkmthEq2a-1">
          <mxGeometry x="257.11400000000003" y="66.24399999999994" width="50" height="50" as="geometry">
            <mxPoint x="373.36604571446446" y="95.24071650233788" as="sourcePoint" />
            <mxPoint x="429.8033933312338" y="95.57676529942853" as="targetPoint" />
            <Array as="points" />
          </mxGeometry>
        </mxCell>
        <mxCell id="O0aDFbNc3kcx66CxvnFq-6" value="" style="endArrow=none;strokeColor=#0000FF;strokeWidth=1;curved=1;" edge="1" parent="_8ZywvxrIPTCkmthEq2a-1">
          <mxGeometry x="257.11400000000003" y="66.24399999999994" width="50" height="50" as="geometry">
            <mxPoint x="343.6460429982267" y="85.6541254064096" as="sourcePoint" />
            <mxPoint x="374.1185436826879" y="95.21926657911911" as="targetPoint" />
            <Array as="points">
              <mxPoint x="351.54360463598033" y="85.44763489066347" />
              <mxPoint x="362.8310741593342" y="95.5767652994285" />
            </Array>
          </mxGeometry>
        </mxCell>
        <mxCell id="O0aDFbNc3kcx66CxvnFq-7" value="" style="endArrow=none;strokeWidth=1;strokeColor=#0000FF;entryX=0.895;entryY=0.691;entryDx=0;entryDy=0;entryPerimeter=0;" edge="1" parent="_8ZywvxrIPTCkmthEq2a-1">
          <mxGeometry x="257.11400000000003" y="66.24399999999994" width="50" height="50" as="geometry">
            <mxPoint x="445.6058506639291" y="85.86471673102437" as="sourcePoint" />
            <mxPoint x="502.6196117243578" y="88.42125562138864" as="targetPoint" />
            <Array as="points" />
          </mxGeometry>
        </mxCell>
        <mxCell id="O0aDFbNc3kcx66CxvnFq-8" value="" style="endArrow=none;strokeWidth=1;strokeColor=#0000FF;entryX=0.85;entryY=0.993;entryDx=0;entryDy=0;entryPerimeter=0;" edge="1" parent="_8ZywvxrIPTCkmthEq2a-1">
          <mxGeometry x="257.11400000000003" y="66.24399999999994" width="50" height="50" as="geometry">
            <mxPoint x="429.0508953630101" y="95.57676529942853" as="sourcePoint" />
            <mxPoint x="490.1386804234012" y="97.74399999999991" as="targetPoint" />
            <Array as="points" />
          </mxGeometry>
        </mxCell>
        <mxCell id="O0aDFbNc3kcx66CxvnFq-9" value="" style="endArrow=none;strokeWidth=1;strokeColor=#0000FF;" edge="1" parent="_8ZywvxrIPTCkmthEq2a-1">
          <mxGeometry x="257.11400000000003" y="66.24399999999994" width="50" height="50" as="geometry">
            <mxPoint x="256.11097931180143" y="86.01118564197805" as="sourcePoint" />
            <mxPoint x="284.7059021042978" y="66.95928100325125" as="targetPoint" />
          </mxGeometry>
        </mxCell>
        <mxCell id="O0aDFbNc3kcx66CxvnFq-10" value="" style="endArrow=none;strokeWidth=1;strokeColor=#666666;" edge="1" parent="_8ZywvxrIPTCkmthEq2a-1">
          <mxGeometry x="257.11400000000003" y="66.24399999999994" width="50" height="50" as="geometry">
            <mxPoint x="346.3452372186275" y="85.90968089430191" as="sourcePoint" />
            <mxPoint x="374" y="67" as="targetPoint" />
          </mxGeometry>
        </mxCell>
        <mxCell id="O0aDFbNc3kcx66CxvnFq-11" value="" style="endArrow=none;strokeWidth=1;fontFamily=Times New Roman;fontSize=10;fontColor=#000000;strokeColor=#FF3333;" edge="1" parent="_8ZywvxrIPTCkmthEq2a-1">
          <mxGeometry x="257.11400000000003" y="66.24399999999994" width="50" height="50" as="geometry">
            <mxPoint x="506.56430035282824" y="85.6541254064096" as="sourcePoint" />
            <mxPoint x="534.5640008557061" y="66.95928100325125" as="targetPoint" />
          </mxGeometry>
        </mxCell>
        <mxCell id="O0aDFbNc3kcx66CxvnFq-12" value="" style="endArrow=none;strokeWidth=1;strokeColor=#0000FF;" edge="1" parent="_8ZywvxrIPTCkmthEq2a-1">
          <mxGeometry x="513.2280000000001" y="122.4879999999999" width="50" height="50" as="geometry">
            <mxPoint x="489.8714738449129" y="97.43933363224022" as="sourcePoint" />
            <mxPoint x="502.88818369924445" y="88.23254992187339" as="targetPoint" />
          </mxGeometry>
        </mxCell>
        <mxCell id="O0aDFbNc3kcx66CxvnFq-13" value="" style="endArrow=none;exitX=0.14;exitY=0.207;exitDx=0;exitDy=0;exitPerimeter=0;strokeWidth=1;strokeColor=#0000FF;" edge="1" parent="_8ZywvxrIPTCkmthEq2a-1">
          <mxGeometry x="512.2280000000001" y="122.4879999999999" width="50" height="50" as="geometry">
            <mxPoint x="373.36604571446446" y="95.24071650233788" as="sourcePoint" />
            <mxPoint x="429.8033933312338" y="95.57676529942853" as="targetPoint" />
            <Array as="points" />
          </mxGeometry>
        </mxCell>
        <mxCell id="O0aDFbNc3kcx66CxvnFq-14" value="" style="endArrow=none;strokeColor=#0000FF;strokeWidth=1;curved=1;" edge="1" parent="_8ZywvxrIPTCkmthEq2a-1">
          <mxGeometry x="512.2280000000001" y="122.4879999999999" width="50" height="50" as="geometry">
            <mxPoint x="343.6460429982267" y="85.6541254064096" as="sourcePoint" />
            <mxPoint x="374.1185436826879" y="95.21926657911911" as="targetPoint" />
            <Array as="points">
              <mxPoint x="351.54360463598033" y="85.44763489066347" />
              <mxPoint x="362.8310741593342" y="95.5767652994285" />
            </Array>
          </mxGeometry>
        </mxCell>
        <mxCell id="O0aDFbNc3kcx66CxvnFq-15" value="" style="endArrow=none;strokeWidth=1;strokeColor=#0000FF;entryX=0.895;entryY=0.691;entryDx=0;entryDy=0;entryPerimeter=0;" edge="1" parent="_8ZywvxrIPTCkmthEq2a-1">
          <mxGeometry x="512.2280000000001" y="122.4879999999999" width="50" height="50" as="geometry">
            <mxPoint x="445.6058506639291" y="85.86471673102437" as="sourcePoint" />
            <mxPoint x="502.6196117243578" y="88.42125562138864" as="targetPoint" />
            <Array as="points" />
          </mxGeometry>
        </mxCell>
        <mxCell id="O0aDFbNc3kcx66CxvnFq-16" value="" style="endArrow=none;strokeWidth=1;strokeColor=#0000FF;entryX=0.85;entryY=0.993;entryDx=0;entryDy=0;entryPerimeter=0;" edge="1" parent="_8ZywvxrIPTCkmthEq2a-1">
          <mxGeometry x="512.2280000000001" y="122.4879999999999" width="50" height="50" as="geometry">
            <mxPoint x="429.0508953630101" y="95.57676529942853" as="sourcePoint" />
            <mxPoint x="490.1386804234012" y="97.74399999999991" as="targetPoint" />
            <Array as="points" />
          </mxGeometry>
        </mxCell>
        <mxCell id="O0aDFbNc3kcx66CxvnFq-17" value="" style="endArrow=none;strokeWidth=1;fontFamily=Times New Roman;fontSize=10;fontColor=#000000;strokeColor=#0000FF;" edge="1" parent="_8ZywvxrIPTCkmthEq2a-1">
          <mxGeometry x="512.2280000000001" y="122.4879999999999" width="50" height="50" as="geometry">
            <mxPoint x="506" y="86" as="sourcePoint" />
            <mxPoint x="534.5640008557061" y="66.95928100325125" as="targetPoint" />
          </mxGeometry>
        </mxCell>
      </root>
    </mxGraphModel>
  </diagram>
  <diagram id="_H0bkhjwdJwJhXYefiIU" name="Page-3">
    <mxGraphModel dx="1221" dy="622" grid="1" gridSize="10" guides="1" tooltips="1" connect="1" arrows="1" fold="1" page="1" pageScale="1" pageWidth="850" pageHeight="1100" math="0" shadow="0">
      <root>
        <mxCell id="jkVytR9ZvrFqueL40Aw5-0" />
        <mxCell id="jkVytR9ZvrFqueL40Aw5-1" parent="jkVytR9ZvrFqueL40Aw5-0" />
        <mxCell id="cJ0H96bqyWIBJjGTdwJW-0" value="" style="shape=cylinder3;whiteSpace=wrap;boundedLbl=1;backgroundOutline=1;size=18.724116884428952;labelBorderColor=none;shadow=0;sketch=0;fillColor=#B5FFF5;" vertex="1" parent="jkVytR9ZvrFqueL40Aw5-1">
          <mxGeometry x="132" y="196.85999999999999" width="115.51" height="251.96" as="geometry" />
        </mxCell>
        <mxCell id="cJ0H96bqyWIBJjGTdwJW-1" value="Static Layer" style="text;resizable=0;autosize=1;align=center;verticalAlign=middle;points=[];fillColor=none;strokeColor=none;fontFamily=Times New Roman;labelBorderColor=none;fontStyle=1;" vertex="1" parent="jkVytR9ZvrFqueL40Aw5-1">
          <mxGeometry x="153.51" y="202.73" width="78.74" height="23.622" as="geometry" />
        </mxCell>
        <mxCell id="cJ0H96bqyWIBJjGTdwJW-2" value="" style="shape=parallelogram;perimeter=parallelogramPerimeter;whiteSpace=wrap;fixedSize=1;fontFamily=Times New Roman;size=72.23199999999997;labelBorderColor=none;rounded=1;fillColor=#F9F9F9;strokeColor=#A9D1F9;" vertex="1" parent="jkVytR9ZvrFqueL40Aw5-1">
          <mxGeometry x="220.37" y="220.48" width="347.82" height="61.38" as="geometry" />
        </mxCell>
        <mxCell id="cJ0H96bqyWIBJjGTdwJW-3" value="" style="shape=parallelogram;perimeter=parallelogramPerimeter;whiteSpace=wrap;fixedSize=1;fontFamily=Times New Roman;size=79.84199999999998;labelBorderColor=none;fillColor=#FFFEE0;strokeColor=#FFE599;rounded=1;arcSize=41;" vertex="1" parent="jkVytR9ZvrFqueL40Aw5-1">
          <mxGeometry x="212.76" y="290.51" width="505.04" height="73" as="geometry" />
        </mxCell>
        <mxCell id="cJ0H96bqyWIBJjGTdwJW-4" value="" style="shape=cylinder3;whiteSpace=wrap;boundedLbl=1;backgroundOutline=1;size=16.200003487723222;fillColor=#B5FFF5;labelBorderColor=none;shadow=0;sketch=0;" vertex="1" parent="jkVytR9ZvrFqueL40Aw5-1">
          <mxGeometry x="135.12" y="133.85999999999999" width="110.24" height="58.65" as="geometry" />
        </mxCell>
        <mxCell id="cJ0H96bqyWIBJjGTdwJW-5" value="Dynamic Layer" style="text;resizable=0;autosize=1;align=center;verticalAlign=middle;points=[];fillColor=none;strokeColor=none;fontFamily=Times New Roman;labelBorderColor=none;fontStyle=1;" vertex="1" parent="jkVytR9ZvrFqueL40Aw5-1">
          <mxGeometry x="140.07" y="138.2" width="94.488" height="23.622" as="geometry" />
        </mxCell>
        <mxCell id="cJ0H96bqyWIBJjGTdwJW-6" value="" style="shape=parallelogram;perimeter=parallelogramPerimeter;whiteSpace=wrap;fixedSize=1;fontFamily=Times New Roman;size=70.00000000000023;labelBorderColor=none;rounded=1;fillColor=#E6FFE6;strokeColor=#45FFE0;" vertex="1" parent="jkVytR9ZvrFqueL40Aw5-1">
          <mxGeometry x="217.76" y="134.01" width="350.43" height="50" as="geometry" />
        </mxCell>
        <mxCell id="cJ0H96bqyWIBJjGTdwJW-7" value="Section Level" style="text;resizable=0;autosize=1;align=center;verticalAlign=top;points=[];fontFamily=Times New Roman;labelBorderColor=none;rounded=1;fontSize=13;labelBackgroundColor=none;fillColor=#ffffff;strokeColor=#000000;" vertex="1" parent="jkVytR9ZvrFqueL40Aw5-1">
          <mxGeometry x="144.26000000000005" y="377.96" width="86.61399999999999" height="31.496" as="geometry" />
        </mxCell>
        <mxCell id="cJ0H96bqyWIBJjGTdwJW-8" value="LaneÂ  Level" style="text;resizable=0;autosize=1;align=center;verticalAlign=top;points=[];fontFamily=Times New Roman;labelBorderColor=none;rounded=1;fontSize=13;strokeColor=#000000;fillColor=#ffffff;" vertex="1" parent="jkVytR9ZvrFqueL40Aw5-1">
          <mxGeometry x="144.26" y="304.76" width="70.866" height="31.496" as="geometry" />
        </mxCell>
        <mxCell id="cJ0H96bqyWIBJjGTdwJW-9" value="Object Level" style="text;resizable=0;autosize=1;align=center;verticalAlign=top;points=[];fontFamily=Times New Roman;labelBorderColor=none;rounded=1;fontSize=13;strokeColor=#000000;fillColor=#ffffff;" vertex="1" parent="jkVytR9ZvrFqueL40Aw5-1">
          <mxGeometry x="144.26000000000005" y="238.31" width="78.74" height="31.496" as="geometry" />
        </mxCell>
        <mxCell id="cJ0H96bqyWIBJjGTdwJW-10" value="100" style="ellipse;whiteSpace=wrap;aspect=fixed;rounded=1;shadow=0;sketch=0;gradientColor=#ea6b66;fillColor=none;strokeColor=#FF0000;strokeWidth=2;fontSize=9;fontStyle=1;" vertex="1" parent="jkVytR9ZvrFqueL40Aw5-1">
          <mxGeometry x="492.7" y="227.51" width="16.93" height="16.9291" as="geometry" />
        </mxCell>
        <mxCell id="cJ0H96bqyWIBJjGTdwJW-11" value="60" style="ellipse;whiteSpace=wrap;aspect=fixed;rounded=1;shadow=0;sketch=0;gradientColor=#ea6b66;fillColor=none;strokeColor=#FF0000;strokeWidth=2;fontSize=9;fontStyle=1;" vertex="1" parent="jkVytR9ZvrFqueL40Aw5-1">
          <mxGeometry x="456.76" y="265.51" width="14.96" height="14.9606" as="geometry" />
        </mxCell>
        <mxCell id="cJ0H96bqyWIBJjGTdwJW-12" value="" style="group;strokeWidth=1;dashed=1;dashPattern=1 1;" vertex="1" connectable="0" parent="jkVytR9ZvrFqueL40Aw5-1">
          <mxGeometry x="254.23" y="312.96999999999997" width="265.7475" height="37.76" as="geometry" />
        </mxCell>
        <mxCell id="cJ0H96bqyWIBJjGTdwJW-13" value="" style="group;" vertex="1" connectable="0" parent="cJ0H96bqyWIBJjGTdwJW-12">
          <mxGeometry width="265.7475" height="37.76" as="geometry" />
        </mxCell>
        <mxCell id="cJ0H96bqyWIBJjGTdwJW-14" value="" style="endArrow=none;dashed=1;strokeWidth=1;strokeColor=#666666;dashPattern=1 1;" edge="1" parent="cJ0H96bqyWIBJjGTdwJW-13">
          <mxGeometry width="50" height="50" relative="1" as="geometry">
            <mxPoint x="161.0257526122044" y="34.21109880098209" as="sourcePoint" />
            <mxPoint x="199.62178623814248" y="0.13194767054161166" as="targetPoint" />
          </mxGeometry>
        </mxCell>
        <mxCell id="cJ0H96bqyWIBJjGTdwJW-15" value="" style="endArrow=none;dashed=1;strokeWidth=2;strokeColor=#0000FF;dashPattern=1 1;" edge="1" parent="cJ0H96bqyWIBJjGTdwJW-13">
          <mxGeometry width="50" height="50" relative="1" as="geometry">
            <mxPoint x="29.555426334418705" as="sourcePoint" />
            <mxPoint x="122.11366645901171" as="targetPoint" />
          </mxGeometry>
        </mxCell>
        <mxCell id="cJ0H96bqyWIBJjGTdwJW-16" value="" style="endArrow=none;dashed=1;strokeWidth=2;strokeColor=#0000FF;dashPattern=1 1;" edge="1" parent="cJ0H96bqyWIBJjGTdwJW-13">
          <mxGeometry width="50" height="50" relative="1" as="geometry">
            <mxPoint x="16.76583406484486" y="11.680301013388771" as="sourcePoint" />
            <mxPoint x="109.3240741894379" y="11.680301013388771" as="targetPoint" />
          </mxGeometry>
        </mxCell>
        <mxCell id="cJ0H96bqyWIBJjGTdwJW-17" value="" style="endArrow=none;dashed=1;strokeWidth=2;strokeColor=#0000FF;dashPattern=1 1;" edge="1" parent="cJ0H96bqyWIBJjGTdwJW-13">
          <mxGeometry width="50" height="50" relative="1" as="geometry">
            <mxPoint x="0.0030100240689785018" y="23.22865435623589" as="sourcePoint" />
            <mxPoint x="92.56125014866194" y="23.22865435623589" as="targetPoint" />
          </mxGeometry>
        </mxCell>
        <mxCell id="cJ0H96bqyWIBJjGTdwJW-18" value="" style="endArrow=none;dashed=1;strokeWidth=2;strokeColor=#0000FF;dashPattern=1 1;" edge="1" parent="cJ0H96bqyWIBJjGTdwJW-13">
          <mxGeometry width="50" height="50" relative="1" as="geometry">
            <mxPoint x="124.35914441455463" y="0.14221026713938284" as="sourcePoint" />
            <mxPoint x="198.1167742035962" y="0.14221026713938284" as="targetPoint" />
          </mxGeometry>
        </mxCell>
        <mxCell id="cJ0H96bqyWIBJjGTdwJW-19" value="" style="endArrow=none;dashed=1;strokeWidth=2;strokeColor=#0000FF;dashPattern=1 1;" edge="1" parent="cJ0H96bqyWIBJjGTdwJW-13">
          <mxGeometry width="50" height="50" relative="1" as="geometry">
            <mxPoint x="111.56955214498088" y="11.822511280528113" as="sourcePoint" />
            <mxPoint x="186.07667792722643" y="11.822511280528113" as="targetPoint" />
          </mxGeometry>
        </mxCell>
        <mxCell id="cJ0H96bqyWIBJjGTdwJW-20" value="" style="endArrow=none;dashed=1;strokeWidth=2;strokeColor=#0000FF;dashPattern=1 1;" edge="1" parent="cJ0H96bqyWIBJjGTdwJW-13">
          <mxGeometry width="50" height="50" relative="1" as="geometry">
            <mxPoint x="94.80672810420496" y="23.37086462337523" as="sourcePoint" />
            <mxPoint x="172.53156961631038" y="23.37086462337523" as="targetPoint" />
          </mxGeometry>
        </mxCell>
        <mxCell id="cJ0H96bqyWIBJjGTdwJW-21" value="" style="endArrow=none;exitX=0.14;exitY=0.207;exitDx=0;exitDy=0;exitPerimeter=0;strokeWidth=2;strokeColor=#0000FF;dashed=1;dashPattern=1 1;" edge="1" parent="cJ0H96bqyWIBJjGTdwJW-13">
          <mxGeometry width="50" height="50" relative="1" as="geometry">
            <mxPoint x="118.25632061446971" y="34.68024607401916" as="sourcePoint" />
            <mxPoint x="174.6942719099533" y="35.09368210838267" as="targetPoint" />
            <Array as="points" />
          </mxGeometry>
        </mxCell>
        <mxCell id="cJ0H96bqyWIBJjGTdwJW-22" value="" style="endArrow=none;strokeColor=#0000FF;strokeWidth=2;curved=1;dashed=1;dashPattern=1 1;" edge="1" parent="cJ0H96bqyWIBJjGTdwJW-13">
          <mxGeometry width="50" height="50" relative="1" as="geometry">
            <mxPoint x="88.15607992354519" y="22.631957668342036" as="sourcePoint" />
            <mxPoint x="119.0088266317428" y="34.65385653991063" as="targetPoint" />
            <Array as="points">
              <mxPoint x="96.43364611354944" y="22.631957668342036" />
              <mxPoint x="107.72123637264613" y="35.09368210838267" />
            </Array>
          </mxGeometry>
        </mxCell>
        <mxCell id="cJ0H96bqyWIBJjGTdwJW-23" value="" style="endArrow=none;exitX=0.14;exitY=0.207;exitDx=0;exitDy=0;exitPerimeter=0;entryX=0.962;entryY=0.209;entryDx=0;entryDy=0;entryPerimeter=0;strokeWidth=2;strokeColor=#0000FF;dashed=1;dashPattern=1 1;" edge="1" parent="cJ0H96bqyWIBJjGTdwJW-13">
          <mxGeometry width="50" height="50" relative="1" as="geometry">
            <mxPoint x="173.9417658926802" y="23.133358816400122" as="sourcePoint" />
            <mxPoint x="252.95489770635697" y="23.133358816400122" as="targetPoint" />
            <Array as="points" />
          </mxGeometry>
        </mxCell>
        <mxCell id="cJ0H96bqyWIBJjGTdwJW-24" value="" style="endArrow=none;strokeWidth=2;strokeColor=#0000FF;entryX=0.895;entryY=0.691;entryDx=0;entryDy=0;entryPerimeter=0;dashed=1;dashPattern=1 1;" edge="1" parent="cJ0H96bqyWIBJjGTdwJW-13">
          <mxGeometry width="50" height="50" relative="1" as="geometry">
            <mxPoint x="190.49689827268864" y="23.145087498226097" as="sourcePoint" />
            <mxPoint x="247.51126917740362" y="26.290360773057078" as="targetPoint" />
            <Array as="points" />
          </mxGeometry>
        </mxCell>
        <mxCell id="cJ0H96bqyWIBJjGTdwJW-25" value="" style="endArrow=none;strokeWidth=2;strokeColor=#0000FF;entryX=0.85;entryY=0.993;entryDx=0;entryDy=0;entryPerimeter=0;dashed=1;dashPattern=1 1;" edge="1" parent="cJ0H96bqyWIBJjGTdwJW-13">
          <mxGeometry width="50" height="50" relative="1" as="geometry">
            <mxPoint x="173.9417658926802" y="35.09368210838267" as="sourcePoint" />
            <mxPoint x="235.03020437491153" y="37.76" as="targetPoint" />
            <Array as="points" />
          </mxGeometry>
        </mxCell>
        <mxCell id="cJ0H96bqyWIBJjGTdwJW-26" value="" style="endArrow=none;exitX=0.14;exitY=0.207;exitDx=0;exitDy=0;exitPerimeter=0;entryX=0.962;entryY=0.209;entryDx=0;entryDy=0;entryPerimeter=0;strokeWidth=2;strokeColor=#0000FF;dashed=1;dashPattern=1 1;" edge="1" parent="cJ0H96bqyWIBJjGTdwJW-13">
          <mxGeometry width="50" height="50" relative="1" as="geometry">
            <mxPoint x="188.23938022086935" y="11.590869814466034" as="sourcePoint" />
            <mxPoint x="265.7475" y="11.590869814466034" as="targetPoint" />
            <Array as="points" />
          </mxGeometry>
        </mxCell>
        <mxCell id="cJ0H96bqyWIBJjGTdwJW-27" value="" style="endArrow=none;dashed=1;strokeWidth=1;strokeColor=#666666;dashPattern=1 1;" edge="1" parent="cJ0H96bqyWIBJjGTdwJW-13">
          <mxGeometry width="50" height="50" relative="1" as="geometry">
            <mxPoint x="94.80522309217041" y="24.19040626596122" as="sourcePoint" />
            <mxPoint x="123.40045174854872" as="targetPoint" />
          </mxGeometry>
        </mxCell>
        <mxCell id="cJ0H96bqyWIBJjGTdwJW-28" value="" style="endArrow=none;exitX=0.14;exitY=0.207;exitDx=0;exitDy=0;exitPerimeter=0;entryX=0.962;entryY=0.209;entryDx=0;entryDy=0;entryPerimeter=0;strokeWidth=2;strokeColor=#0000FF;dashed=1;dashPattern=1 1;" edge="1" parent="cJ0H96bqyWIBJjGTdwJW-13">
          <mxGeometry width="50" height="50" relative="1" as="geometry">
            <mxPoint x="201.4563959082543" y="-0.002932170456494149" as="sourcePoint" />
            <mxPoint x="278.9645156873852" y="-0.002932170456494149" as="targetPoint" />
            <Array as="points" />
          </mxGeometry>
        </mxCell>
        <mxCell id="cJ0H96bqyWIBJjGTdwJW-29" value="" style="endArrow=none;dashed=1;strokeWidth=1;strokeColor=#666666;dashPattern=1 1;" edge="1" parent="cJ0H96bqyWIBJjGTdwJW-13">
          <mxGeometry width="50" height="50" relative="1" as="geometry">
            <mxPoint x="251.07062263910518" y="23.45736365184118" as="sourcePoint" />
            <mxPoint x="277.86284687809723" y="-0.7301104436634593" as="targetPoint" />
          </mxGeometry>
        </mxCell>
        <mxCell id="cJ0H96bqyWIBJjGTdwJW-30" value="" style="endArrow=none;dashed=1;strokeWidth=1;strokeColor=#666666;dashPattern=1 1;" edge="1" parent="cJ0H96bqyWIBJjGTdwJW-13">
          <mxGeometry width="50" height="50" relative="1" as="geometry">
            <mxPoint x="2.842170943040401e-14" y="24.195286106959372" as="sourcePoint" />
            <mxPoint x="28.595228656378396" y="0.004879840998057716" as="targetPoint" />
          </mxGeometry>
        </mxCell>
        <mxCell id="cJ0H96bqyWIBJjGTdwJW-31" value="" style="endArrow=none;dashed=1;strokeWidth=1;strokeColor=#666666;dashPattern=1 1;" edge="1" parent="cJ0H96bqyWIBJjGTdwJW-12">
          <mxGeometry width="50" height="50" relative="1" as="geometry">
            <mxPoint x="233.76298424182357" y="37.38517332012188" as="sourcePoint" />
            <mxPoint x="246.7798333286141" y="26.05819884673916" as="targetPoint" />
          </mxGeometry>
        </mxCell>
        <mxCell id="cJ0H96bqyWIBJjGTdwJW-32" value="Lanes Elements Geometry RepresentationÂ " style="text;whiteSpace=wrap;fontSize=10;" vertex="1" parent="jkVytR9ZvrFqueL40Aw5-1">
          <mxGeometry x="324.84999999999997" y="286.34999999999997" width="196.85" height="23.62" as="geometry" />
        </mxCell>
        <mxCell id="cJ0H96bqyWIBJjGTdwJW-33" value="Lanes Graph Relationship" style="text;whiteSpace=wrap;fontSize=10;" vertex="1" parent="jkVytR9ZvrFqueL40Aw5-1">
          <mxGeometry x="569.76" y="287.89" width="135.04" height="23.62" as="geometry" />
        </mxCell>
        <mxCell id="cJ0H96bqyWIBJjGTdwJW-34" value="" style="shape=parallelogram;perimeter=parallelogramPerimeter;whiteSpace=wrap;fixedSize=1;fillColor=#cdeb8b;fontFamily=Times New Roman;size=86.05630602959147;labelBorderColor=none;strokeColor=#36393d;rounded=1;" vertex="1" parent="jkVytR9ZvrFqueL40Aw5-1">
          <mxGeometry x="202.40448635936028" y="443.6701159082254" width="341.10131796801505" height="75.73819735338918" as="geometry" />
        </mxCell>
        <mxCell id="cJ0H96bqyWIBJjGTdwJW-35" value="" style="shape=parallelogram;perimeter=parallelogramPerimeter;whiteSpace=wrap;fixedSize=1;fontFamily=Times New Roman;size=58.28668294270827;labelBorderColor=none;fontColor=#ffffff;fillColor=#808080;strokeColor=none;" vertex="1" parent="jkVytR9ZvrFqueL40Aw5-1">
          <mxGeometry x="214.50533397125014" y="455.2698398229246" width="316.69871269933407" height="51.80876689832449" as="geometry" />
        </mxCell>
        <mxCell id="cJ0H96bqyWIBJjGTdwJW-36" value="" style="endArrow=none;exitX=0.14;exitY=0.207;exitDx=0;exitDy=0;exitPerimeter=0;entryX=0.962;entryY=0.209;entryDx=0;entryDy=0;entryPerimeter=0;strokeWidth=3;fillColor=#ffff88;strokeColor=#FF9933;" edge="1" parent="jkVytR9ZvrFqueL40Aw5-1">
          <mxGeometry width="50" height="50" relative="1" as="geometry">
            <mxPoint x="273.49" y="455.9638233054076" as="sourcePoint" />
            <mxPoint x="530.2033584195672" y="456.08382044935263" as="targetPoint" />
            <Array as="points" />
          </mxGeometry>
        </mxCell>
        <mxCell id="cJ0H96bqyWIBJjGTdwJW-37" value="" style="endArrow=none;exitX=0.14;exitY=0.207;exitDx=0;exitDy=0;exitPerimeter=0;entryX=0.962;entryY=0.209;entryDx=0;entryDy=0;entryPerimeter=0;strokeWidth=3;fillColor=#ffff88;strokeColor=#FFFFFF;dashed=1;rounded=1;" edge="1" parent="jkVytR9ZvrFqueL40Aw5-1">
          <mxGeometry width="50" height="50" relative="1" as="geometry">
            <mxPoint x="246.92076004078285" y="471.01746501332843" as="sourcePoint" />
            <mxPoint x="429.2575316819041" y="471.1374621572735" as="targetPoint" />
            <Array as="points" />
          </mxGeometry>
        </mxCell>
        <mxCell id="cJ0H96bqyWIBJjGTdwJW-38" value="" style="endArrow=none;exitX=0.14;exitY=0.207;exitDx=0;exitDy=0;exitPerimeter=0;entryX=0.962;entryY=0.209;entryDx=0;entryDy=0;entryPerimeter=0;strokeWidth=3;fillColor=#ffff88;strokeColor=#FFFFFF;" edge="1" parent="jkVytR9ZvrFqueL40Aw5-1">
          <mxGeometry width="50" height="50" relative="1" as="geometry">
            <mxPoint x="233.47646207844423" y="486.07910653084537" as="sourcePoint" />
            <mxPoint x="324.7177826076611" y="486.07910653084537" as="targetPoint" />
            <Array as="points" />
          </mxGeometry>
        </mxCell>
        <mxCell id="cJ0H96bqyWIBJjGTdwJW-39" value="" style="endArrow=none;exitX=0.14;exitY=0.207;exitDx=0;exitDy=0;exitPerimeter=0;strokeWidth=3;strokeColor=#FFFFFF;" edge="1" parent="jkVytR9ZvrFqueL40Aw5-1">
          <mxGeometry width="50" height="50" relative="1" as="geometry">
            <mxPoint x="357.1332086771938" y="502.5147153465348" as="sourcePoint" />
            <mxPoint x="417.9121325575677" y="503.078701923077" as="targetPoint" />
            <Array as="points" />
          </mxGeometry>
        </mxCell>
        <mxCell id="cJ0H96bqyWIBJjGTdwJW-40" value="" style="endArrow=none;strokeColor=#FFFFFF;strokeWidth=3;curved=1;endFill=0;" edge="1" parent="jkVytR9ZvrFqueL40Aw5-1">
          <mxGeometry width="50" height="50" relative="1" as="geometry">
            <mxPoint x="324.7177826076611" y="486.07910653084537" as="sourcePoint" />
            <mxPoint x="357.94359432893225" y="502.47871620335127" as="targetPoint" />
            <Array as="points">
              <mxPoint x="333.63202477678266" y="486.0791065308454" />
              <mxPoint x="345.7878095528574" y="503.07870192307695" />
            </Array>
          </mxGeometry>
        </mxCell>
        <mxCell id="cJ0H96bqyWIBJjGTdwJW-41" value="" style="endArrow=none;exitX=0.14;exitY=0.207;exitDx=0;exitDy=0;exitPerimeter=0;entryX=0.962;entryY=0.209;entryDx=0;entryDy=0;entryPerimeter=0;strokeWidth=3;fillColor=#ffff88;strokeColor=#FFFFFF;dashed=1;" edge="1" parent="jkVytR9ZvrFqueL40Aw5-1">
          <mxGeometry width="50" height="50" relative="1" as="geometry">
            <mxPoint x="333.9675244366024" y="486.76309025133287" as="sourcePoint" />
            <mxPoint x="417.9121325575677" y="486.76309025133287" as="targetPoint" />
            <Array as="points" />
          </mxGeometry>
        </mxCell>
        <mxCell id="cJ0H96bqyWIBJjGTdwJW-42" value="" style="endArrow=none;exitX=0.14;exitY=0.207;exitDx=0;exitDy=0;exitPerimeter=0;entryX=0.962;entryY=0.209;entryDx=0;entryDy=0;entryPerimeter=0;strokeWidth=3;fillColor=#ffff88;strokeColor=#FFFFFF;" edge="1" parent="jkVytR9ZvrFqueL40Aw5-1">
          <mxGeometry width="50" height="50" relative="1" as="geometry">
            <mxPoint x="417.9121325575677" y="486.76309025133287" as="sourcePoint" />
            <mxPoint x="503.0026259900908" y="486.76309025133287" as="targetPoint" />
            <Array as="points" />
          </mxGeometry>
        </mxCell>
        <mxCell id="cJ0H96bqyWIBJjGTdwJW-43" value="" style="endArrow=none;strokeWidth=3;fillColor=#ffff88;strokeColor=#FFFFFF;entryX=0.895;entryY=0.691;entryDx=0;entryDy=0;entryPerimeter=0;" edge="1" parent="jkVytR9ZvrFqueL40Aw5-1">
          <mxGeometry width="50" height="50" relative="1" as="geometry">
            <mxPoint x="435.7406168958105" y="486.7790898705256" as="sourcePoint" />
            <mxPoint x="497.14029618541576" y="491.06969774966683" as="targetPoint" />
            <Array as="points" />
          </mxGeometry>
        </mxCell>
        <mxCell id="cJ0H96bqyWIBJjGTdwJW-44" value="" style="endArrow=none;strokeWidth=3;strokeColor=#FFFFFF;entryX=0.85;entryY=0.993;entryDx=0;entryDy=0;entryPerimeter=0;" edge="1" parent="jkVytR9ZvrFqueL40Aw5-1" target="cJ0H96bqyWIBJjGTdwJW-35">
          <mxGeometry width="50" height="50" relative="1" as="geometry">
            <mxPoint x="417.9121325575677" y="503.078701923077" as="sourcePoint" />
            <mxPoint x="316.13727751980974" y="42.43498918745248" as="targetPoint" />
            <Array as="points" />
          </mxGeometry>
        </mxCell>
        <mxCell id="cJ0H96bqyWIBJjGTdwJW-45" value="" style="endArrow=blockThin;strokeColor=#FFFFFF;strokeWidth=1;endFill=1;startSize=2;endSize=2;" edge="1" parent="jkVytR9ZvrFqueL40Aw5-1">
          <mxGeometry width="50" height="50" relative="1" as="geometry">
            <mxPoint x="396.03171996063315" y="478.07929693450114" as="sourcePoint" />
            <mxPoint x="405.7563477814929" y="478.07929693450114" as="targetPoint" />
          </mxGeometry>
        </mxCell>
        <mxCell id="cJ0H96bqyWIBJjGTdwJW-46" value="" style="endArrow=blockThin;strokeColor=#FFFFFF;strokeWidth=1;endFill=1;startSize=2;endSize=2;" edge="1" parent="jkVytR9ZvrFqueL40Aw5-1">
          <mxGeometry width="50" height="50" relative="1" as="geometry">
            <mxPoint x="412.13732440328045" y="462.95365694021325" as="sourcePoint" />
            <mxPoint x="421.86195222414017" y="462.95365694021325" as="targetPoint" />
          </mxGeometry>
        </mxCell>
        <mxCell id="cJ0H96bqyWIBJjGTdwJW-47" value="" style="endArrow=blockThin;strokeColor=#FFFFFF;strokeWidth=1;endFill=1;startSize=2;endSize=2;" edge="1" parent="jkVytR9ZvrFqueL40Aw5-1">
          <mxGeometry width="50" height="50" relative="1" as="geometry">
            <mxPoint x="293.8210192494862" y="477.9532999333587" as="sourcePoint" />
            <mxPoint x="303.5456470703459" y="477.9532999333587" as="targetPoint" />
          </mxGeometry>
        </mxCell>
        <mxCell id="cJ0H96bqyWIBJjGTdwJW-48" value="" style="endArrow=blockThin;strokeColor=#FFFFFF;strokeWidth=1;endFill=1;startSize=2;endSize=2;" edge="1" parent="jkVytR9ZvrFqueL40Aw5-1">
          <mxGeometry width="50" height="50" relative="1" as="geometry">
            <mxPoint x="307.4954667369186" y="462.8276599390708" as="sourcePoint" />
            <mxPoint x="317.22009455777834" y="462.8276599390708" as="targetPoint" />
          </mxGeometry>
        </mxCell>
        <mxCell id="cJ0H96bqyWIBJjGTdwJW-49" value="" style="endArrow=none;exitX=0.14;exitY=0.207;exitDx=0;exitDy=0;exitPerimeter=0;entryX=0.962;entryY=0.209;entryDx=0;entryDy=0;entryPerimeter=0;strokeWidth=3;fillColor=#ffff88;strokeColor=#FFFFFF;" edge="1" parent="jkVytR9ZvrFqueL40Aw5-1">
          <mxGeometry width="50" height="50" relative="1" as="geometry">
            <mxPoint x="433.3094599405956" y="471.0174650133282" as="sourcePoint" />
            <mxPoint x="516.7791820696423" y="471.0174650133282" as="targetPoint" />
            <Array as="points" />
          </mxGeometry>
        </mxCell>
        <mxCell id="cJ0H96bqyWIBJjGTdwJW-50" value="TrueÂ Road" style="text;resizable=0;autosize=1;align=center;verticalAlign=top;points=[];fillColor=#cdeb8b;fontFamily=Times New Roman;labelBorderColor=none;rounded=1;fontSize=13;strokeColor=#36393d;" vertex="1" parent="jkVytR9ZvrFqueL40Aw5-1">
          <mxGeometry x="146.6397100658513" y="459.4235981530845" width="62.992" height="31.496" as="geometry" />
        </mxCell>
        <mxCell id="cJ0H96bqyWIBJjGTdwJW-51" value="100" style="ellipse;whiteSpace=wrap;aspect=fixed;rounded=1;shadow=0;sketch=0;gradientColor=#ea6b66;fillColor=none;strokeColor=#FF0000;strokeWidth=1;fontSize=7;fontStyle=1;" vertex="1" parent="jkVytR9ZvrFqueL40Aw5-1">
          <mxGeometry x="487.4883177798682" y="444.54409510662606" width="12.537969865218011" height="12.537467025631425" as="geometry" />
        </mxCell>
        <mxCell id="cJ0H96bqyWIBJjGTdwJW-52" value="" style="endArrow=none;strokeWidth=2;fontSize=7;rounded=0;strokeColor=#333333;exitX=0.183;exitY=0.956;exitDx=0;exitDy=0;exitPerimeter=0;" edge="1" parent="jkVytR9ZvrFqueL40Aw5-1">
          <mxGeometry width="50" height="50" relative="1" as="geometry">
            <mxPoint x="242.6552843678271" y="516.0758325780655" as="sourcePoint" />
            <mxPoint x="286.8129397930386" y="517.0783687166793" as="targetPoint" />
            <Array as="points">
              <mxPoint x="249.56609125117586" y="509.07855912033506" />
              <mxPoint x="280.60513170272804" y="509.07855912033506" />
            </Array>
          </mxGeometry>
        </mxCell>
        <mxCell id="cJ0H96bqyWIBJjGTdwJW-53" value="" style="endArrow=none;strokeWidth=2;fontSize=7;rounded=0;strokeColor=#333333;" edge="1" parent="jkVytR9ZvrFqueL40Aw5-1">
          <mxGeometry width="50" height="50" relative="1" as="geometry">
            <mxPoint x="298.7731774223894" y="446.0780585967252" as="sourcePoint" />
            <mxPoint x="342.3076487300093" y="446.0780585967252" as="targetPoint" />
            <Array as="points">
              <mxPoint x="305.0891787394167" y="452.14991408035036" />
              <mxPoint x="336.12821919096893" y="452.14991408035036" />
            </Array>
          </mxGeometry>
        </mxCell>
        <mxCell id="cJ0H96bqyWIBJjGTdwJW-54" value="Bridge" style="text;fontSize=10;labelBackgroundColor=none;" vertex="1" parent="jkVytR9ZvrFqueL40Aw5-1">
          <mxGeometry x="292.5990690498588" y="499.8047496191927" width="34.914486359360296" height="31.495250380807313" as="geometry" />
        </mxCell>
        <mxCell id="cJ0H96bqyWIBJjGTdwJW-55" value="60" style="ellipse;whiteSpace=wrap;aspect=fixed;rounded=1;shadow=0;sketch=0;gradientColor=#ea6b66;fillColor=none;strokeColor=#FF0000;strokeWidth=1;fontSize=7;fontStyle=1;" vertex="1" parent="jkVytR9ZvrFqueL40Aw5-1">
          <mxGeometry x="426.75800000000004" y="505.5780000000001" width="12.99" height="12.992099999999999" as="geometry" />
        </mxCell>
        <mxCell id="cJ0H96bqyWIBJjGTdwJW-56" value="" style="shape=parallelogram;perimeter=parallelogramPerimeter;whiteSpace=wrap;fixedSize=1;fontFamily=Times New Roman;size=79.17800000000003;labelBorderColor=none;strokeColor=#6c8ebf;rounded=1;fillColor=#FFE599;" vertex="1" parent="jkVytR9ZvrFqueL40Aw5-1">
          <mxGeometry x="212.76" y="372.86" width="497.16" height="62.99" as="geometry" />
        </mxCell>
        <mxCell id="cJ0H96bqyWIBJjGTdwJW-57" value="" style="endArrow=blockThin;fontSize=14;strokeColor=#1A1A1A;strokeWidth=1;endFill=1;exitX=0.365;exitY=0.505;exitDx=0;exitDy=0;exitPerimeter=0;endSize=3;entryX=0.565;entryY=0.852;entryDx=0;entryDy=0;entryPerimeter=0;" edge="1" parent="jkVytR9ZvrFqueL40Aw5-1" target="cJ0H96bqyWIBJjGTdwJW-56">
          <mxGeometry width="50" height="50" relative="1" as="geometry">
            <mxPoint x="358.1383000000001" y="419.94274999999993" as="sourcePoint" />
            <mxPoint x="494.76" y="429.51" as="targetPoint" />
            <Array as="points">
              <mxPoint x="431.76" y="420.51" />
            </Array>
          </mxGeometry>
        </mxCell>
        <mxCell id="cJ0H96bqyWIBJjGTdwJW-58" value="A" style="text;whiteSpace=wrap;fontSize=11;fontFamily=Times New Roman;align=center;verticalAlign=middle;labelBackgroundColor=none;" vertex="1" parent="jkVytR9ZvrFqueL40Aw5-1">
          <mxGeometry x="314.8" y="314.84" width="12.3" height="7.87" as="geometry" />
        </mxCell>
        <mxCell id="cJ0H96bqyWIBJjGTdwJW-59" value="B" style="text;whiteSpace=wrap;fontSize=11;fontFamily=Times New Roman;align=center;verticalAlign=middle;labelBackgroundColor=none;" vertex="1" parent="jkVytR9ZvrFqueL40Aw5-1">
          <mxGeometry x="302.5" y="323.39" width="12.3" height="14.87" as="geometry" />
        </mxCell>
        <mxCell id="cJ0H96bqyWIBJjGTdwJW-60" value="C" style="text;whiteSpace=wrap;fontSize=11;fontFamily=Times New Roman;align=center;verticalAlign=middle;labelBackgroundColor=none;" vertex="1" parent="jkVytR9ZvrFqueL40Aw5-1">
          <mxGeometry x="397.994" y="314.834" width="12.3" height="7.87" as="geometry" />
        </mxCell>
        <mxCell id="cJ0H96bqyWIBJjGTdwJW-61" value="D" style="text;whiteSpace=wrap;fontSize=11;fontFamily=Times New Roman;align=center;verticalAlign=middle;labelBackgroundColor=none;" vertex="1" parent="jkVytR9ZvrFqueL40Aw5-1">
          <mxGeometry x="385.694" y="323.384" width="12.3" height="14.87" as="geometry" />
        </mxCell>
        <mxCell id="cJ0H96bqyWIBJjGTdwJW-62" value="E" style="text;whiteSpace=wrap;fontSize=11;fontFamily=Times New Roman;align=center;verticalAlign=middle;labelBackgroundColor=none;" vertex="1" parent="jkVytR9ZvrFqueL40Aw5-1">
          <mxGeometry x="374.758" y="335.508" width="12.3" height="14.87" as="geometry" />
        </mxCell>
        <mxCell id="cJ0H96bqyWIBJjGTdwJW-63" value="F" style="text;whiteSpace=wrap;fontSize=11;fontFamily=Times New Roman;align=center;verticalAlign=middle;labelBackgroundColor=none;" vertex="1" parent="jkVytR9ZvrFqueL40Aw5-1">
          <mxGeometry x="478.99800000000005" y="314.50800000000004" width="12.3" height="7.87" as="geometry" />
        </mxCell>
        <mxCell id="cJ0H96bqyWIBJjGTdwJW-64" value="G" style="text;whiteSpace=wrap;fontSize=11;fontFamily=Times New Roman;align=center;verticalAlign=middle;labelBackgroundColor=none;" vertex="1" parent="jkVytR9ZvrFqueL40Aw5-1">
          <mxGeometry x="466.69800000000004" y="323.05800000000005" width="12.3" height="14.87" as="geometry" />
        </mxCell>
        <mxCell id="cJ0H96bqyWIBJjGTdwJW-65" value="H" style="text;whiteSpace=wrap;fontSize=11;fontFamily=Times New Roman;align=center;verticalAlign=middle;labelBackgroundColor=none;" vertex="1" parent="jkVytR9ZvrFqueL40Aw5-1">
          <mxGeometry x="455.762" y="335.182" width="12.3" height="14.87" as="geometry" />
        </mxCell>
        <mxCell id="cJ0H96bqyWIBJjGTdwJW-66" value="" style="group;" vertex="1" connectable="0" parent="jkVytR9ZvrFqueL40Aw5-1">
          <mxGeometry x="533.8199999999999" y="309.09" width="139.86" height="49.24000000000001" as="geometry" />
        </mxCell>
        <mxCell id="cJ0H96bqyWIBJjGTdwJW-67" value="A" style="text;whiteSpace=wrap;fontSize=13;fontFamily=Times New Roman;align=center;verticalAlign=middle;labelBackgroundColor=none;" vertex="1" parent="cJ0H96bqyWIBJjGTdwJW-66">
          <mxGeometry x="22.68705152633072" width="16.687051526330727" height="6.424156759745643" as="geometry" />
        </mxCell>
        <mxCell id="cJ0H96bqyWIBJjGTdwJW-68" value="B" style="text;whiteSpace=wrap;fontSize=13;fontFamily=Times New Roman;align=center;verticalAlign=middle;labelBackgroundColor=none;" vertex="1" parent="cJ0H96bqyWIBJjGTdwJW-66">
          <mxGeometry y="16.77464058612111" width="16.687051526330727" height="12.138146253801489" as="geometry" />
        </mxCell>
        <mxCell id="cJ0H96bqyWIBJjGTdwJW-69" value="C" style="text;whiteSpace=wrap;fontSize=13;fontFamily=Times New Roman;align=center;verticalAlign=middle;labelBackgroundColor=none;" vertex="1" parent="cJ0H96bqyWIBJjGTdwJW-66">
          <mxGeometry x="72.25166457210037" y="0.2644760851534329" width="16.687051526330727" height="6.424156759745643" as="geometry" />
        </mxCell>
        <mxCell id="cJ0H96bqyWIBJjGTdwJW-70" value="D" style="text;whiteSpace=wrap;fontSize=13;fontFamily=Times New Roman;align=center;verticalAlign=middle;labelBackgroundColor=none;" vertex="1" parent="cJ0H96bqyWIBJjGTdwJW-66">
          <mxGeometry x="49.56461304576965" y="17.03911667127454" width="16.687051526330727" height="12.138146253801489" as="geometry" />
        </mxCell>
        <mxCell id="cJ0H96bqyWIBJjGTdwJW-71" value="E" style="text;whiteSpace=wrap;fontSize=13;fontFamily=Times New Roman;align=center;verticalAlign=middle;labelBackgroundColor=none;" vertex="1" parent="cJ0H96bqyWIBJjGTdwJW-66">
          <mxGeometry x="26.371389710949757" y="37.098588609344745" width="16.687051526330727" height="12.138146253801489" as="geometry" />
        </mxCell>
        <mxCell id="cJ0H96bqyWIBJjGTdwJW-72" value="F" style="text;whiteSpace=wrap;fontSize=13;fontFamily=Times New Roman;align=center;verticalAlign=middle;labelBackgroundColor=none;" vertex="1" parent="cJ0H96bqyWIBJjGTdwJW-66">
          <mxGeometry x="123.1729484736693" y="0.26774122200720285" width="16.687051526330727" height="6.424156759745643" as="geometry" />
        </mxCell>
        <mxCell id="cJ0H96bqyWIBJjGTdwJW-73" value="G" style="text;whiteSpace=wrap;fontSize=13;fontFamily=Times New Roman;align=center;verticalAlign=middle;labelBackgroundColor=none;" vertex="1" parent="cJ0H96bqyWIBJjGTdwJW-66">
          <mxGeometry x="100.48589694733869" y="17.04238180812831" width="16.687051526330727" height="12.138146253801489" as="geometry" />
        </mxCell>
        <mxCell id="cJ0H96bqyWIBJjGTdwJW-74" value="H" style="text;whiteSpace=wrap;fontSize=13;fontFamily=Times New Roman;align=center;verticalAlign=middle;labelBackgroundColor=none;" vertex="1" parent="cJ0H96bqyWIBJjGTdwJW-66">
          <mxGeometry x="77.29267361251868" y="37.101853746198515" width="16.687051526330727" height="12.138146253801489" as="geometry" />
        </mxCell>
        <mxCell id="cJ0H96bqyWIBJjGTdwJW-75" value="" style="endArrow=blockThin;strokeWidth=1;fontFamily=Times New Roman;fontSize=13;fontColor=#000000;strokeColor=#00FF00;exitX=1;exitY=0.5;exitDx=0;exitDy=0;entryX=0;entryY=0.5;entryDx=0;entryDy=0;endFill=1;jumpSize=4;endSize=2;" edge="1" parent="cJ0H96bqyWIBJjGTdwJW-66" source="cJ0H96bqyWIBJjGTdwJW-67" target="cJ0H96bqyWIBJjGTdwJW-69">
          <mxGeometry width="50" height="50" relative="1" as="geometry">
            <mxPoint x="39.368676369238074" y="-8.198758639756704" as="sourcePoint" />
            <mxPoint x="107.20221915920047" y="-49.012969311584186" as="targetPoint" />
          </mxGeometry>
        </mxCell>
        <mxCell id="cJ0H96bqyWIBJjGTdwJW-76" value="" style="endArrow=blockThin;strokeWidth=1;fontFamily=Times New Roman;fontSize=13;fontColor=#000000;strokeColor=#00FF00;exitX=1;exitY=0.5;exitDx=0;exitDy=0;entryX=0;entryY=0.5;entryDx=0;entryDy=0;endFill=1;jumpSize=4;endSize=2;" edge="1" parent="cJ0H96bqyWIBJjGTdwJW-66">
          <mxGeometry width="50" height="50" relative="1" as="geometry">
            <mxPoint x="91.65205781002976" y="4.088767625103742" as="sourcePoint" />
            <mxPoint x="124.52961932946835" y="4.353243710257118" as="targetPoint" />
          </mxGeometry>
        </mxCell>
        <mxCell id="cJ0H96bqyWIBJjGTdwJW-77" value="" style="endArrow=blockThin;strokeWidth=1;fontFamily=Times New Roman;fontSize=13;fontColor=#000000;strokeColor=#00FF00;exitX=1;exitY=0.5;exitDx=0;exitDy=0;entryX=0;entryY=0.5;entryDx=0;entryDy=0;endFill=1;jumpSize=4;endSize=2;" edge="1" parent="cJ0H96bqyWIBJjGTdwJW-66">
          <mxGeometry width="50" height="50" relative="1" as="geometry">
            <mxPoint x="67.6137621113229" y="24.62974357202114" as="sourcePoint" />
            <mxPoint x="100.49132363076171" y="24.89421965717446" as="targetPoint" />
          </mxGeometry>
        </mxCell>
        <mxCell id="cJ0H96bqyWIBJjGTdwJW-78" value="" style="endArrow=blockThin;strokeWidth=1;fontFamily=Times New Roman;fontSize=13;fontColor=#000000;strokeColor=#00FF00;exitX=1;exitY=0.5;exitDx=0;exitDy=0;entryX=0;entryY=0.5;entryDx=0;entryDy=0;endFill=1;jumpSize=4;endSize=2;" edge="1" parent="cJ0H96bqyWIBJjGTdwJW-66">
          <mxGeometry width="50" height="50" relative="1" as="geometry">
            <mxPoint x="16.68976486804263" y="24.624845866740486" as="sourcePoint" />
            <mxPoint x="49.567326387481444" y="24.889321951893805" as="targetPoint" />
          </mxGeometry>
        </mxCell>
        <mxCell id="cJ0H96bqyWIBJjGTdwJW-79" value="" style="endArrow=blockThin;strokeWidth=1;fontFamily=Times New Roman;fontSize=13;fontColor=#000000;strokeColor=#00FF00;exitX=1;exitY=0.5;exitDx=0;exitDy=0;entryX=0;entryY=0.5;entryDx=0;entryDy=0;endFill=1;jumpSize=4;endSize=2;" edge="1" parent="cJ0H96bqyWIBJjGTdwJW-66">
          <mxGeometry width="50" height="50" relative="1" as="geometry">
            <mxPoint x="43.05572789556925" y="43.5170313795964" as="sourcePoint" />
            <mxPoint x="75.93328941500806" y="43.78150746474972" as="targetPoint" />
          </mxGeometry>
        </mxCell>
        <mxCell id="cJ0H96bqyWIBJjGTdwJW-80" value="" style="endArrow=blockThin;strokeWidth=1;fontFamily=Times New Roman;fontSize=13;fontColor=#000000;strokeColor=#00FF00;exitX=0.762;exitY=0.31;exitDx=0;exitDy=0;endFill=1;jumpSize=4;endSize=2;startArrow=blockThin;startFill=1;startSize=2;exitPerimeter=0;" edge="1" parent="cJ0H96bqyWIBJjGTdwJW-66" source="cJ0H96bqyWIBJjGTdwJW-68">
          <mxGeometry width="50" height="50" relative="1" as="geometry">
            <mxPoint x="40.722633883325784" y="63.66935236383739" as="sourcePoint" />
            <mxPoint x="26.710000000000036" y="9.54000000000002" as="targetPoint" />
          </mxGeometry>
        </mxCell>
        <mxCell id="cJ0H96bqyWIBJjGTdwJW-81" value="" style="endArrow=blockThin;strokeWidth=1;fontFamily=Times New Roman;fontSize=13;fontColor=#000000;strokeColor=#00FF00;exitX=0.762;exitY=0.31;exitDx=0;exitDy=0;endFill=1;jumpSize=4;endSize=2;startArrow=blockThin;startFill=1;startSize=2;exitPerimeter=0;" edge="1" parent="cJ0H96bqyWIBJjGTdwJW-66">
          <mxGeometry width="50" height="50" relative="1" as="geometry">
            <mxPoint x="61.70953326306403" y="20.54146592479958" as="sourcePoint" />
            <mxPoint x="75.70400000000006" y="9.54400000000004" as="targetPoint" />
          </mxGeometry>
        </mxCell>
        <mxCell id="cJ0H96bqyWIBJjGTdwJW-82" value="" style="endArrow=blockThin;strokeWidth=1;fontFamily=Times New Roman;fontSize=13;fontColor=#000000;strokeColor=#00FF00;exitX=0.762;exitY=0.31;exitDx=0;exitDy=0;endFill=1;jumpSize=4;endSize=2;startArrow=blockThin;startFill=1;startSize=2;exitPerimeter=0;" edge="1" parent="cJ0H96bqyWIBJjGTdwJW-66">
          <mxGeometry width="50" height="50" relative="1" as="geometry">
            <mxPoint x="38.71353326306405" y="40.53546592479955" as="sourcePoint" />
            <mxPoint x="52.708000000000084" y="29.53800000000001" as="targetPoint" />
          </mxGeometry>
        </mxCell>
        <mxCell id="cJ0H96bqyWIBJjGTdwJW-83" value="1" style="text;whiteSpace=wrap;fontSize=13;fontFamily=Times New Roman;align=center;verticalAlign=middle;labelBackgroundColor=none;" vertex="1" parent="jkVytR9ZvrFqueL40Aw5-1">
          <mxGeometry x="302.76" y="391.50999999999993" width="16.32" height="10.2" as="geometry" />
        </mxCell>
        <mxCell id="cJ0H96bqyWIBJjGTdwJW-84" value="" style="endArrow=blockThin;strokeWidth=1;fontFamily=Times New Roman;fontSize=13;fontColor=#000000;strokeColor=#00FF00;endFill=1;jumpSize=4;endSize=2;startArrow=none;startFill=0;entryX=0;entryY=0.5;entryDx=0;entryDy=0;" edge="1" parent="jkVytR9ZvrFqueL40Aw5-1" target="cJ0H96bqyWIBJjGTdwJW-94">
          <mxGeometry width="50" height="50" relative="1" as="geometry">
            <mxPoint x="556.52" y="407.96000000000004" as="sourcePoint" />
            <mxPoint x="581.52" y="407.78999999999996" as="targetPoint" />
          </mxGeometry>
        </mxCell>
        <mxCell id="cJ0H96bqyWIBJjGTdwJW-85" value="" style="endArrow=blockThin;strokeWidth=1;fontFamily=Times New Roman;fontSize=13;fontColor=#000000;strokeColor=#00FF00;exitX=1;exitY=0.5;exitDx=0;exitDy=0;entryX=0;entryY=0.5;entryDx=0;entryDy=0;endFill=1;jumpSize=4;endSize=2;startArrow=none;startFill=0;" edge="1" parent="jkVytR9ZvrFqueL40Aw5-1">
          <mxGeometry width="50" height="50" relative="1" as="geometry">
            <mxPoint x="591.9777648680429" y="407.87284586674036" as="sourcePoint" />
            <mxPoint x="624.8553263874815" y="408.1373219518939" as="targetPoint" />
          </mxGeometry>
        </mxCell>
        <mxCell id="cJ0H96bqyWIBJjGTdwJW-86" value="" style="endArrow=blockThin;strokeWidth=1;fontFamily=Times New Roman;fontSize=13;fontColor=#000000;strokeColor=#00FF00;endFill=1;jumpSize=4;endSize=2;startArrow=none;startFill=0;" edge="1" parent="jkVytR9ZvrFqueL40Aw5-1" source="cJ0H96bqyWIBJjGTdwJW-94">
          <mxGeometry width="50" height="50" relative="1" as="geometry">
            <mxPoint x="585.0399999999988" y="408.22999999999996" as="sourcePoint" />
            <mxPoint x="613.52" y="419.23" as="targetPoint" />
          </mxGeometry>
        </mxCell>
        <mxCell id="cJ0H96bqyWIBJjGTdwJW-87" value="1" style="text;whiteSpace=wrap;fontSize=13;fontFamily=Times New Roman;align=center;verticalAlign=middle;labelBackgroundColor=none;" vertex="1" parent="jkVytR9ZvrFqueL40Aw5-1">
          <mxGeometry x="561.2639999999999" y="395.604" width="16.32" height="10.2" as="geometry" />
        </mxCell>
        <mxCell id="cJ0H96bqyWIBJjGTdwJW-88" value="2" style="text;whiteSpace=wrap;fontSize=13;fontFamily=Times New Roman;align=center;verticalAlign=middle;labelBackgroundColor=none;" vertex="1" parent="jkVytR9ZvrFqueL40Aw5-1">
          <mxGeometry x="602.398" y="395.608" width="16.32" height="10.2" as="geometry" />
        </mxCell>
        <mxCell id="cJ0H96bqyWIBJjGTdwJW-89" value="3" style="text;whiteSpace=wrap;fontSize=13;fontFamily=Times New Roman;align=center;verticalAlign=middle;labelBackgroundColor=none;" vertex="1" parent="jkVytR9ZvrFqueL40Aw5-1">
          <mxGeometry x="596.202" y="414.82199999999995" width="16.32" height="10.2" as="geometry" />
        </mxCell>
        <mxCell id="cJ0H96bqyWIBJjGTdwJW-90" value="" style="group;" vertex="1" connectable="0" parent="jkVytR9ZvrFqueL40Aw5-1">
          <mxGeometry x="298.22399999999993" y="241.844" width="35.47000000000003" height="7.669999999999959" as="geometry" />
        </mxCell>
        <mxCell id="cJ0H96bqyWIBJjGTdwJW-91" value="" style="endArrow=none;strokeWidth=2;fontSize=7;rounded=0;strokeColor=#333333;exitX=0.183;exitY=0.956;exitDx=0;exitDy=0;exitPerimeter=0;" edge="1" parent="cJ0H96bqyWIBJjGTdwJW-90">
          <mxGeometry width="50" height="50" relative="1" as="geometry">
            <mxPoint x="-12.32271000000003" y="14.667440000000056" as="sourcePoint" />
            <mxPoint x="37.4699999999998" y="15.669999999999959" as="targetPoint" />
            <Array as="points">
              <mxPoint x="-4.529999999999973" y="7.669999999999959" />
              <mxPoint x="30.470000000000027" y="7.669999999999959" />
            </Array>
          </mxGeometry>
        </mxCell>
        <mxCell id="cJ0H96bqyWIBJjGTdwJW-92" value="" style="endArrow=none;strokeWidth=2;fontSize=7;rounded=0;strokeColor=#333333;" edge="1" parent="cJ0H96bqyWIBJjGTdwJW-90">
          <mxGeometry width="50" height="50" relative="1" as="geometry">
            <mxPoint x="-7.122000000000071" y="-6.072000000000003" as="sourcePoint" />
            <mxPoint x="41.96799999999985" y="-6.072000000000003" as="targetPoint" />
            <Array as="points">
              <mxPoint />
              <mxPoint x="35" />
            </Array>
          </mxGeometry>
        </mxCell>
        <mxCell id="cJ0H96bqyWIBJjGTdwJW-93" value="" style="endArrow=blockThin;fontSize=14;strokeWidth=1;endFill=1;strokeColor=#1A1A1A;endSize=3;" edge="1" parent="jkVytR9ZvrFqueL40Aw5-1">
          <mxGeometry width="50" height="50" relative="1" as="geometry">
            <mxPoint x="268.9839999999999" y="404.51" as="sourcePoint" />
            <mxPoint x="362.76" y="404.51" as="targetPoint" />
          </mxGeometry>
        </mxCell>
        <mxCell id="cJ0H96bqyWIBJjGTdwJW-94" value="" style="ellipse;whiteSpace=wrap;aspect=fixed;rounded=0;shadow=0;labelBackgroundColor=none;sketch=0;strokeColor=#000000;strokeWidth=1;gradientColor=none;fontFamily=Times New Roman;fontSize=13;fontColor=#000000;align=center;fillColor=#0000000000000000000;" vertex="1" parent="jkVytR9ZvrFqueL40Aw5-1">
          <mxGeometry x="588.52" y="405.79999999999995" width="3.937" height="3.94" as="geometry" />
        </mxCell>
        <mxCell id="cJ0H96bqyWIBJjGTdwJW-95" value="Section Reference LinesÂ " style="text;whiteSpace=wrap;fontSize=10;" vertex="1" parent="jkVytR9ZvrFqueL40Aw5-1">
          <mxGeometry x="373.26" y="370.22999999999996" width="121.33" height="23.62" as="geometry" />
        </mxCell>
        <mxCell id="cJ0H96bqyWIBJjGTdwJW-96" value="Section Graph Relationship" style="text;whiteSpace=wrap;fontSize=10;" vertex="1" parent="jkVytR9ZvrFqueL40Aw5-1">
          <mxGeometry x="543.89" y="371.98" width="140.29" height="23.62" as="geometry" />
        </mxCell>
        <mxCell id="cJ0H96bqyWIBJjGTdwJW-97" value="2" style="text;whiteSpace=wrap;fontSize=13;fontFamily=Times New Roman;align=center;verticalAlign=middle;labelBackgroundColor=none;" vertex="1" parent="jkVytR9ZvrFqueL40Aw5-1">
          <mxGeometry x="426.76400000000007" y="390.5139999999999" width="16.32" height="10.2" as="geometry" />
        </mxCell>
        <mxCell id="cJ0H96bqyWIBJjGTdwJW-98" value="3" style="text;whiteSpace=wrap;fontSize=13;fontFamily=Times New Roman;align=center;verticalAlign=middle;labelBackgroundColor=none;" vertex="1" parent="jkVytR9ZvrFqueL40Aw5-1">
          <mxGeometry x="404.758" y="422.5079999999999" width="16.32" height="10.2" as="geometry" />
        </mxCell>
        <mxCell id="cJ0H96bqyWIBJjGTdwJW-99" value="" style="endArrow=blockThin;fontSize=14;strokeWidth=1;endFill=1;strokeColor=#1A1A1A;endSize=3;" edge="1" parent="jkVytR9ZvrFqueL40Aw5-1">
          <mxGeometry width="50" height="50" relative="1" as="geometry">
            <mxPoint x="368.76" y="404.51" as="sourcePoint" />
            <mxPoint x="522.76" y="404.51" as="targetPoint" />
          </mxGeometry>
        </mxCell>
        <mxCell id="cJ0H96bqyWIBJjGTdwJW-100" value="" style="line;strokeWidth=1;direction=south;rounded=1;shadow=0;labelBackgroundColor=none;sketch=0;fontFamily=Helvetica;fontSize=13;align=center;dashed=1;dashPattern=1 2;fillColor=none;strokeColor=#66FFFF;" vertex="1" parent="jkVytR9ZvrFqueL40Aw5-1">
          <mxGeometry x="515.7" y="149.60999999999999" width="10" height="252.1" as="geometry" />
        </mxCell>
        <mxCell id="cJ0H96bqyWIBJjGTdwJW-101" value="" style="line;strokeWidth=1;direction=south;rounded=1;shadow=0;labelBackgroundColor=none;sketch=0;fontFamily=Helvetica;fontSize=13;align=center;dashed=1;dashPattern=1 2;fillColor=none;strokeColor=#66FFFF;" vertex="1" parent="jkVytR9ZvrFqueL40Aw5-1">
          <mxGeometry x="359.75800000000004" y="326.50800000000004" width="10" height="75.07" as="geometry" />
        </mxCell>
        <mxCell id="cJ0H96bqyWIBJjGTdwJW-102" value="" style="line;strokeWidth=1;direction=south;rounded=1;shadow=0;labelBackgroundColor=none;sketch=0;fontFamily=Helvetica;fontSize=13;align=center;dashed=1;dashPattern=1 2;fillColor=none;strokeColor=#66FFFF;" vertex="1" parent="jkVytR9ZvrFqueL40Aw5-1">
          <mxGeometry x="488.76" y="165.35999999999999" width="10" height="260.22" as="geometry" />
        </mxCell>
        <mxCell id="cJ0H96bqyWIBJjGTdwJW-103" value="" style="line;strokeWidth=1;direction=south;rounded=1;shadow=0;labelBackgroundColor=none;sketch=0;fontFamily=Helvetica;fontSize=13;align=center;dashed=1;dashPattern=1 2;fillColor=none;strokeColor=#66FFFF;" vertex="1" parent="jkVytR9ZvrFqueL40Aw5-1">
          <mxGeometry x="353.7560000000001" y="346.5060000000001" width="10" height="75.07" as="geometry" />
        </mxCell>
        <mxCell id="cJ0H96bqyWIBJjGTdwJW-104" value="" style="line;strokeWidth=1;direction=south;rounded=1;shadow=0;labelBackgroundColor=none;sketch=0;fontFamily=Helvetica;fontSize=13;align=center;dashed=1;dashPattern=1 2;fillColor=none;strokeColor=#66FFFF;" vertex="1" parent="jkVytR9ZvrFqueL40Aw5-1">
          <mxGeometry x="359.75800000000004" y="326.50800000000004" width="10" height="75.07" as="geometry" />
        </mxCell>
        <mxCell id="cJ0H96bqyWIBJjGTdwJW-105" value="" style="line;strokeWidth=1;direction=south;rounded=1;shadow=0;labelBackgroundColor=none;sketch=0;fontFamily=Helvetica;fontSize=13;align=center;dashed=1;dashPattern=1 2;fillColor=none;strokeColor=#66FFFF;" vertex="1" parent="jkVytR9ZvrFqueL40Aw5-1">
          <mxGeometry x="265.76" y="145.51" width="10" height="257.07" as="geometry" />
        </mxCell>
        <mxCell id="cJ0H96bqyWIBJjGTdwJW-106" value="" style="group;" vertex="1" connectable="0" parent="jkVytR9ZvrFqueL40Aw5-1">
          <mxGeometry x="258.23" y="142.85999999999996" width="279.53" height="31.5" as="geometry" />
        </mxCell>
        <mxCell id="cJ0H96bqyWIBJjGTdwJW-107" value="" style="group;" vertex="1" connectable="0" parent="cJ0H96bqyWIBJjGTdwJW-106">
          <mxGeometry width="279.53" height="31.5" as="geometry" />
        </mxCell>
        <mxCell id="cJ0H96bqyWIBJjGTdwJW-108" value="" style="endArrow=none;strokeWidth=1;strokeColor=#666666;" edge="1" parent="cJ0H96bqyWIBJjGTdwJW-107">
          <mxGeometry width="50" height="50" relative="1" as="geometry">
            <mxPoint x="231.75747384491274" y="31.195333632240256" as="sourcePoint" />
            <mxPoint x="244.77418369924453" y="21.988549921873446" as="targetPoint" />
          </mxGeometry>
        </mxCell>
        <mxCell id="cJ0H96bqyWIBJjGTdwJW-109" value="" style="endArrow=none;strokeWidth=1;strokeColor=#666666;" edge="1" parent="cJ0H96bqyWIBJjGTdwJW-107">
          <mxGeometry width="50" height="50" relative="1" as="geometry">
            <mxPoint x="156.53129425542107" y="29.163957268927092" as="sourcePoint" />
            <mxPoint x="198.5308450097377" y="0.7152810032512795" as="targetPoint" />
          </mxGeometry>
        </mxCell>
        <mxCell id="cJ0H96bqyWIBJjGTdwJW-110" value="" style="endArrow=none;strokeWidth=1;strokeColor=#0000FF;" edge="1" parent="cJ0H96bqyWIBJjGTdwJW-107">
          <mxGeometry width="50" height="50" relative="1" as="geometry">
            <mxPoint x="27.552100208076848" y="0.8079424059451813" as="sourcePoint" />
            <mxPoint x="120.10935029957852" y="0.8079424059451813" as="targetPoint" />
          </mxGeometry>
        </mxCell>
        <mxCell id="cJ0H96bqyWIBJjGTdwJW-111" value="" style="endArrow=none;strokeWidth=1;strokeColor=#0000FF;" edge="1" parent="cJ0H96bqyWIBJjGTdwJW-107">
          <mxGeometry width="50" height="50" relative="1" as="geometry">
            <mxPoint x="12.532834526335456" y="10.301916754960668" as="sourcePoint" />
            <mxPoint x="107.31989483165042" y="10.301916754960668" as="targetPoint" />
          </mxGeometry>
        </mxCell>
        <mxCell id="cJ0H96bqyWIBJjGTdwJW-112" value="" style="endArrow=none;strokeWidth=1;strokeColor=#0000FF;" edge="1" parent="cJ0H96bqyWIBJjGTdwJW-107">
          <mxGeometry width="50" height="50" relative="1" as="geometry">
            <mxPoint x="-1" y="19.68864148788332" as="sourcePoint" />
            <mxPoint x="92.55725009150161" y="19.68864148788332" as="targetPoint" />
          </mxGeometry>
        </mxCell>
        <mxCell id="cJ0H96bqyWIBJjGTdwJW-113" value="" style="endArrow=none;strokeWidth=1;strokeColor=#0000FF;" edge="1" parent="cJ0H96bqyWIBJjGTdwJW-107">
          <mxGeometry width="50" height="50" relative="1" as="geometry">
            <mxPoint x="121.53166862682387" y="0.9235336588452836" as="sourcePoint" />
            <mxPoint x="197.1116343938354" y="0.9235336588452836" as="targetPoint" />
          </mxGeometry>
        </mxCell>
        <mxCell id="cJ0H96bqyWIBJjGTdwJW-114" value="" style="endArrow=none;strokeWidth=1;strokeColor=#0000FF;" edge="1" parent="cJ0H96bqyWIBJjGTdwJW-107">
          <mxGeometry width="50" height="50" relative="1" as="geometry">
            <mxPoint x="107.531818375385" y="10.417508007860741" as="sourcePoint" />
            <mxPoint x="184.07167759858376" y="10.417508007860741" as="targetPoint" />
          </mxGeometry>
        </mxCell>
        <mxCell id="cJ0H96bqyWIBJjGTdwJW-115" value="" style="endArrow=none;strokeWidth=1;strokeColor=#0000FF;" edge="1" parent="cJ0H96bqyWIBJjGTdwJW-107">
          <mxGeometry width="50" height="50" relative="1" as="geometry">
            <mxPoint x="92.80270402868088" y="19.80423274078339" as="sourcePoint" />
            <mxPoint x="170.52671417055916" y="19.80423274078339" as="targetPoint" />
          </mxGeometry>
        </mxCell>
        <mxCell id="cJ0H96bqyWIBJjGTdwJW-116" value="" style="endArrow=none;exitX=0.14;exitY=0.207;exitDx=0;exitDy=0;exitPerimeter=0;strokeWidth=1;strokeColor=#0000FF;" edge="1" parent="cJ0H96bqyWIBJjGTdwJW-107">
          <mxGeometry width="50" height="50" relative="1" as="geometry">
            <mxPoint x="116.25204571446437" y="28.99671650233791" as="sourcePoint" />
            <mxPoint x="172.6893933312338" y="29.33276529942855" as="targetPoint" />
            <Array as="points" />
          </mxGeometry>
        </mxCell>
        <mxCell id="cJ0H96bqyWIBJjGTdwJW-117" value="" style="endArrow=none;strokeColor=#0000FF;strokeWidth=1;curved=1;" edge="1" parent="cJ0H96bqyWIBJjGTdwJW-107">
          <mxGeometry width="50" height="50" relative="1" as="geometry">
            <mxPoint x="86.53204299822667" y="19.41012540640967" as="sourcePoint" />
            <mxPoint x="117.00454368268795" y="28.97526657911918" as="targetPoint" />
            <Array as="points">
              <mxPoint x="94.4296046359803" y="19.203634890663512" />
              <mxPoint x="105.71707415933415" y="29.33276529942855" />
            </Array>
          </mxGeometry>
        </mxCell>
        <mxCell id="cJ0H96bqyWIBJjGTdwJW-118" value="" style="endArrow=none;exitX=0.14;exitY=0.207;exitDx=0;exitDy=0;exitPerimeter=0;entryX=0.962;entryY=0.209;entryDx=0;entryDy=0;entryPerimeter=0;strokeWidth=1;strokeColor=#0000FF;" edge="1" parent="cJ0H96bqyWIBJjGTdwJW-107">
          <mxGeometry width="50" height="50" relative="1" as="geometry">
            <mxPoint x="171.93689536301014" y="19.611183431816166" as="sourcePoint" />
            <mxPoint x="250.9491820264871" y="19.611183431816166" as="targetPoint" />
            <Array as="points" />
          </mxGeometry>
        </mxCell>
        <mxCell id="cJ0H96bqyWIBJjGTdwJW-119" value="" style="endArrow=none;strokeWidth=1;strokeColor=#0000FF;entryX=0.895;entryY=0.691;entryDx=0;entryDy=0;entryPerimeter=0;" edge="1" parent="cJ0H96bqyWIBJjGTdwJW-107">
          <mxGeometry width="50" height="50" relative="1" as="geometry">
            <mxPoint x="188.49185066392909" y="19.62071673102446" as="sourcePoint" />
            <mxPoint x="245.50561172435786" y="22.177255621388703" as="targetPoint" />
            <Array as="points" />
          </mxGeometry>
        </mxCell>
        <mxCell id="cJ0H96bqyWIBJjGTdwJW-120" value="" style="endArrow=none;strokeWidth=1;strokeColor=#0000FF;entryX=0.85;entryY=0.993;entryDx=0;entryDy=0;entryPerimeter=0;" edge="1" parent="cJ0H96bqyWIBJjGTdwJW-107">
          <mxGeometry width="50" height="50" relative="1" as="geometry">
            <mxPoint x="171.93689536301014" y="29.33276529942855" as="sourcePoint" />
            <mxPoint x="233.02468042340124" y="31.5" as="targetPoint" />
            <Array as="points" />
          </mxGeometry>
        </mxCell>
        <mxCell id="cJ0H96bqyWIBJjGTdwJW-121" value="" style="endArrow=none;exitX=0.14;exitY=0.207;exitDx=0;exitDy=0;exitPerimeter=0;entryX=0.962;entryY=0.209;entryDx=0;entryDy=0;entryPerimeter=0;strokeWidth=1;strokeColor=#0000FF;" edge="1" parent="cJ0H96bqyWIBJjGTdwJW-107">
          <mxGeometry width="50" height="50" relative="1" as="geometry">
            <mxPoint x="186.2343567592584" y="10.2292253484977" as="sourcePoint" />
            <mxPoint x="263.7416474862882" y="10.2292253484977" as="targetPoint" />
            <Array as="points" />
          </mxGeometry>
        </mxCell>
        <mxCell id="cJ0H96bqyWIBJjGTdwJW-122" value="" style="endArrow=none;strokeWidth=1;strokeColor=#0000FF;" edge="1" parent="cJ0H96bqyWIBJjGTdwJW-107">
          <mxGeometry width="50" height="50" relative="1" as="geometry">
            <mxPoint x="-1.0030206881985952" y="19.76718564197811" as="sourcePoint" />
            <mxPoint x="27.591902104297787" y="0.7152810032512795" as="targetPoint" />
          </mxGeometry>
        </mxCell>
        <mxCell id="cJ0H96bqyWIBJjGTdwJW-123" value="" style="endArrow=none;strokeWidth=1;strokeColor=#666666;" edge="1" parent="cJ0H96bqyWIBJjGTdwJW-107">
          <mxGeometry width="50" height="50" relative="1" as="geometry">
            <mxPoint x="89.23123721862751" y="19.665680894301968" as="sourcePoint" />
            <mxPoint x="117.82616001112396" y="0.0032512772874924542" as="targetPoint" />
          </mxGeometry>
        </mxCell>
        <mxCell id="cJ0H96bqyWIBJjGTdwJW-124" value="" style="endArrow=none;exitX=0.14;exitY=0.207;exitDx=0;exitDy=0;exitPerimeter=0;entryX=0.962;entryY=0.209;entryDx=0;entryDy=0;entryPerimeter=0;strokeWidth=1;strokeColor=#0000FF;" edge="1" parent="cJ0H96bqyWIBJjGTdwJW-107">
          <mxGeometry width="50" height="50" relative="1" as="geometry">
            <mxPoint x="199.45123107313754" y="0.8055590811431057" as="sourcePoint" />
            <mxPoint x="276.9585218001676" y="0.8055590811431057" as="targetPoint" />
            <Array as="points" />
          </mxGeometry>
        </mxCell>
        <mxCell id="cJ0H96bqyWIBJjGTdwJW-125" value="" style="endArrow=none;strokeWidth=1;strokeColor=#666666;" edge="1" parent="cJ0H96bqyWIBJjGTdwJW-107">
          <mxGeometry width="50" height="50" relative="1" as="geometry">
            <mxPoint x="248.530310193448" y="19.87454082244406" as="sourcePoint" />
            <mxPoint x="277.53" y="0.7152810032512795" as="targetPoint" />
          </mxGeometry>
        </mxCell>
        <mxCell id="cJ0H96bqyWIBJjGTdwJW-126" value="" style="line;strokeWidth=1;perimeter=backbonePerimeter;points=[];outlineConnect=0;rounded=0;shadow=0;labelBackgroundColor=none;sketch=0;fillColor=#4D4D4D;gradientColor=none;fontFamily=Times New Roman;fontSize=10;fontColor=#000000;align=left;strokeColor=#FF0000;" vertex="1" parent="cJ0H96bqyWIBJjGTdwJW-107">
          <mxGeometry x="21.62273729673396" width="251.968" height="8.128193218764517" as="geometry" />
        </mxCell>
        <mxCell id="cJ0H96bqyWIBJjGTdwJW-127" value="" style="line;strokeWidth=1;perimeter=backbonePerimeter;points=[];outlineConnect=0;rounded=0;shadow=0;labelBackgroundColor=none;sketch=0;fillColor=#4D4D4D;gradientColor=none;fontFamily=Times New Roman;fontSize=10;fontColor=#000000;align=left;strokeColor=#FF0000;" vertex="1" parent="cJ0H96bqyWIBJjGTdwJW-107">
          <mxGeometry x="17.49678142977421" y="3.148862052949376" width="247.90734827387232" height="8.128193218764517" as="geometry" />
        </mxCell>
        <mxCell id="cJ0H96bqyWIBJjGTdwJW-128" value="" style="line;strokeWidth=1;perimeter=backbonePerimeter;points=[];outlineConnect=0;rounded=0;shadow=0;labelBackgroundColor=none;sketch=0;fillColor=#4D4D4D;gradientColor=none;fontFamily=Times New Roman;fontSize=10;fontColor=#000000;align=left;strokeColor=#FF0000;" vertex="1" parent="cJ0H96bqyWIBJjGTdwJW-107">
          <mxGeometry x="8.496877696706358" y="9.65141662796099" width="247.90734827387232" height="8.128193218764517" as="geometry" />
        </mxCell>
        <mxCell id="cJ0H96bqyWIBJjGTdwJW-129" value="" style="line;strokeWidth=1;perimeter=backbonePerimeter;points=[];outlineConnect=0;rounded=0;shadow=0;labelBackgroundColor=none;sketch=0;fillColor=#4D4D4D;gradientColor=none;fontFamily=Times New Roman;fontSize=10;fontColor=#000000;align=left;strokeColor=#FF0000;" vertex="1" parent="cJ0H96bqyWIBJjGTdwJW-107">
          <mxGeometry x="4.37092182974661" y="12.80027868091036" width="247.90734827387232" height="8.128193218764517" as="geometry" />
        </mxCell>
        <mxCell id="cJ0H96bqyWIBJjGTdwJW-130" value="" style="endArrow=none;strokeWidth=1;fontFamily=Times New Roman;fontSize=10;fontColor=#000000;strokeColor=#FF3333;" edge="1" parent="cJ0H96bqyWIBJjGTdwJW-107">
          <mxGeometry width="50" height="50" relative="1" as="geometry">
            <mxPoint x="18.532770348380687" y="19.41012540640967" as="sourcePoint" />
            <mxPoint x="46.532470851258445" y="0.7152810032512795" as="targetPoint" />
          </mxGeometry>
        </mxCell>
        <mxCell id="cJ0H96bqyWIBJjGTdwJW-131" value="" style="endArrow=none;strokeWidth=1;fontFamily=Times New Roman;fontSize=10;fontColor=#000000;strokeColor=#FF3333;" edge="1" parent="cJ0H96bqyWIBJjGTdwJW-107">
          <mxGeometry width="50" height="50" relative="1" as="geometry">
            <mxPoint x="8.536877268853347" y="19.413376683697166" as="sourcePoint" />
            <mxPoint x="36.5365777717311" y="0.7185322805387894" as="targetPoint" />
          </mxGeometry>
        </mxCell>
        <mxCell id="cJ0H96bqyWIBJjGTdwJW-132" value="" style="endArrow=none;strokeWidth=1;fontFamily=Times New Roman;fontSize=10;fontColor=#000000;strokeColor=#FF3333;" edge="1" parent="cJ0H96bqyWIBJjGTdwJW-107">
          <mxGeometry width="50" height="50" relative="1" as="geometry">
            <mxPoint x="38.4865569138958" y="19.510915002322346" as="sourcePoint" />
            <mxPoint x="66.48625741677355" y="0.8160705991639615" as="targetPoint" />
          </mxGeometry>
        </mxCell>
        <mxCell id="cJ0H96bqyWIBJjGTdwJW-133" value="" style="endArrow=none;strokeWidth=1;fontFamily=Times New Roman;fontSize=10;fontColor=#000000;strokeColor=#FF3333;" edge="1" parent="cJ0H96bqyWIBJjGTdwJW-107">
          <mxGeometry width="50" height="50" relative="1" as="geometry">
            <mxPoint x="28.490663834368455" y="19.514166279609842" as="sourcePoint" />
            <mxPoint x="56.49036433724621" y="0.8193218764514714" as="targetPoint" />
          </mxGeometry>
        </mxCell>
        <mxCell id="cJ0H96bqyWIBJjGTdwJW-134" value="" style="endArrow=none;strokeWidth=1;fontFamily=Times New Roman;fontSize=10;fontColor=#000000;strokeColor=#FF3333;" edge="1" parent="cJ0H96bqyWIBJjGTdwJW-107">
          <mxGeometry width="50" height="50" relative="1" as="geometry">
            <mxPoint x="58.40634384308599" y="19.30771017185323" as="sourcePoint" />
            <mxPoint x="86.40604434596375" y="0.6128657686948485" as="targetPoint" />
          </mxGeometry>
        </mxCell>
        <mxCell id="cJ0H96bqyWIBJjGTdwJW-135" value="" style="endArrow=none;strokeWidth=1;fontFamily=Times New Roman;fontSize=10;fontColor=#000000;strokeColor=#FF3333;" edge="1" parent="cJ0H96bqyWIBJjGTdwJW-107">
          <mxGeometry width="50" height="50" relative="1" as="geometry">
            <mxPoint x="48.41045076355865" y="19.31096144914073" as="sourcePoint" />
            <mxPoint x="76.41015126643642" y="0.6161170459823584" as="targetPoint" />
          </mxGeometry>
        </mxCell>
        <mxCell id="cJ0H96bqyWIBJjGTdwJW-136" value="" style="endArrow=none;strokeWidth=1;fontFamily=Times New Roman;fontSize=10;fontColor=#000000;strokeColor=#FF3333;" edge="1" parent="cJ0H96bqyWIBJjGTdwJW-107">
          <mxGeometry width="50" height="50" relative="1" as="geometry">
            <mxPoint x="78.3601304086011" y="19.408499767765907" as="sourcePoint" />
            <mxPoint x="106.35983091147885" y="0.7136553646075248" as="targetPoint" />
          </mxGeometry>
        </mxCell>
        <mxCell id="cJ0H96bqyWIBJjGTdwJW-137" value="" style="endArrow=none;strokeWidth=1;fontFamily=Times New Roman;fontSize=10;fontColor=#000000;strokeColor=#FF3333;" edge="1" parent="cJ0H96bqyWIBJjGTdwJW-107">
          <mxGeometry width="50" height="50" relative="1" as="geometry">
            <mxPoint x="68.36423732907376" y="19.411751045053407" as="sourcePoint" />
            <mxPoint x="96.36393783195152" y="0.716906641895046" as="targetPoint" />
          </mxGeometry>
        </mxCell>
        <mxCell id="cJ0H96bqyWIBJjGTdwJW-138" value="" style="endArrow=none;strokeWidth=1;fontFamily=Times New Roman;fontSize=10;fontColor=#000000;strokeColor=#FF3333;" edge="1" parent="cJ0H96bqyWIBJjGTdwJW-107">
          <mxGeometry width="50" height="50" relative="1" as="geometry">
            <mxPoint x="101.53" y="25.26000000000002" as="sourcePoint" />
            <mxPoint x="137.52549754978915" y="0.9136089177891337" as="targetPoint" />
          </mxGeometry>
        </mxCell>
        <mxCell id="cJ0H96bqyWIBJjGTdwJW-139" value="" style="endArrow=none;strokeWidth=1;fontFamily=Times New Roman;fontSize=10;fontColor=#000000;strokeColor=#FF3333;" edge="1" parent="cJ0H96bqyWIBJjGTdwJW-107">
          <mxGeometry width="50" height="50" relative="1" as="geometry">
            <mxPoint x="99.52990396738404" y="19.611704598235022" as="sourcePoint" />
            <mxPoint x="127.5296044702618" y="0.9168601950766551" as="targetPoint" />
          </mxGeometry>
        </mxCell>
        <mxCell id="cJ0H96bqyWIBJjGTdwJW-140" value="" style="endArrow=none;strokeWidth=1;fontFamily=Times New Roman;fontSize=10;fontColor=#000000;strokeColor=#FF3333;" edge="1" parent="cJ0H96bqyWIBJjGTdwJW-107">
          <mxGeometry width="50" height="50" relative="1" as="geometry">
            <mxPoint x="117.53" y="28.26000000000002" as="sourcePoint" />
            <mxPoint x="158.4792734189784" y="1.0143985137018097" as="targetPoint" />
          </mxGeometry>
        </mxCell>
        <mxCell id="cJ0H96bqyWIBJjGTdwJW-141" value="" style="endArrow=none;strokeWidth=1;fontFamily=Times New Roman;fontSize=10;fontColor=#000000;strokeColor=#FF3333;" edge="1" parent="cJ0H96bqyWIBJjGTdwJW-107">
          <mxGeometry width="50" height="50" relative="1" as="geometry">
            <mxPoint x="107.53" y="28.26000000000002" as="sourcePoint" />
            <mxPoint x="148.48338033945117" y="1.017649790989331" as="targetPoint" />
          </mxGeometry>
        </mxCell>
        <mxCell id="cJ0H96bqyWIBJjGTdwJW-142" value="" style="endArrow=none;strokeWidth=1;fontFamily=Times New Roman;fontSize=10;fontColor=#000000;strokeColor=#FF3333;" edge="1" parent="cJ0H96bqyWIBJjGTdwJW-107">
          <mxGeometry width="50" height="50" relative="1" as="geometry">
            <mxPoint x="137.53" y="28.26000000000002" as="sourcePoint" />
            <mxPoint x="178.39906034816866" y="0.8111936832326969" as="targetPoint" />
          </mxGeometry>
        </mxCell>
        <mxCell id="cJ0H96bqyWIBJjGTdwJW-143" value="" style="endArrow=none;strokeWidth=1;fontFamily=Times New Roman;fontSize=10;fontColor=#000000;strokeColor=#FF3333;" edge="1" parent="cJ0H96bqyWIBJjGTdwJW-107">
          <mxGeometry width="50" height="50" relative="1" as="geometry">
            <mxPoint x="125.53" y="29.26000000000002" as="sourcePoint" />
            <mxPoint x="168.4031672686413" y="0.8144449605202181" as="targetPoint" />
          </mxGeometry>
        </mxCell>
        <mxCell id="cJ0H96bqyWIBJjGTdwJW-144" value="" style="endArrow=none;strokeWidth=1;fontFamily=Times New Roman;fontSize=10;fontColor=#000000;strokeColor=#FF3333;" edge="1" parent="cJ0H96bqyWIBJjGTdwJW-107">
          <mxGeometry width="50" height="50" relative="1" as="geometry">
            <mxPoint x="156" y="29.26000000000002" as="sourcePoint" />
            <mxPoint x="198.35284691368372" y="0.9119832791453729" as="targetPoint" />
          </mxGeometry>
        </mxCell>
        <mxCell id="cJ0H96bqyWIBJjGTdwJW-145" value="" style="endArrow=none;strokeWidth=1;fontFamily=Times New Roman;fontSize=10;fontColor=#000000;strokeColor=#FF3333;" edge="1" parent="cJ0H96bqyWIBJjGTdwJW-107">
          <mxGeometry width="50" height="50" relative="1" as="geometry">
            <mxPoint x="146.53" y="29.26000000000002" as="sourcePoint" />
            <mxPoint x="188.35695383415649" y="0.9152345564328943" as="targetPoint" />
          </mxGeometry>
        </mxCell>
        <mxCell id="cJ0H96bqyWIBJjGTdwJW-146" value="" style="endArrow=none;strokeWidth=1;fontFamily=Times New Roman;fontSize=10;fontColor=#000000;strokeColor=#FF3333;" edge="1" parent="cJ0H96bqyWIBJjGTdwJW-107">
          <mxGeometry width="50" height="50" relative="1" as="geometry">
            <mxPoint x="177.53" y="29.26000000000002" as="sourcePoint" />
            <mxPoint x="219.52262047246666" y="0.9201114723641185" as="targetPoint" />
          </mxGeometry>
        </mxCell>
        <mxCell id="cJ0H96bqyWIBJjGTdwJW-147" value="" style="endArrow=none;strokeWidth=1;fontFamily=Times New Roman;fontSize=10;fontColor=#000000;strokeColor=#FF3333;" edge="1" parent="cJ0H96bqyWIBJjGTdwJW-107">
          <mxGeometry width="50" height="50" relative="1" as="geometry">
            <mxPoint x="167.53" y="29.26000000000002" as="sourcePoint" />
            <mxPoint x="209.52672739293953" y="0.9233627496516399" as="targetPoint" />
          </mxGeometry>
        </mxCell>
        <mxCell id="cJ0H96bqyWIBJjGTdwJW-148" value="" style="endArrow=none;strokeWidth=1;fontFamily=Times New Roman;fontSize=10;fontColor=#000000;strokeColor=#FF3333;" edge="1" parent="cJ0H96bqyWIBJjGTdwJW-107">
          <mxGeometry width="50" height="50" relative="1" as="geometry">
            <mxPoint x="211.44270689877914" y="19.411751045053418" as="sourcePoint" />
            <mxPoint x="239.44240740165674" y="0.7169066418950287" as="targetPoint" />
          </mxGeometry>
        </mxCell>
        <mxCell id="cJ0H96bqyWIBJjGTdwJW-149" value="" style="endArrow=none;strokeWidth=1;fontFamily=Times New Roman;fontSize=10;fontColor=#000000;strokeColor=#FF3333;" edge="1" parent="cJ0H96bqyWIBJjGTdwJW-107">
          <mxGeometry width="50" height="50" relative="1" as="geometry">
            <mxPoint x="201.44681381925182" y="19.415002322340918" as="sourcePoint" />
            <mxPoint x="229.4465143221295" y="0.72015791918255" as="targetPoint" />
          </mxGeometry>
        </mxCell>
        <mxCell id="cJ0H96bqyWIBJjGTdwJW-150" value="" style="endArrow=none;strokeWidth=1;fontFamily=Times New Roman;fontSize=10;fontColor=#000000;strokeColor=#FF3333;" edge="1" parent="cJ0H96bqyWIBJjGTdwJW-107">
          <mxGeometry width="50" height="50" relative="1" as="geometry">
            <mxPoint x="221.40060038476707" y="19.51579191825357" as="sourcePoint" />
            <mxPoint x="249.40030088764468" y="0.8209475150952261" as="targetPoint" />
          </mxGeometry>
        </mxCell>
        <mxCell id="cJ0H96bqyWIBJjGTdwJW-151" value="" style="endArrow=none;strokeWidth=1;fontFamily=Times New Roman;fontSize=10;fontColor=#000000;strokeColor=#FF3333;" edge="1" parent="cJ0H96bqyWIBJjGTdwJW-107">
          <mxGeometry width="50" height="50" relative="1" as="geometry">
            <mxPoint x="240.52639580683964" y="18.79725963771482" as="sourcePoint" />
            <mxPoint x="268.5260963097174" y="0.10241523455640791" as="targetPoint" />
          </mxGeometry>
        </mxCell>
        <mxCell id="cJ0H96bqyWIBJjGTdwJW-152" value="" style="endArrow=none;strokeWidth=1;fontFamily=Times New Roman;fontSize=10;fontColor=#000000;strokeColor=#FF3333;" edge="1" parent="cJ0H96bqyWIBJjGTdwJW-107">
          <mxGeometry width="50" height="50" relative="1" as="geometry">
            <mxPoint x="230.5305027273124" y="18.80051091500232" as="sourcePoint" />
            <mxPoint x="258.5302032301903" y="0.10566651184392925" as="targetPoint" />
          </mxGeometry>
        </mxCell>
        <mxCell id="cJ0H96bqyWIBJjGTdwJW-153" value="" style="endArrow=none;strokeWidth=1;fontFamily=Times New Roman;fontSize=10;fontColor=#000000;strokeColor=#FF3333;" edge="1" parent="cJ0H96bqyWIBJjGTdwJW-107">
          <mxGeometry width="50" height="50" relative="1" as="geometry">
            <mxPoint x="249.45030035282835" y="19.410125406409655" as="sourcePoint" />
            <mxPoint x="277.4500008557061" y="0.7152810032512911" as="targetPoint" />
          </mxGeometry>
        </mxCell>
        <mxCell id="cJ0H96bqyWIBJjGTdwJW-154" value="" style="endArrow=none;strokeWidth=1;strokeColor=#FF0000;" edge="1" parent="cJ0H96bqyWIBJjGTdwJW-106">
          <mxGeometry width="50" height="50" relative="1" as="geometry">
            <mxPoint x="167.5308953630101" y="22.25676529942855" as="sourcePoint" />
            <mxPoint x="239.53" y="25.26000000000002" as="targetPoint" />
            <Array as="points" />
          </mxGeometry>
        </mxCell>
        <mxCell id="cJ0H96bqyWIBJjGTdwJW-155" value="" style="endArrow=none;strokeWidth=1;entryX=0.85;entryY=0.993;entryDx=0;entryDy=0;entryPerimeter=0;strokeColor=#FF0000;" edge="1" parent="cJ0H96bqyWIBJjGTdwJW-106">
          <mxGeometry width="50" height="50" relative="1" as="geometry">
            <mxPoint x="98.53" y="22.26076529942854" as="sourcePoint" />
            <mxPoint x="165.6226804234013" y="22.26076529942854" as="targetPoint" />
            <Array as="points" />
          </mxGeometry>
        </mxCell>
        <mxCell id="cJ0H96bqyWIBJjGTdwJW-156" value="" style="endArrow=none;strokeWidth=1;strokeColor=#FF0000;" edge="1" parent="cJ0H96bqyWIBJjGTdwJW-106">
          <mxGeometry width="50" height="50" relative="1" as="geometry">
            <mxPoint x="162.53489536301018" y="25.260765299428556" as="sourcePoint" />
            <mxPoint x="234.53400000000002" y="28.26400000000001" as="targetPoint" />
            <Array as="points" />
          </mxGeometry>
        </mxCell>
        <mxCell id="cJ0H96bqyWIBJjGTdwJW-157" value="" style="endArrow=none;strokeWidth=1;entryX=0.85;entryY=0.993;entryDx=0;entryDy=0;entryPerimeter=0;strokeColor=#FF0000;" edge="1" parent="cJ0H96bqyWIBJjGTdwJW-106">
          <mxGeometry width="50" height="50" relative="1" as="geometry">
            <mxPoint x="103.53" y="25.264765299428518" as="sourcePoint" />
            <mxPoint x="162.62668042340138" y="25.264765299428518" as="targetPoint" />
            <Array as="points" />
          </mxGeometry>
        </mxCell>
        <mxCell id="cJ0H96bqyWIBJjGTdwJW-158" value="" style="endArrow=none;strokeWidth=1;fontFamily=Times New Roman;fontSize=10;fontColor=#000000;strokeColor=#FF3333;" edge="1" parent="cJ0H96bqyWIBJjGTdwJW-106">
          <mxGeometry width="50" height="50" relative="1" as="geometry">
            <mxPoint x="185.53" y="30.26000000000002" as="sourcePoint" />
            <mxPoint x="200.5305143221295" y="20.26415791918255" as="targetPoint" />
          </mxGeometry>
        </mxCell>
        <mxCell id="cJ0H96bqyWIBJjGTdwJW-159" value="" style="endArrow=none;strokeWidth=1;fontFamily=Times New Roman;fontSize=10;fontColor=#000000;strokeColor=#FF3333;" edge="1" parent="cJ0H96bqyWIBJjGTdwJW-106">
          <mxGeometry width="50" height="50" relative="1" as="geometry">
            <mxPoint x="194.53400000000002" y="30.25400000000002" as="sourcePoint" />
            <mxPoint x="209.53451432212947" y="20.258157919182565" as="targetPoint" />
          </mxGeometry>
        </mxCell>
        <mxCell id="cJ0H96bqyWIBJjGTdwJW-160" value="" style="endArrow=none;strokeWidth=1;fontFamily=Times New Roman;fontSize=10;fontColor=#000000;strokeColor=#FF3333;" edge="1" parent="cJ0H96bqyWIBJjGTdwJW-106">
          <mxGeometry width="50" height="50" relative="1" as="geometry">
            <mxPoint x="204.53" y="30.26000000000002" as="sourcePoint" />
            <mxPoint x="218.5285143221295" y="21.262157919182556" as="targetPoint" />
          </mxGeometry>
        </mxCell>
        <mxCell id="cJ0H96bqyWIBJjGTdwJW-161" value="" style="endArrow=none;strokeWidth=1;fontFamily=Times New Roman;fontSize=10;fontColor=#000000;strokeColor=#FF3333;" edge="1" parent="cJ0H96bqyWIBJjGTdwJW-106">
          <mxGeometry width="50" height="50" relative="1" as="geometry">
            <mxPoint x="213.53400000000002" y="30.25400000000002" as="sourcePoint" />
            <mxPoint x="227.53251432212951" y="21.256157919182556" as="targetPoint" />
          </mxGeometry>
        </mxCell>
        <mxCell id="cJ0H96bqyWIBJjGTdwJW-162" value="" style="endArrow=none;strokeWidth=1;fontFamily=Times New Roman;fontSize=10;fontColor=#000000;strokeColor=#FF3333;" edge="1" parent="cJ0H96bqyWIBJjGTdwJW-106">
          <mxGeometry width="50" height="50" relative="1" as="geometry">
            <mxPoint x="222.40800000000004" y="30.25800000000001" as="sourcePoint" />
            <mxPoint x="236.40651432212954" y="21.260157919182575" as="targetPoint" />
          </mxGeometry>
        </mxCell>
        <mxCell id="cJ0H96bqyWIBJjGTdwJW-163" value="" style="endArrow=none;strokeWidth=1;fontFamily=Times New Roman;fontSize=10;fontColor=#000000;strokeColor=#FF3333;" edge="1" parent="cJ0H96bqyWIBJjGTdwJW-106">
          <mxGeometry width="50" height="50" relative="1" as="geometry">
            <mxPoint x="231.53" y="31.26000000000002" as="sourcePoint" />
            <mxPoint x="244.53051432212956" y="22.264157919182566" as="targetPoint" />
          </mxGeometry>
        </mxCell>
        <mxCell id="cJ0H96bqyWIBJjGTdwJW-164" value="Bridge" style="text;fontSize=10;labelBackgroundColor=none;" vertex="1" parent="jkVytR9ZvrFqueL40Aw5-1">
          <mxGeometry x="294.22306904985885" y="246.19874961919265" width="34.914486359360296" height="31.495250380807313" as="geometry" />
        </mxCell>
        <mxCell id="cJ0H96bqyWIBJjGTdwJW-165" value="Speed LimitÂ " style="text;fontSize=9;labelBackgroundColor=none;" vertex="1" parent="jkVytR9ZvrFqueL40Aw5-1">
          <mxGeometry x="437.76" y="225.51" width="92.28" height="31.5" as="geometry" />
        </mxCell>
        <mxCell id="cJ0H96bqyWIBJjGTdwJW-166" value="" style="endArrow=blockThin;fontSize=14;strokeColor=#1A1A1A;strokeWidth=1;endFill=1;exitX=0.365;exitY=0.505;exitDx=0;exitDy=0;exitPerimeter=0;endSize=3;entryX=0.565;entryY=0.852;entryDx=0;entryDy=0;entryPerimeter=0;dashed=1;dashPattern=1 2;" edge="1" parent="jkVytR9ZvrFqueL40Aw5-1">
          <mxGeometry width="50" height="50" relative="1" as="geometry">
            <mxPoint x="360.2623000000001" y="261.6267499999999" as="sourcePoint" />
            <mxPoint x="495.7793999999999" y="268.21148000000017" as="targetPoint" />
            <Array as="points">
              <mxPoint x="433.884" y="262.194" />
            </Array>
          </mxGeometry>
        </mxCell>
        <mxCell id="cJ0H96bqyWIBJjGTdwJW-167" value="" style="endArrow=blockThin;fontSize=14;strokeWidth=1;endFill=1;strokeColor=#1A1A1A;endSize=3;dashed=1;dashPattern=1 2;" edge="1" parent="jkVytR9ZvrFqueL40Aw5-1">
          <mxGeometry width="50" height="50" relative="1" as="geometry">
            <mxPoint x="271.1080000000002" y="246.19399999999996" as="sourcePoint" />
            <mxPoint x="364.884" y="246.19399999999996" as="targetPoint" />
          </mxGeometry>
        </mxCell>
        <mxCell id="cJ0H96bqyWIBJjGTdwJW-168" value="" style="endArrow=blockThin;fontSize=14;strokeWidth=1;endFill=1;strokeColor=#1A1A1A;endSize=3;dashed=1;dashPattern=1 2;" edge="1" parent="jkVytR9ZvrFqueL40Aw5-1">
          <mxGeometry width="50" height="50" relative="1" as="geometry">
            <mxPoint x="370.884" y="246.19399999999996" as="sourcePoint" />
            <mxPoint x="524.884" y="246.19399999999996" as="targetPoint" />
          </mxGeometry>
        </mxCell>
        <mxCell id="cJ0H96bqyWIBJjGTdwJW-169" value="Speed LimitÂ " style="text;fontSize=9;labelBackgroundColor=none;" vertex="1" parent="jkVytR9ZvrFqueL40Aw5-1">
          <mxGeometry x="402.76" y="260.51" width="57.35" height="20.74" as="geometry" />
        </mxCell>
        <mxCell id="cJ0H96bqyWIBJjGTdwJW-170" value="Objects Associated with Sections" style="text;whiteSpace=wrap;fontSize=10;" vertex="1" parent="jkVytR9ZvrFqueL40Aw5-1">
          <mxGeometry x="310.86999999999995" y="214.69" width="164.21" height="23.62" as="geometry" />
        </mxCell>
      </root>
    </mxGraphModel>
  </diagram>
</mxfile>
